<?xml version="1.0" standalone="no"?>
<!DOCTYPE svg PUBLIC "-//W3C//DTD SVG 1.1//EN" "http://www.w3.org/Graphics/SVG/1.1/DTD/svg11.dtd" >
<svg xmlns="http://www.w3.org/2000/svg" xmlns:xlink="http://www.w3.org/1999/xlink" version="1.1">
<metadata>
Created by FontForge 20170731 at Thu Mar 16 14:53:28 2017
 By Aleksey,,,
</metadata>
<defs>
<font id="Ubuntu" horiz-adv-x="581" >
  <font-face 
    font-family="Ubuntu"
    font-weight="400"
    font-stretch="normal"
    units-per-em="1024"
    panose-1="2 11 6 0 5 3 2 2 2 4"
    ascent="819"
    descent="-205"
    x-height="532"
    cap-height="711"
    bbox="-169 -240 2313 986"
    underline-thickness="0"
    underline-position="-194"
    unicode-range="U+0020-F002"
  />
<missing-glyph horiz-adv-x="512" 
 />
    <glyph glyph-name=".notdef" horiz-adv-x="512" 
 />
    <glyph glyph-name=".null" horiz-adv-x="0" 
 />
    <glyph glyph-name="nonmarkingreturn" horiz-adv-x="341" 
 />
    <glyph glyph-name="space" unicode=" " horiz-adv-x="240" 
d="M0 0v1v-1z" />
    <glyph glyph-name="exclam" unicode="!" horiz-adv-x="286" 
d="M195 517v192h-102v-192q0 -86 6 -156t15 -140h59q9 70 15 140t6 156h1zM212 55q0 28 -18 48t-50 20t-50 -20t-18 -48t18 -48t50 -20t50 20t18 48v0v1v-1z" />
    <glyph glyph-name="quotedbl" unicode="&#x22;" horiz-adv-x="432" 
d="M175 778h-99v-50q0 -51 6 -106t15 -109h56q9 54 15 109t6 105v51v0h1zM356 778h-99v-50q0 -51 6 -106t15 -109h56q9 54 15 109t6 105v51v0v0v1z" />
    <glyph glyph-name="numbersign" unicode="#" horiz-adv-x="687" 
d="M293 522l36 187h-86l-36 -187h-155v-76h139l-35 -183h-104v-76h90l-36 -187h86l36 187h166l-36 -187h86l36 187h155v76h-140l35 183h105v76h-90l36 187h-86l-36 -187h-166v0v0zM243 263l36 183h166l-36 -183h-166v0v1v-1z" />
    <glyph glyph-name="dollar" unicode="$" 
d="M270 97q-64 0 -107 12t-74 26l-26 -77q23 -12 68 -26t117 -16v-129h85v132q92 11 136 56t44 118q0 45 -16 77t-43 55t-63 39t-76 31q-31 11 -56 21t-43 23t-28 29t-10 40q0 43 33 67t94 24q55 0 92 -10t62 -19l19 80q-23 8 -62 17t-84 11v115h-85v-118q-83 -12 -127 -59
t-44 -120q0 -41 15 -69t39 -48t54 -34t61 -25q32 -11 62 -23t53 -27t37 -35t14 -49q0 -39 -32 -64t-111 -25v0v0v1z" />
    <glyph glyph-name="percent" unicode="%" horiz-adv-x="882" 
d="M53 537q0 -46 12 -81t34 -59t52 -36t65 -12t65 12t52 36t34 59t12 81t-12 81t-34 59t-52 36t-65 12t-65 -12t-52 -36t-34 -59t-12 -81v0zM299 537q0 -55 -22 -86t-62 -31t-62 31t-22 86t22 86t62 31t62 -31t22 -86v0zM504 173q0 -46 12 -81t34 -59t52 -36t65 -12t65 12
t52 36t34 59t12 81t-12 81t-34 59t-52 36t-65 12t-65 -12t-52 -36t-34 -59t-12 -81v0zM750 173q0 -55 -22 -86t-62 -31t-62 31t-22 86t22 86t62 31t62 -31t22 -86v0zM688 710h-93l-400 -710h93l400 710v0v1v-1z" />
    <glyph glyph-name="ampersand" unicode="&#x26;" horiz-adv-x="686" 
d="M49 188q0 -32 11 -67t38 -64t71 -48t111 -19q72 0 127 26t97 68q19 -22 37 -44t30 -42h100q-19 36 -49 74t-66 77q31 49 48 99t21 92l-79 10q-10 -79 -45 -143l-166 169q29 15 55 34t46 43t32 53t12 65q0 32 -11 61t-33 49t-54 32t-73 12q-40 0 -73 -12t-57 -35t-38 -56
t-14 -74q0 -81 76 -157q-30 -14 -58 -33t-49 -44t-33 -56t-12 -71v0zM144 190q0 33 10 58t25 43t34 30t37 21l200 -202q-33 -34 -75 -52t-92 -18q-39 0 -65 12t-42 30t-23 40t-7 40v0zM393 568q0 -27 -9 -48t-24 -38t-35 -30t-43 -24q-70 64 -70 131q0 40 24 67t69 27
q40 0 63 -24t23 -59v0v0v1z" />
    <glyph glyph-name="quotesingle" unicode="'" horiz-adv-x="250" 
d="M175 778h-99v-50q0 -51 6 -106t15 -109h56q9 54 15 109t6 105v51v0v0v1z" />
    <glyph glyph-name="parenleft" unicode="(" horiz-adv-x="335" 
d="M177 306q0 131 38 243t112 207l-68 46q-80 -97 -129 -223t-49 -271t49 -271t129 -223l68 46q-74 95 -112 207t-38 243v0v1v-5z" />
    <glyph glyph-name="parenright" unicode=")" horiz-adv-x="335" 
d="M159 306q0 -131 -38 -243t-112 -207l68 -46q80 97 129 223t49 271t-49 271t-129 223l-68 -46q74 -95 112 -207t38 -243v0v1v3z" />
    <glyph glyph-name="asterisk" unicode="*" horiz-adv-x="495" 
d="M294 701v8h-92v-8q0 -43 8 -82t16 -81q-37 20 -73 39t-78 33l-6 2l-29 -86l8 -3q41 -15 82 -20t84 -8q-34 -29 -64 -56t-56 -63l-5 -7l75 -52l4 6q25 37 43 73t36 75q18 -39 36 -75t43 -73l4 -6l75 52l-5 7q-26 36 -56 63t-64 56q43 3 84 8t82 20l8 3l-29 86l-6 -2
q-42 -14 -78 -33t-73 -39q8 42 16 81t8 82v0v0v1z" />
    <glyph glyph-name="plus" unicode="+" 
d="M56 347v-81h194v-212h82v212h194v81h-194v211h-82v-211h-194v0v1v-1z" />
    <glyph glyph-name="comma" unicode="," horiz-adv-x="256" 
d="M184 117h-103q1 -11 1 -23v-25q0 -47 -8 -101t-34 -106l74 -24q33 57 52 120t19 127v16t-1 16v0v0v1v-1z" />
    <glyph glyph-name="hyphen" unicode="-" horiz-adv-x="310" 
d="M29 351v-89h253v89h-253v0v1v-1z" />
    <glyph glyph-name="period" unicode="." horiz-adv-x="256" 
d="M197 55q0 28 -18 48t-50 20t-50 -20t-18 -48t18 -48t50 -20t50 20t18 48v0v1v-1z" />
    <glyph glyph-name="slash" unicode="/" horiz-adv-x="397" 
d="M75 -189l345 991h-95l-347 -991h97v0v1v-1z" />
    <glyph glyph-name="zero" unicode="0" 
d="M53 355q0 -178 63 -274t175 -96t175 96t63 274t-63 274t-175 96t-175 -96t-63 -274v0zM428 355q0 -58 -7 -110t-23 -91t-43 -62t-66 -23t-66 23t-43 62t-23 91t-7 110t7 110t23 91t43 62t66 23t66 -23t43 -62t23 -91t7 -110v0v1v-1z" />
    <glyph glyph-name="one" unicode="1" 
d="M97 563l30 -72q22 7 45 17t44 21t39 23t30 23v-578h95v710h-68q-46 -53 -101 -88t-113 -58v0v0v1z" />
    <glyph glyph-name="two" unicode="2" 
d="M480 528q0 94 -56 146t-168 52q-37 0 -69 -9t-58 -22t-44 -28t-27 -25l47 -68q7 6 20 18t32 23t44 19t55 8q25 0 47 -7t38 -21t26 -36t10 -53q0 -29 -11 -55t-29 -50t-41 -48t-49 -49q-31 -31 -63 -64t-58 -70t-42 -78t-16 -89v-11t1 -12h430v81h-327q0 17 14 41t34 50
t43 50t40 41q31 31 62 63t56 65t40 67t15 71v0v0v1z" />
    <glyph glyph-name="three" unicode="3" 
d="M233 70q-58 0 -98 13t-57 21l-18 -83q8 -4 26 -10t43 -12t53 -10t55 -4q69 0 119 16t83 45t49 68t16 85q0 38 -12 69t-31 55t-45 39t-54 23q45 20 77 59t32 94q0 40 -13 74t-40 59t-68 39t-97 14q-30 0 -57 -6t-51 -14t-43 -18t-31 -18l37 -73q24 15 58 29t83 14
q25 0 47 -6t39 -19t27 -33t10 -49q0 -35 -14 -58t-37 -36t-50 -18t-53 -5h-34v-78h25q37 0 72 -7t62 -23t43 -43t16 -66q0 -60 -39 -96t-130 -36v0v0v1v4z" />
    <glyph glyph-name="four" unicode="4" 
d="M43 246v-64h317v-181h92v181h84v78h-84v451h-91q-49 -49 -98 -110t-91 -125t-76 -124t-53 -105v0v-1zM360 597v-338h-225q20 44 46 90t56 90t61 84t62 73v0v0v1v0z" />
    <glyph glyph-name="five" unicode="5" 
d="M206 436q2 15 4 42t4 55t4 54t3 41h259v81h-342q-2 -46 -4 -87t-5 -83t-7 -86t-10 -94q86 0 142 -11t90 -31t47 -50t13 -69q0 -26 -9 -49t-28 -40t-50 -27t-77 -10q-57 0 -96 13t-56 21l-18 -83q8 -4 26 -10t42 -12t52 -10t55 -4q68 0 117 16t81 45t48 69t16 87
q0 105 -72 166t-227 67v0v0v1z" />
    <glyph glyph-name="six" unicode="6" 
d="M67 285q0 -140 61 -220t178 -80q57 0 99 22t69 56t40 75t13 80q0 43 -12 82t-39 69t-69 48t-102 18q-36 0 -69 -8t-60 -20q13 62 40 104t66 69t89 39t110 13l-7 80q-94 -1 -169 -29t-128 -82t-82 -133t-29 -182zM296 357q67 0 100 -37t33 -107q0 -25 -7 -51t-22 -49
t-39 -37t-58 -14q-41 0 -68 18t-43 48t-22 70t-6 85v23t1 23q31 13 62 20t67 7v0v0v1h2z" />
    <glyph glyph-name="seven" unicode="7" 
d="M169 0h99q6 95 32 191t62 180t77 152t75 107v79h-452v-83h345q-39 -46 -79 -119t-74 -159t-57 -177t-29 -173v0v0v1z" />
    <glyph glyph-name="eight" unicode="8" 
d="M523 184q-2 124 -123 181q20 13 39 30t34 40t24 49t9 56q0 31 -12 64t-38 60t-67 44t-98 17q-49 0 -89 -16t-68 -43t-43 -62t-15 -74q0 -112 100 -169q-24 -14 -45 -33t-37 -43t-26 -51t-10 -57q0 -31 11 -65t38 -63t72 -48t112 -19q57 0 101 15t73 42t44 63t15 79v0z
M155 178q0 52 25 90t71 64q41 -9 73 -22t55 -31t35 -43t12 -58q0 -22 -8 -42t-24 -36t-42 -26t-61 -10q-39 0 -65 11t-42 28t-23 37t-7 38v0h1zM411 542q0 -55 -26 -89t-69 -60q-39 9 -67 24t-45 34t-25 42t-8 46q0 18 7 37t21 35t37 26t56 10t56 -11t37 -27t21 -34t7 -33v0
v0v1z" />
    <glyph glyph-name="nine" unicode="9" 
d="M515 426q0 70 -15 126t-45 95t-75 59t-103 20q-57 0 -99 -22t-69 -56t-40 -75t-13 -79q0 -43 12 -82t39 -69t69 -48t102 -18q36 0 70 8t61 20q-12 -62 -38 -105t-65 -70t-91 -39t-116 -12l3 -80q207 1 312 109t105 319v0zM286 355q-67 0 -100 36t-33 106q0 25 7 51t22 48
t39 36t58 14q41 0 68 -18t43 -48t22 -70t6 -84v-22t-1 -22q-30 -13 -62 -20t-68 -7v0v0v1z" />
    <glyph glyph-name="colon" unicode=":" horiz-adv-x="256" 
d="M197 55q0 28 -18 48t-50 20t-50 -20t-18 -48t18 -48t50 -20t50 20t18 48v0zM197 464q0 28 -18 48t-50 20t-50 -20t-18 -48t18 -48t50 -20t50 20t18 48v0v1v-1z" />
    <glyph glyph-name="semicolon" unicode=";" horiz-adv-x="256" 
d="M184 117h-103q1 -11 1 -23v-25q0 -47 -8 -101t-34 -106l74 -24q33 57 52 120t19 127v16t-1 16v0v0zM197 464q0 28 -18 48t-50 20t-50 -20t-18 -48t18 -48t50 -20t50 20t18 48v0v1v-1z" />
    <glyph glyph-name="less" unicode="&#x3c;" 
d="M162 306l364 150l-27 79l-442 -187v-82l442 -187l27 79l-364 150v0v1v-3z" />
    <glyph glyph-name="equal" unicode="=" 
d="M56 238v-81h469v81h-469v0zM56 456v-81h469v81h-469v0v1v-1z" />
    <glyph glyph-name="greater" unicode="&#x3e;" 
d="M56 456l364 -150l-364 -150l27 -79l442 187v82l-442 187l-27 -79v0v1v1z" />
    <glyph glyph-name="question" unicode="?" horiz-adv-x="417" 
d="M180 646q53 0 81 -27t28 -70q0 -27 -12 -50t-30 -43t-38 -40t-38 -43t-30 -50t-12 -60q0 -23 4 -43h80q-1 5 -1 11v11q0 34 13 61t32 50t43 45t43 46t32 51t13 62q0 28 -9 58t-32 55t-60 41t-95 16q-49 0 -93 -11t-79 -29l27 -74q64 35 132 35v0zM245 55q0 28 -18 48
t-50 20t-50 -20t-18 -48t18 -48t50 -20t50 20t18 48v0v1v-1z" />
    <glyph glyph-name="at" unicode="@" horiz-adv-x="976" 
d="M709 44q41 0 78 18t64 54t43 89t16 123q0 92 -33 165t-89 125t-131 79t-159 27q-86 0 -163 -28t-136 -83t-94 -138t-35 -194q0 -115 35 -198t95 -137t141 -80t172 -26q52 0 98 7t63 13l-10 76q-11 -4 -50 -11t-99 -7q-78 0 -143 23t-113 69t-75 114t-27 158q0 86 25 154
t70 115t107 72t137 25t135 -25t102 -68t65 -100t23 -121q0 -39 -6 -76t-19 -67t-33 -48t-47 -18q-18 0 -29 13t-11 46v313q-24 8 -68 16t-96 8q-55 0 -99 -18t-74 -50t-45 -76t-15 -93q0 -58 16 -102t46 -74t70 -45t89 -15q32 0 64 9t55 21q14 -15 36 -24t55 -9v0zM504 127
q-59 0 -94 43t-35 116q0 69 36 114t109 45q22 0 39 -2t23 -4v-241q0 -12 1 -25t4 -26q-17 -9 -39 -14t-44 -5v0v1v-2z" />
    <glyph glyph-name="A" unicode="A" horiz-adv-x="683" 
d="M564 0h109q-41 113 -77 209t-70 182t-68 164t-71 155h-91q-37 -77 -71 -155t-68 -164t-70 -182t-77 -209h103l64 181h322q16 -46 31 -91t32 -91v0zM471 263h-264q32 89 64 172t68 160q35 -77 67 -160t65 -172v0v0v1v-1z" />
    <glyph glyph-name="B" unicode="B" horiz-adv-x="662" 
d="M282 -6q170 0 248 54t78 160q0 73 -37 113t-99 58q46 18 74 55t28 95q0 52 -23 88t-62 58t-93 31t-115 9q-22 0 -47 -1t-50 -3t-50 -5t-45 -8v-688q20 -5 45 -8t50 -5t50 -3t47 -1v0zM188 331h128q43 0 78 -6t60 -20t38 -38t13 -59q0 -39 -18 -65t-48 -40t-69 -20t-83 -6
h-42t-31 1q-15 1 -26 2v250v0v1zM188 411v219q17 2 39 3t60 1t72 -6t59 -19t39 -34t14 -52q0 -33 -14 -55t-38 -35t-57 -18t-70 -5h-104v0v0v1v0z" />
    <glyph glyph-name="C" unicode="C" horiz-adv-x="638" 
d="M395 -15q43 0 80 5t65 12t46 15t25 13l-26 82q-23 -11 -68 -25t-114 -14q-59 0 -104 20t-75 57t-45 89t-15 116q0 66 17 119t49 90t77 56t101 19q27 0 53 -5t48 -12t39 -14t26 -13l29 82q-6 4 -22 12t-42 16t-61 14t-79 6q-70 0 -131 -25t-107 -72t-73 -116t-27 -158
t24 -158t68 -116t105 -72t136 -25v0v0v1z" />
    <glyph glyph-name="D" unicode="D" horiz-adv-x="734" 
d="M673 355q0 92 -29 160t-81 113t-125 67t-160 22q-43 0 -95 -4t-94 -14v-688q42 -10 94 -14t95 -4q87 0 160 22t125 67t81 113t29 160v0v0zM287 81q-42 0 -65 1t-32 2v543q9 1 32 2t65 1q141 0 211 -72t70 -202t-70 -202t-211 -72v0v0v1v-2z" />
    <glyph glyph-name="E" unicode="E" horiz-adv-x="588" 
d="M90 0h459v85h-359v246h297v83h-297v211h334v85h-433v-710v0v1z" />
    <glyph glyph-name="F" unicode="F" horiz-adv-x="553" 
d="M90 0h99v327h292v84h-292v214h329v85h-428v-710v0v0v1v-1z" />
    <glyph glyph-name="G" unicode="G" horiz-adv-x="692" 
d="M523 349v-264q-13 -4 -43 -9t-73 -5q-60 0 -105 20t-75 57t-45 89t-15 116q0 66 17 119t48 90t76 56t99 19q51 0 100 -13t79 -32l32 83q-6 4 -23 12t-44 16t-64 14t-85 6q-71 0 -133 -25t-108 -72t-73 -116t-27 -158t24 -158t68 -116t105 -72t136 -25q37 0 73 4t66 9
t53 10t35 9v332h-99v0v0v1z" />
    <glyph glyph-name="H" unicode="H" horiz-adv-x="726" 
d="M537 710v-296h-347v296h-99v-710h99v328h347v-328h99v710h-99v0v1v-1z" />
    <glyph glyph-name="I" unicode="I" horiz-adv-x="279" 
d="M90 710v-710h99v710h-99v0v1v-1z" />
    <glyph glyph-name="J" unicode="J" horiz-adv-x="516" 
d="M431 228v481h-99v-472q0 -91 -34 -128t-108 -37q-51 0 -85 17t-56 32l-39 -79q10 -9 27 -19t41 -19t53 -15t64 -6q69 0 115 19t73 52t38 77t11 95v0v0v1z" />
    <glyph glyph-name="K" unicode="K" horiz-adv-x="648" 
d="M615 710h-120q-26 -30 -63 -69t-79 -82t-85 -85t-79 -76v313h-99v-710h99v337q43 -27 89 -65t91 -83t85 -94t71 -97h117q-28 48 -69 101t-88 104t-96 96t-93 76q38 37 81 80t87 88t84 87t72 77v0v0v1z" />
    <glyph glyph-name="L" unicode="L" horiz-adv-x="535" 
d="M517 86h-328v624h-99v-710h427v86v0v0v1v-1z" />
    <glyph glyph-name="M" unicode="M" horiz-adv-x="896" 
d="M409 98h80q10 25 27 63t36 82t41 91t41 88t36 74t27 50q11 -121 18 -262t12 -284h97q-17 367 -52 710h-87q-28 -45 -60 -106t-64 -128t-62 -134t-55 -122q-25 55 -55 122t-62 134t-64 128t-60 106h-87q-9 -77 -17 -163t-15 -177t-12 -185t-9 -186h97q5 143 12 284t18 262
q10 -17 27 -50t36 -74t41 -88t41 -91t36 -82t27 -63v0v0v1h11z" />
    <glyph glyph-name="N" unicode="N" horiz-adv-x="749" 
d="M576 0h83v710h-97v-525q-33 54 -81 124t-102 142t-109 140t-103 119h-79v-710h97v554q29 -33 63 -76t70 -92t72 -101t70 -103t63 -98t52 -85v0v0v1h1z" />
    <glyph glyph-name="O" unicode="O" horiz-adv-x="800" 
d="M61 355q0 -91 27 -161t74 -117t109 -71t132 -24q69 0 130 24t107 71t73 117t27 161t-27 161t-73 117t-107 71t-130 24q-70 0 -132 -24t-109 -71t-74 -117t-27 -161v0zM166 355q0 64 16 117t46 90t74 57t98 20t97 -20t73 -57t46 -90t16 -117t-16 -117t-46 -90t-73 -57
t-97 -20t-98 20t-74 57t-46 90t-16 117v0v1v-1z" />
    <glyph glyph-name="P" unicode="P" horiz-adv-x="626" 
d="M279 717q-43 0 -95 -4t-94 -14v-699h99v263h79q75 0 134 12t100 39t63 71t22 105q0 113 -80 170t-230 57v0h2zM287 630q40 0 76 -6t63 -22t43 -43t16 -68q0 -43 -15 -71t-43 -44t-69 -23t-92 -7h-75v279q34 3 98 3v0v0v1z" />
    <glyph glyph-name="Q" unicode="Q" horiz-adv-x="800" 
d="M61 355q0 -87 25 -154t67 -114t99 -73t121 -30q9 -45 36 -75t66 -49t88 -31t102 -19l24 78q-38 4 -76 12t-69 20t-51 30t-21 42q55 10 104 38t85 74t56 108t20 142q0 91 -27 161t-73 117t-107 71t-130 24q-70 0 -132 -24t-109 -71t-74 -117t-27 -161v0zM166 355
q0 64 16 117t46 90t74 57t98 20t97 -20t73 -57t46 -90t16 -117t-16 -117t-46 -90t-73 -57t-97 -20t-98 20t-74 57t-46 90t-16 117v0v1v-1z" />
    <glyph glyph-name="R" unicode="R" horiz-adv-x="648" 
d="M437 297q73 25 110 75t37 121q0 112 -78 168t-228 56q-43 0 -95 -4t-94 -14v-699h99v278h89h28t27 1q19 -24 43 -56t49 -68t49 -76t44 -79h109q-18 41 -44 85t-53 84t-52 73t-41 53v0zM287 630q40 0 75 -6t61 -21t41 -42t15 -67q0 -43 -15 -69t-43 -40t-69 -19t-92 -5
h-71v267q34 3 98 3v0v0v1v-2z" />
    <glyph glyph-name="S" unicode="S" horiz-adv-x="548" 
d="M255 71q-70 0 -118 16t-72 29l-30 -82q11 -6 31 -15t48 -17t63 -14t77 -6q124 0 192 50t68 143q0 50 -15 85t-43 61t-66 44t-84 36q-33 12 -60 24t-47 27t-31 34t-11 48q0 26 11 45t29 31t43 18t54 6q56 0 98 -13t64 -26l32 81q-25 16 -78 30t-117 14q-112 0 -176 -52
t-64 -145q0 -45 15 -77t41 -55t61 -40t74 -30q34 -12 64 -24t54 -29t38 -40t14 -56q0 -106 -156 -106v0v0v1z" />
    <glyph glyph-name="T" unicode="T" horiz-adv-x="582" 
d="M564 710h-546v-86h223v-624h99v624h223v86v0v0v1z" />
    <glyph glyph-name="U" unicode="U" horiz-adv-x="708" 
d="M354 -15q70 0 121 22t84 59t49 88t16 110v445h-99v-434q0 -53 -12 -91t-35 -63t-54 -37t-69 -12q-76 0 -123 48t-47 154v434h-99v-445q0 -59 16 -110t49 -88t84 -59t121 -22v0v0v1h-2z" />
    <glyph glyph-name="V" unicode="V" horiz-adv-x="675" 
d="M664 710h-106q-54 -162 -107 -312t-109 -280q-56 131 -109 281t-108 312h-110q38 -113 74 -209t70 -182t67 -164t68 -155h93q35 77 68 155t67 164t69 182t74 209v0v0v1z" />
    <glyph glyph-name="W" unicode="W" horiz-adv-x="955" 
d="M478 481q43 -137 86 -254t88 -228h99q53 157 94 331t78 379h-101q-14 -80 -29 -160t-31 -155t-32 -144t-32 -126q-41 108 -88 236t-87 265h-86q-40 -137 -86 -265t-87 -236q-17 58 -33 127t-32 144t-31 155t-29 160h-104q36 -205 77 -379t95 -331h99q44 111 88 228
t87 254v0v0v1z" />
    <glyph glyph-name="X" unicode="X" horiz-adv-x="650" 
d="M516 0h112q-47 91 -108 185t-131 193l223 331h-114l-173 -264l-175 264h-115l227 -335q-69 -98 -130 -191t-107 -183h110q15 31 37 68t47 77t53 80t54 76q26 -36 54 -76t54 -80t48 -77t37 -68v0v0v1z" />
    <glyph glyph-name="Y" unicode="Y" horiz-adv-x="616" 
d="M259 0h99v287q70 109 132 215t117 208h-111q-40 -84 -88 -171t-98 -167q-51 80 -99 167t-87 171h-117q55 -102 117 -208t133 -216v-285v0v0v1z" />
    <glyph glyph-name="Z" unicode="Z" horiz-adv-x="590" 
d="M541 631v79h-486v-85h365q-28 -32 -61 -74t-68 -90t-71 -100t-69 -103t-62 -100t-51 -90v-67h515v85h-399q26 46 58 97t67 103t72 103t72 97t66 83t55 64v0v0v1z" />
    <glyph glyph-name="bracketleft" unicode="[" horiz-adv-x="340" 
d="M100 802v-991h230v75h-141v842h141v75h-230v0v1v-2z" />
    <glyph glyph-name="backslash" unicode="\" horiz-adv-x="397" 
d="M-23 802l345 -991h97l-347 991h-95v0v1v-1z" />
    <glyph glyph-name="bracketright" unicode="]" horiz-adv-x="340" 
d="M241 -189v991h-230v-75h141v-842h-141v-75h230v0v1v0z" />
    <glyph glyph-name="asciicircum" unicode="^" 
d="M333 710h-84l-199 -348l76 -39l165 289l165 -289l76 39l-199 348v0v0v1v-1z" />
    <glyph glyph-name="underscore" unicode="_" horiz-adv-x="507" 
d="M-2 -109v-81h512v81h-512v0v1v-1z" />
    <glyph glyph-name="grave" unicode="`" horiz-adv-x="389" 
d="M126 795l-61 -60l144 -140l48 43l-131 158v0v0v1v-2z" />
    <glyph glyph-name="a" unicode="a" horiz-adv-x="538" 
d="M264 69q-56 0 -89 20t-33 71q0 28 13 45t33 27t44 13t46 3q33 0 56 -4t33 -9v-159q-17 -4 -43 -6t-60 -2v0v1zM256 546q-50 0 -93 -8t-61 -16l11 -79q17 7 52 14t82 7q37 0 60 -11t36 -29t18 -41t5 -47v-27q-4 1 -14 3t-24 5t-29 5t-29 2q-45 0 -86 -9t-72 -28t-49 -51
t-18 -76q0 -46 15 -79t43 -53t66 -29t83 -9q32 0 64 3t60 6t50 7t34 6v333q0 45 -10 82t-34 64t-63 42t-96 15v0v0v1z" />
    <glyph glyph-name="b" unicode="b" horiz-adv-x="607" 
d="M179 509v286l-95 -16v-763q33 -9 84 -18t118 -9q61 0 110 19t84 55t54 88t19 116q0 61 -16 112t-47 88t-76 57t-102 20q-46 0 -81 -12t-52 -23v0v0zM179 83v337q17 14 50 27t72 13q41 0 70 -15t47 -41t26 -62t8 -77q0 -93 -46 -144t-123 -51q-39 0 -65 4t-40 8v0v1h1z
" />
    <glyph glyph-name="c" unicode="c" horiz-adv-x="480" 
d="M315 -12q20 0 42 3t41 7t34 9t23 10l-13 80q-17 -8 -48 -15t-69 -7q-47 0 -80 14t-54 40t-31 62t-10 79q0 96 42 146t122 50q32 0 60 -6t50 -16l22 81q-33 13 -69 19t-72 6q-58 0 -106 -21t-81 -58t-51 -88t-18 -112t16 -112t49 -88t82 -57t113 -20v0v0v1z" />
    <glyph glyph-name="d" unicode="d" horiz-adv-x="607" 
d="M428 420v-337q-14 -4 -40 -8t-65 -4q-77 0 -123 51t-46 144q0 41 8 77t26 62t47 41t70 15q39 0 72 -13t50 -27zM428 778v-269q-17 11 -52 23t-81 12q-57 0 -102 -20t-76 -57t-47 -88t-16 -112q0 -64 19 -116t54 -88t84 -55t110 -19q67 0 118 9t84 18v779l-95 -16v0v0v1
v-2z" />
    <glyph glyph-name="e" unicode="e" horiz-adv-x="576" 
d="M54 265q0 -60 16 -111t49 -88t84 -58t121 -21q55 0 99 10t61 19l-13 80q-17 -8 -51 -17t-84 -9q-89 0 -131 43t-48 126h365q1 8 1 18v16q0 137 -57 204t-165 67q-46 0 -90 -17t-78 -52t-54 -88t-20 -124v0zM420 317h-264q3 28 13 55t27 47t42 33t58 13q58 0 91 -41
t32 -105v0v0v1z" />
    <glyph glyph-name="f" unicode="f" horiz-adv-x="399" 
d="M292 795q-108 0 -158 -56t-50 -158v-581h95v453h205v80h-205v46q0 61 27 97t94 36q33 0 56 -6t35 -12l17 82q-12 5 -42 11t-72 6v0v0v1z" />
    <glyph glyph-name="g" unicode="g" horiz-adv-x="595" 
d="M418 53v-23q0 -74 -37 -108t-122 -34q-45 0 -86 9t-70 20l-17 -83q33 -11 78 -19t95 -8q129 0 193 55t64 178v475q-34 8 -84 18t-117 10q-60 0 -108 -20t-81 -55t-50 -84t-17 -107q0 -67 18 -115t50 -80t74 -47t90 -15q47 0 82 13t47 21v0zM417 448v-311q-18 -14 -50 -25
t-70 -11q-28 0 -54 10t-46 32t-32 55t-12 79q0 83 41 133t118 50q41 0 65 -4t38 -8v0v0v1z" />
    <glyph glyph-name="h" unicode="h" horiz-adv-x="588" 
d="M84 0h95v442q5 2 17 5t27 6t31 5t31 2q38 0 64 -10t41 -32t22 -57t7 -84v-279h95v299q0 54 -10 99t-35 77t-67 50t-106 18q-30 0 -60 -6t-57 -16v272l-95 -16v-778v0v0v1v2z" />
    <glyph glyph-name="i" unicode="i" horiz-adv-x="263" 
d="M179 0v532h-95v-532h95v0zM131 629q26 0 44 17t18 46t-18 46t-44 17t-44 -17t-18 -46t18 -46t44 -17v0v1v-1z" />
    <glyph glyph-name="j" unicode="j" horiz-adv-x="263" 
d="M-3 -192q89 0 136 50t47 152v522h-95v-523q0 -58 -21 -88t-70 -30q-11 0 -24 2t-23 5l-12 -78q13 -5 32 -8t31 -3v0zM131 629q26 0 44 17t18 46t-18 46t-44 17t-44 -17t-18 -46t18 -46t44 -17v0v1v-1z" />
    <glyph glyph-name="k" unicode="k" horiz-adv-x="538" 
d="M276 293q27 28 57 59l60 62t58 62t52 57h-112q-18 -22 -44 -50t-55 -59t-59 -61l-55 -55v485l-95 -16v-778h95v256q29 -19 61 -48t63 -63t59 -71t50 -73h112q-20 36 -50 77t-63 81t-67 75t-65 59v0v0v1h-2z" />
    <glyph glyph-name="l" unicode="l" horiz-adv-x="283" 
d="M244 -10l13 80q-23 3 -38 8t-24 14t-13 24t-4 39v640l-95 -16v-639q0 -76 37 -112t125 -38v0v0v1z" />
    <glyph glyph-name="m" unicode="m" horiz-adv-x="885" 
d="M84 517v-517h95v450q4 1 16 3t27 4t31 3t30 1q34 0 56 -11t35 -34t18 -57t5 -81v-279h95v299q0 35 -4 67t-12 59q11 10 42 23t79 13q35 0 57 -11t35 -34t18 -57t5 -81v-279h95v299q0 53 -8 98t-30 78t-61 51t-100 18q-32 0 -60 -7t-51 -16t-38 -18t-22 -14q-24 27 -59 41
t-86 14q-71 0 -125 -9t-87 -17v0v0v1h4z" />
    <glyph glyph-name="n" unicode="n" horiz-adv-x="591" 
d="M84 517v-517h95v450q5 1 17 3t27 4t31 3t31 1q38 0 64 -10t41 -32t22 -57t7 -84v-279h95v299q0 54 -10 99t-35 77t-67 50t-106 18q-71 0 -125 -9t-87 -17v0v0v1v0z" />
    <glyph glyph-name="o" unicode="o" horiz-adv-x="608" 
d="M554 266q0 62 -18 114t-51 89t-79 57t-100 20t-100 -20t-79 -57t-51 -89t-18 -114q0 -64 18 -115t51 -88t79 -57t100 -20t100 20t79 57t51 88t18 115v0zM455 266q0 -90 -40 -143t-110 -53t-110 53t-40 143t40 143t110 53t110 -53t40 -143v0v1v-1z" />
    <glyph glyph-name="p" unicode="p" horiz-adv-x="607" 
d="M454 265q0 -41 -8 -76t-26 -61t-47 -41t-70 -15q-39 0 -72 13t-50 27v336q14 4 38 7t67 3q77 0 123 -50t46 -143v0h-1zM553 265q0 64 -19 116t-54 88t-84 55t-110 19q-67 0 -118 -10t-85 -18v-706h95v213q17 -11 52 -23t81 -12q57 0 102 20t76 57t47 88t16 111v0v0v1z
" />
    <glyph glyph-name="q" unicode="q" horiz-adv-x="607" 
d="M154 265q0 93 46 143t123 50q43 0 67 -3t38 -7v-336q-17 -14 -50 -27t-72 -13q-41 0 -70 15t-47 41t-26 61t-8 76v0h-1zM54 265q0 -60 16 -111t47 -88t76 -57t102 -20q46 0 81 12t52 23v-213h95v706q-34 8 -85 18t-118 10q-61 0 -110 -19t-84 -55t-54 -88t-19 -116v0v0v1
z" />
    <glyph glyph-name="r" unicode="r" horiz-adv-x="399" 
d="M281 544q-62 0 -112 -11t-84 -23v-510h95v448q8 2 34 8t53 6q41 0 67 -6t37 -10l16 83q-6 2 -19 5t-28 6t-31 5t-28 2v0v0v1v-4z" />
    <glyph glyph-name="s" unicode="s" horiz-adv-x="460" 
d="M208 69q-59 0 -95 12t-52 18l-17 -82q14 -6 54 -18t111 -12q101 0 156 38t55 112q0 38 -11 64t-32 44t-51 32t-68 28q-29 10 -49 19t-34 20t-21 24t-7 30q0 34 30 50t70 16q46 0 79 -9t48 -17l17 82q-8 3 -23 7t-34 8t-42 7t-46 3q-90 0 -142 -41t-52 -112q0 -36 12 -61
t32 -42t48 -30t59 -25q64 -26 92 -46t28 -55q0 -34 -28 -49t-86 -15v0v0v1z" />
    <glyph glyph-name="t" unicode="t" horiz-adv-x="415" 
d="M173 532v165l-95 -16v-475q0 -53 9 -93t31 -68t57 -42t89 -14q46 0 82 11t50 18l-18 79q-10 -4 -36 -14t-69 -10q-25 0 -43 6t-30 21t-18 41t-6 66v246h202v80h-202v0v0v1z" />
    <glyph glyph-name="u" unicode="u" horiz-adv-x="591" 
d="M508 15v517h-95v-450q-5 -2 -17 -4t-26 -4t-30 -3t-31 -1q-73 0 -104 42t-31 139v279h-95v-299q0 -54 11 -99t37 -78t68 -51t103 -18q71 0 125 9t87 17v0v0v1z" />
    <glyph glyph-name="v" unicode="v" horiz-adv-x="518" 
d="M500 532h-98q-12 -50 -29 -107t-36 -113t-38 -108t-36 -93q-17 41 -36 93t-38 108t-36 113t-29 107h-102q40 -150 94 -287t104 -246h86q50 109 104 246t94 287v0v1z" />
    <glyph glyph-name="w" unicode="w" horiz-adv-x="799" 
d="M519 0h83q47 105 92 240t85 292h-98q-10 -48 -24 -104t-30 -112t-33 -108t-32 -91q-17 48 -34 102t-32 109t-28 108t-22 99h-79q-10 -46 -24 -99t-29 -108t-32 -109t-34 -102q-15 39 -32 91t-33 108t-30 112t-24 104h-102q40 -157 85 -292t92 -240h83q29 74 61 169
t59 197q27 -102 59 -197t61 -169v0v1z" />
    <glyph glyph-name="x" unicode="x" horiz-adv-x="527" 
d="M402 0h104q-36 71 -88 145t-101 141l172 247h-101l-128 -186l-127 186h-108l176 -253q-49 -66 -99 -138t-86 -142h98q11 22 27 50t35 57t39 58t39 55q19 -26 39 -55t39 -58t35 -57t27 -51v0v0v1h8z" />
    <glyph glyph-name="y" unicode="y" horiz-adv-x="513" 
d="M22 -99l-17 -77q4 -2 14 -5t22 -6t24 -5t23 -2q42 0 75 10t60 32t49 55t42 79q52 121 97 260t82 290h-98q-26 -112 -55 -217t-68 -213q-25 52 -48 108t-42 112t-35 109t-27 99h-102q37 -141 93 -279t120 -261q-26 -56 -58 -81t-88 -25q-17 0 -35 5t-29 10v0v0v1z" />
    <glyph glyph-name="z" unicode="z" horiz-adv-x="486" 
d="M437 461v72h-384v-80h263q-28 -33 -65 -81t-76 -102t-75 -108t-61 -99v-64h407v80h-293q31 52 71 109t80 109t75 95t57 67v0v0v1z" />
    <glyph glyph-name="braceleft" unicode="{" horiz-adv-x="345" 
d="M43 343v-74q25 0 42 -9t29 -23t18 -32t6 -36v-184q0 -42 9 -75t32 -56t60 -34t92 -11h4v75q-58 0 -83 21t-25 80v158q0 68 -18 105t-51 57q33 20 51 57t18 105v158q0 59 25 80t83 21v75h-4q-55 0 -92 -12t-60 -34t-32 -55t-9 -75v-184q0 -18 -6 -36t-18 -32t-29 -23
t-42 -9v0v0v1v1z" />
    <glyph glyph-name="bar" unicode="|" horiz-adv-x="862" 
d="M430 -62l34 33l16 16t42 41t58 56t63 62l58 58l44 44q34 34 56 78t29 91q8 55 -6 103t-48 83q-34 33 -76 51t-88 18q-32 1 -58 -7t-48 -22t-41 -32t-37 -38q-19 22 -38 40t-41 31t-47 21t-57 7q-46 0 -88 -18t-76 -51q-35 -35 -48 -83t-5 -103q7 -47 29 -91t56 -78
l44 -44l58 -58t63 -62t58 -56t42 -41t17 -16l33 -33v0h2zM306 562q38 -38 67 -69t56 -64q30 32 59 63t67 69q10 10 28 14t41 1t46 -13t42 -29q19 -20 25 -49t0 -60t-21 -60t-37 -51q-19 -19 -52 -51t-69 -67t-70 -69t-58 -57q-24 23 -58 57t-70 69t-69 67t-52 51
q-19 24 -35 53t-23 59t-2 58t29 52q18 18 41 28t45 13t40 -2t28 -15v0v0v1z" />
    <glyph glyph-name="braceright" unicode="}" horiz-adv-x="345" 
d="M302 269v74q-25 0 -42 9t-29 23t-18 32t-6 36v184q0 42 -9 75t-32 55t-60 34t-92 12h-4v-75q58 0 83 -21t25 -80v-158q0 -68 18 -105t51 -57q-33 -20 -51 -57t-18 -105v-158q0 -59 -25 -80t-83 -21v-75h4q55 0 92 11t60 34t32 56t9 75v184q0 18 6 36t18 32t29 23t42 9v0
v0v1v-3z" />
    <glyph glyph-name="asciitilde" unicode="~" 
d="M535 366l-66 18q-4 -13 -9 -27t-13 -26t-19 -20t-27 -8q-29 0 -55 16t-54 32q-24 14 -50 26t-57 12q-36 0 -61 -15t-41 -37t-25 -47t-13 -44l66 -18q4 13 9 27t13 26t19 20t27 8q29 0 55 -16t54 -32q24 -14 50 -26t57 -12q36 0 61 15t41 37t25 47t13 45v0v0v1v-2z" />
    <glyph glyph-name="uni00A0" unicode="&#xa0;" horiz-adv-x="240" 
d="M0 0v1v-1z" />
    <glyph glyph-name="exclamdown" unicode="&#xa1;" horiz-adv-x="286" 
d="M92 2v-192h102v192q0 86 -6 156t-15 140h-59q-9 -70 -15 -140t-6 -156h-1zM75 464q0 -28 18 -48t50 -20t50 20t18 48t-18 48t-50 20t-50 -20t-18 -48v0v1v-1z" />
    <glyph glyph-name="cent" unicode="&#xa2;" 
d="M90 298q0 -50 13 -94t38 -78t62 -57t86 -32v-147h85v142q37 2 72 10t49 16l-13 78q-17 -7 -48 -14t-69 -7q-47 0 -80 13t-54 38t-31 59t-10 75q0 92 42 140t122 48q32 0 60 -6t50 -15l22 79q-53 20 -112 23v142h-85v-147q-46 -9 -83 -33t-62 -59t-39 -79t-14 -94v0v0v1z
" />
    <glyph glyph-name="sterling" unicode="&#xa3;" 
d="M254 382v87q0 49 9 82t25 52t39 27t51 8q61 0 115 -26l24 82q-29 11 -60 19t-76 8q-49 0 -90 -11t-70 -40t-45 -79t-16 -126v-85h-95v-77h95v-15q0 -73 -9 -145t-20 -145h403v82h-296q8 51 12 107t4 107v8h194v77h-194v0v0v1v2z" />
    <glyph glyph-name="currency" unicode="&#xa4;" 
d="M93 355q0 -64 29 -110l-75 -75l59 -59l76 76q24 -14 52 -21t58 -7q58 0 107 29l77 -76l59 59l-76 76q14 23 22 50t8 60q0 32 -8 59t-22 50l76 76l-59 59l-77 -77q-47 30 -107 30t-108 -30l-76 77l-59 -59l75 -76q-29 -46 -29 -108zM412 355q0 -30 -10 -53t-26 -40
t-38 -26t-47 -9t-47 9t-38 26t-26 40t-10 53q0 29 10 53t26 41t38 26t47 9t47 -9t38 -26t26 -41t10 -53v0v1v-1z" />
    <glyph glyph-name="yen" unicode="&#xa5;" horiz-adv-x="1082" 
d="M273 246l-138 -304v-55l416 194l415 -194v55l-138 332l249 305h-359l-166 332l-167 -332h-387l276 -333v0v0v1z" />
    <glyph glyph-name="brokenbar" unicode="&#xa6;" horiz-adv-x="289" 
d="M100 203v-392h89v392h-89v0zM100 802v-392h89v392h-89v0v1v-1z" />
    <glyph glyph-name="section" unicode="&#xa7;" horiz-adv-x="507" 
d="M72 -1l-24 -76q27 -13 72 -24t114 -11q100 0 154 39t54 116q0 38 -18 67t-48 51q15 9 31 24t28 33t20 41t8 49q0 41 -14 70t-39 49t-58 34t-70 26q-29 9 -49 18t-33 20t-19 24t-6 31q0 34 29 51t69 17q53 0 88 -10t60 -19l22 79q-27 8 -72 18t-97 10q-90 0 -140 -41
t-50 -112q0 -35 15 -62t41 -47q-15 -9 -31 -23t-29 -33t-22 -42t-9 -50q0 -41 14 -70t39 -49t58 -34t70 -26q66 -23 94 -43t28 -56q0 -37 -29 -54t-86 -17t-94 9t-68 22v0zM227 418q31 -10 58 -20t47 -23t32 -31t12 -45q0 -32 -18 -58t-48 -45l-10 4l-10 4q-34 11 -63 22
t-50 25t-33 32t-12 45q0 31 18 57t48 45l14 -6t14 -5v0v0v1z" />
    <glyph glyph-name="dieresis" unicode="&#xa8;" horiz-adv-x="389" 
d="M97 631q24 0 42 17t18 44t-18 44t-42 17t-42 -17t-18 -44t18 -44t42 -17v0zM292 631q24 0 42 17t18 44t-18 44t-42 17t-42 -17t-18 -44t18 -44t42 -17v0v1v-1z" />
    <glyph glyph-name="copyright" unicode="&#xa9;" horiz-adv-x="837" 
d="M769 355q0 87 -29 156t-77 117t-112 73t-134 25t-134 -25t-112 -73t-77 -117t-29 -156t29 -156t77 -117t112 -73t134 -25t134 25t112 73t77 117t29 156v0zM694 355q0 -68 -20 -124t-56 -96t-87 -62t-111 -22t-111 22t-87 62t-56 96t-20 124t20 124t56 96t87 62t111 22
t111 -22t87 -62t56 -96t20 -124v0zM431 143q25 0 47 4t39 9t29 11t17 9l-19 61q-14 -7 -40 -16t-66 -9q-61 0 -93 40t-32 104q0 70 35 106t87 36q36 0 63 -10t39 -17l24 61q-4 3 -15 9t-27 12t-38 10t-49 4q-40 0 -76 -14t-63 -41t-43 -66t-16 -89q0 -51 14 -90t40 -66
t62 -41t80 -14v0v0v1z" />
    <glyph glyph-name="ordfeminine" unicode="&#xaa;" horiz-adv-x="1090" 
d="M826 -113q51 0 83 32t32 84v19v31v36t1 34q17 6 36 17t36 28q20 22 30 55t10 84v268q0 64 -23 114t-75 99q-22 22 -49 38t-55 27t-55 17t-50 6h-407q-23 0 -50 -6t-55 -17t-55 -27t-49 -38q-52 -49 -75 -99t-23 -114v-268q0 -51 10 -84t30 -55q17 -18 36 -29t36 -17v-120
q0 -22 8 -42t23 -37t37 -27t49 -10h557v0zM718 -15v194q0 20 -14 34t-33 14q-22 0 -36 -14t-14 -34v-194h-144v194q0 20 -14 34t-34 14t-34 -14t-14 -34v-194h-110q-11 0 -14 8t-3 11v158q0 19 -13 33t-31 16q-9 1 -19 5q-8 3 -19 9t-20 16q-3 4 -6 13q-2 8 -4 21t-2 36v268
q0 44 16 76t52 68q15 14 34 25t38 18t37 11t30 4h407q12 0 29 -4t36 -11t38 -18t35 -25q36 -36 52 -68t16 -76v-268q0 -22 -2 -35t-4 -21q-3 -9 -6 -13q-14 -14 -34 -21t-28 -8q-17 -3 -29 -16t-12 -32v-158q0 -14 -6 -17t-13 -3h-109v0zM368 544q-35 0 -55 -3t-31 -14
t-15 -31t-4 -54t4 -54t15 -30t32 -13t55 -3t53 4t29 15t13 32t3 55q0 32 -3 51t-13 29t-29 13t-51 3v0h-3zM735 544q35 0 56 -3t32 -14t15 -31t4 -54t-4 -54t-15 -30t-33 -13t-56 -3q-33 0 -52 4t-29 15t-13 32t-3 55q0 32 3 51t13 29t29 13t51 3v0v0v1z" />
    <glyph glyph-name="guillemotleft" unicode="&#xab;" horiz-adv-x="515" 
d="M33 291l160 -226l67 36l-114 190l114 190l-67 36l-160 -226v0zM246 291l160 -226l67 36l-114 190l114 190l-67 36l-160 -226v0v1v-1z" />
    <glyph glyph-name="logicalnot" unicode="&#xac;" horiz-adv-x="2355" 
d="M2055 281q0 -28 19 -47t47 -19t47 19t19 47t-19 47t-47 19t-47 -19t-19 -47v0zM2179 154q0 -28 19 -47t47 -19t47 19t19 47t-19 47t-47 19t-47 -19t-19 -47v0zM2181 400q0 -28 19 -47t47 -19t47 19t19 47t-19 47t-47 19t-47 -19t-19 -47v0zM976 210q20 0 34 13t14 33v106
q0 20 -14 34t-34 14t-34 -14t-14 -34v-106q0 -20 14 -33t34 -13v0zM1287 -230q92 6 180 33t169 70t156 100t142 126q6 6 20 6t22 -7q15 -15 39 -38t51 -48l54 -50t49 -45t35 -33t14 -13q14 -13 34 -12t34 15q14 15 13 34t-15 33q-1 0 -14 13t-35 33t-49 45l-54 50t-51 48
t-39 37q-15 17 -39 25t-50 8t-50 -9t-40 -25q-140 -139 -287 -215t-297 -85q-61 -4 -121 -4t-113 9t-97 30t-75 60q68 -5 135 8t125 45q36 18 68 42t65 57q13 14 13 33t-13 34q-14 14 -34 14t-34 -14q-24 -24 -50 -44t-53 -34q-43 -24 -89 -35t-96 -11q-43 0 -81 12t-69 28
t-54 33t-35 28q-2 88 31 180t110 170q53 55 138 100t185 69q8 23 17 42t20 32t28 20t42 4q40 -3 69 -14t48 -25t30 -28t16 -22q77 -17 144 -54t122 -81q62 -50 104 -95t81 -88q36 -38 90 -38q52 0 94 34q15 13 39 35t51 48l54 52t50 48t37 36l16 16q14 14 14 34t-14 34
q-14 13 -33 13t-33 -14l-14 -14l-36 -36t-49 -48l-54 -52t-51 -49t-38 -36q-12 -9 -26 -9t-22 8q-40 42 -85 90t-112 102q-66 53 -134 89t-138 56q-10 11 -29 28t-47 33t-64 27t-79 11q-64 3 -110 -28t-69 -85q-96 -26 -175 -72t-147 -114q-45 -45 -78 -98t-53 -111
t-29 -120t-5 -124l19 -19t31 -27t47 -33t68 -37q16 -49 45 -86t68 -64q44 -31 98 -50t111 -28t115 -9t110 6v0zM249 448q53 0 91 8t66 33q27 27 36 67t9 92q0 18 -2 40t-8 44t-17 42t-30 35q-32 27 -74 34t-84 7t-82 -7t-70 -36q-16 -15 -26 -33t-15 -38t-7 -42t-2 -44
q0 -19 2 -41t8 -43t17 -40t29 -34q31 -28 73 -36t86 -8v0v0zM234 753q76 0 96 -16l6 -6t8 -14t7 -27t3 -43q0 -75 -14 -87q-5 -5 -15 -8t-23 -5t-26 -2h-25q-39 0 -63 4t-35 14q-20 18 -20 85q0 72 19 88q16 15 85 15v0zM192 -5q29 0 59 4t54 24q24 24 30 54t6 63
q0 13 -1 28t-6 31t-14 31t-23 27q-24 19 -55 25t-59 6q-30 0 -60 -6t-53 -26q-24 -24 -30 -56t-6 -61q0 -28 7 -61t35 -58q24 -19 55 -24t61 -5v0v4zM183 192q27 0 38 -3t13 -6q3 -2 6 -13t3 -31q0 -24 -2 -33t-4 -11t-11 -4t-34 -2q-30 0 -41 3t-13 5q-2 3 -3 8q-3 9 -3 34
q0 28 3 37q1 5 3 8q0 2 9 4t37 2v0zM601 -79q0 29 -19 48t-48 19q-27 0 -47 -19t-20 -48q0 -28 20 -48t47 -20q29 0 48 20t19 48v0v1v-1z" />
    <glyph glyph-name="uni00AD" unicode="&#xad;" horiz-adv-x="310" 
d="M29 351v-89h253v89h-253v0v1v-1z" />
    <glyph glyph-name="registered" unicode="&#xae;" horiz-adv-x="837" 
d="M769 355q0 87 -29 156t-77 117t-112 73t-134 25t-134 -25t-112 -73t-77 -117t-29 -156t29 -156t77 -117t112 -73t134 -25t134 25t112 73t77 117t29 156v0zM694 355q0 -68 -20 -124t-56 -96t-87 -62t-111 -22t-111 22t-87 62t-56 96t-20 124t20 124t56 96t87 62t111 22
t111 -22t87 -62t56 -96t20 -124v0zM520 152h79q-11 25 -25 50t-28 48t-27 41t-23 30q37 15 57 43t20 66q0 67 -46 100t-134 33q-26 0 -57 -3t-59 -9v-397h73v154h69q22 -25 51 -66t53 -87v0zM348 365v131q11 1 23 1h23q41 0 70 -15t29 -53q0 -40 -31 -53t-77 -13h-39v0v0v1z
" />
    <glyph glyph-name="macron" unicode="&#xaf;" horiz-adv-x="389" 
d="M49 728v-74h291v74h-291v0v1v-1z" />
    <glyph glyph-name="degree" unicode="&#xb0;" horiz-adv-x="344" 
d="M315 652q0 33 -12 60t-31 45t-45 28t-55 10t-55 -10t-45 -28t-31 -45t-12 -60t12 -60t31 -45t45 -28t55 -10t55 10t45 28t31 45t12 60v0zM247 652q0 -36 -22 -57t-53 -21t-53 21t-22 57t22 57t53 21t53 -21t22 -57v0v1v-1z" />
    <glyph glyph-name="plusminus" unicode="&#xb1;" horiz-adv-x="518" 
d="M41 792v-801h440l-2 800q0 31 -3 56q-3 20 -9 37t-19 17h-40q-14 0 -21 -17t-10 -37q-4 -25 -4 -55h-331v0h-1zM159 431v236h215v-236h-215v0v1v-1z" />
    <glyph glyph-name="uni00B2" unicode="&#xb2;" horiz-adv-x="371" 
d="M305 612q0 54 -34 84t-105 30q-46 0 -81 -18t-52 -36l37 -50q5 4 15 11t22 14t27 12t32 5q30 0 47 -12t17 -39q0 -25 -22 -50t-57 -55q-22 -18 -41 -36t-34 -40t-23 -48t-5 -60h272v64h-190q3 13 20 30t34 31q25 22 47 42t38 40t26 40t10 42v0v0v1v-2z" />
    <glyph glyph-name="uni00B3" unicode="&#xb3;" horiz-adv-x="371" 
d="M150 378q-27 0 -52 7t-48 15l-15 -61q18 -9 51 -16t65 -7q45 0 77 9t52 26t29 39t9 49q0 36 -21 62t-57 37q56 32 56 82q0 47 -31 77t-106 30q-35 0 -69 -12t-50 -23l26 -56q17 8 41 18t52 10q30 0 49 -11t19 -37q0 -15 -8 -26t-21 -17t-29 -9t-30 -3h-26v-58h19
q22 0 42 -4t36 -12t25 -20t9 -29q0 -27 -20 -44t-74 -17v0v0v1v0z" />
    <glyph glyph-name="acute" unicode="&#xb4;" horiz-adv-x="389" 
d="M325 734l-61 60l-131 -158l48 -43l144 140v0v0v1v0z" />
    <glyph glyph-name="mu" unicode="&#xb5;" horiz-adv-x="1136" 
d="M744 -228q12 0 30 2t38 8t42 16t40 26q16 14 30 30t24 29t16 22t7 9q9 17 3 36t-23 29q-17 11 -36 5t-28 -22l-5 -7t-13 -17t-18 -22t-22 -23q-30 -28 -86 -28h-548q-53 0 -86 28q-12 11 -19 19t-13 16t-11 16t-13 18q-12 15 -31 21t-36 -5q-17 -10 -22 -29t3 -36l6 -9
t16 -22t24 -29t31 -30q19 -16 41 -26t42 -16t38 -8t31 -2h548v1zM676 2q29 0 55 9t48 25t38 38t25 49q55 1 93 12t71 44q20 19 30 43t15 51t5 56v61q0 20 -14 35t-34 15h-161v41q0 19 -14 34t-34 15h-654q-20 0 -34 -15t-14 -34v-305q0 -36 13 -68t36 -56t54 -37t67 -13h410
v0h-1zM192 432h558v-257q0 -32 -22 -54t-53 -22h-410q-31 0 -53 22t-22 54v257v0h2zM847 341h111q-2 -36 -4 -59t-16 -37t-34 -19t-56 -7v122v0h-1zM359 600q20 0 35 15t15 37q0 19 13 32t32 13q31 0 58 12t47 32t32 47t12 58q0 22 -15 37t-37 15q-23 0 -37 -15t-14 -37
q0 -17 -13 -30t-31 -13q-31 0 -58 -12t-47 -32t-32 -47t-12 -58q0 -22 15 -37t37 -15v0v-2zM608 600q23 0 37 15t14 37q0 19 14 32t31 13q31 0 58 12t47 32t32 47t12 58q0 22 -15 37t-35 15q-22 0 -37 -15t-15 -37q0 -17 -13 -30t-32 -13q-31 0 -58 -12t-47 -32t-32 -47
t-12 -58q0 -22 15 -37t37 -15v0v0v1z" />
    <glyph glyph-name="paragraph" unicode="&#xb6;" horiz-adv-x="1207" 
d="M597 -144q16 0 34 1t36 6t35 16t32 31q24 32 39 90t24 154q44 33 69 86q14 32 21 67t7 77q0 68 -14 117t-44 85q-38 45 -97 67t-143 22q-164 0 -238 -89q-30 -36 -45 -85t-15 -117q0 -158 97 -232q8 -52 15 -91t15 -67t16 -47t17 -33q13 -22 29 -33t34 -16t37 -6t37 -1v0
zM503 102q22 -4 46 -7t50 -3q51 0 99 12q-8 -54 -18 -88t-21 -49q-4 -5 -8 -8t-10 -5t-16 -2h-25h-28t-15 2t-8 5t-6 7q-10 16 -19 52t-17 84v0h-4zM468 219q0 1 -2 1q-3 3 -5 4q-64 47 -64 159q0 49 9 83t29 56q44 53 163 53q62 0 101 -13t62 -38t31 -61t8 -80
q0 -111 -64 -158q-2 -1 -7 -4l-1 -1q-30 -19 -65 -25t-64 -6q-80 0 -129 30v0h-2zM180 242q0 29 -19 49t-48 20t-49 -20t-20 -49t20 -48t49 -19t48 19t19 48v0zM180 473q0 28 -19 48t-48 20t-49 -20t-20 -48q0 -30 20 -50t49 -20t48 20t19 50v0zM297 702q0 30 -20 49t-48 19
q-29 0 -49 -19t-20 -49q0 -28 20 -48t49 -20q28 0 48 20t20 48v0zM531 822q0 29 -20 49t-49 20t-48 -20t-19 -49t19 -49t48 -20t49 20t20 49v0zM796 824q0 29 -20 49t-50 20q-28 0 -48 -20t-20 -49t20 -49t48 -20q30 0 50 20t20 49v0zM1040 702q0 30 -20 49t-49 19t-49 -19
t-20 -49q0 -28 20 -48t49 -20t49 20t20 48v0zM1148 473q0 28 -20 48t-49 20q-28 0 -48 -20t-20 -48q0 -30 20 -50t48 -20q29 0 49 20t20 50v0zM1148 248q0 28 -20 48t-49 20q-28 0 -48 -20t-20 -48q0 -30 20 -49t48 -19q29 0 49 19t20 49v0v1v-1z" />
    <glyph glyph-name="periodcentered" unicode="&#xb7;" horiz-adv-x="256" 
d="M197 301q0 28 -18 48t-50 20t-50 -20t-18 -48t18 -48t50 -20t50 20t18 48v0v1v-1z" />
    <glyph glyph-name="cedilla" unicode="&#xb8;" horiz-adv-x="389" 
d="M206 -38q5 12 14 29t15 28h-66q-3 -5 -9 -16t-12 -24t-12 -27t-9 -24l7 -3q20 -8 31 -16t11 -19q0 -24 -37 -24q-17 0 -31 3t-26 7l-11 -58q13 -5 35 -9t49 -4q30 0 50 7t32 18t17 24t5 24q0 33 -13 50t-43 31v0v0v1z" />
    <glyph glyph-name="uni00B9" unicode="&#xb9;" horiz-adv-x="371" 
d="M53 636l19 -55q20 6 49 17t52 25v-301h72v395h-50q-28 -27 -66 -48t-77 -34v0v0v1h1z" />
    <glyph glyph-name="ordmasculine" unicode="&#xba;" horiz-adv-x="659" 
d="M92 -83q-5 -10 -2 -18t9 -11t14 -1t16 10l522 540q9 11 3 21t-20 10h-240l266 343q10 11 5 25t-25 14h-417q-15 0 -27 -9t-17 -24l-136 -429q-7 -23 1 -34t23 -11h233l-207 -426v0v0v1z" />
    <glyph glyph-name="guillemotright" unicode="&#xbb;" horiz-adv-x="802" 
d="M711 37q-16 5 -41 11t-58 14l-26 7q-40 10 -62 29t-32 36q-8 15 -11 27t-4 17v3v2q24 -23 53 -36t63 -13t64 13t53 36t36 53t13 64t-13 64t-36 52t-53 35t-64 13q-24 0 -49 -8q9 17 15 37t6 42q0 34 -13 64t-36 53t-53 36t-64 13t-64 -13t-53 -36t-36 -53t-13 -64
q0 -22 6 -42t15 -37q-23 8 -49 8q-34 0 -64 -13t-53 -35t-36 -52t-13 -64t13 -64t36 -53t53 -36t64 -13q36 0 66 14t53 38v-5v-1q-1 -2 -4 -15t-12 -30t-31 -36t-62 -30q-42 -11 -74 -19l-52 -13q-22 -5 -22 -28v-11q0 -12 8 -20t21 -8h603q12 0 20 8t8 20v11q0 20 -20 27v0
v0v1h4z" />
    <glyph glyph-name="onequarter" unicode="&#xbc;" horiz-adv-x="899" 
d="M53 636l19 -55q20 6 49 17t52 25v-301h72v395h-50q-28 -27 -66 -48t-77 -34v0zM692 710h-89l-400 -710h89l400 710v0zM821 399h-66q-30 -26 -60 -59t-57 -68t-50 -68t-37 -59v-47h198v-95h70v95h51v60h-51v240zM752 314v-155h-121q24 39 57 80t65 74v0v0v1h-1z" />
    <glyph glyph-name="onehalf" unicode="&#xbd;" horiz-adv-x="899" 
d="M53 636l19 -55q20 6 49 17t52 25v-301h72v395h-50q-28 -27 -66 -48t-77 -34v0zM671 710h-89l-400 -710h89l400 710v0zM832 294q0 54 -34 84t-105 30q-46 0 -81 -18t-52 -36l37 -50q5 4 15 11t22 14t27 12t32 5q30 0 47 -12t17 -39q0 -25 -22 -50t-57 -55q-22 -18 -41 -36
t-34 -40t-23 -48t-5 -60h272v64h-190q3 13 20 30t34 31q25 22 47 42t38 40t26 40t10 42v0v0v1v-2z" />
    <glyph glyph-name="threequarters" unicode="&#xbe;" horiz-adv-x="899" 
d="M150 378q-27 0 -52 7t-48 15l-15 -61q18 -9 51 -16t65 -7q45 0 77 9t52 26t29 39t9 49q0 36 -21 62t-57 37q56 32 56 82q0 47 -31 77t-106 30q-35 0 -69 -12t-50 -23l26 -56q17 8 41 18t52 10q30 0 49 -11t19 -37q0 -15 -8 -26t-21 -17t-29 -9t-30 -3h-26v-58h19
q22 0 42 -4t36 -12t25 -20t9 -29q0 -27 -20 -44t-74 -17v0v1zM708 710h-89l-400 -710h89l400 710v0zM821 399h-66q-30 -26 -60 -59t-57 -68t-50 -68t-37 -59v-47h198v-95h70v95h51v60h-51v240zM752 314v-155h-121q24 39 57 80t65 74v0v0v1h-1z" />
    <glyph glyph-name="questiondown" unicode="&#xbf;" horiz-adv-x="417" 
d="M131 -24q0 25 12 47t29 42t37 40t37 43t29 50t12 60q0 19 -4 39h-80q1 -5 1 -10v-10q0 -34 -13 -61t-32 -51t-41 -46t-41 -46t-32 -51t-13 -61q0 -28 10 -56t33 -51t60 -37t92 -14q49 0 93 11t79 29l-27 74q-64 -35 -132 -35q-50 0 -78 25t-28 64v0zM169 464
q0 -28 18 -48t50 -20t50 20t18 48t-18 48t-50 20t-50 -20t-18 -48v0v1v-1z" />
    <glyph glyph-name="Agrave" unicode="&#xc0;" horiz-adv-x="683" 
d="M564 0h109q-41 113 -77 209t-70 182t-68 164t-71 155h-91q-37 -77 -71 -155t-68 -164t-70 -182t-77 -209h103l64 181h322q16 -46 31 -91t32 -91v0zM471 263h-264q32 89 64 172t68 160q35 -77 67 -160t65 -172v0v0zM280 954l-61 -60l144 -140l48 43l-131 158v0v0v1v-2z
" />
    <glyph glyph-name="Aacute" unicode="&#xc1;" horiz-adv-x="683" 
d="M564 0h109q-41 113 -77 209t-70 182t-68 164t-71 155h-91q-37 -77 -71 -155t-68 -164t-70 -182t-77 -209h103l64 181h322q16 -46 31 -91t32 -91v0zM471 263h-264q32 89 64 172t68 160q35 -77 67 -160t65 -172v0v0zM470 894l-61 60l-131 -158l48 -43l144 140v0v0v1v0z" />
    <glyph glyph-name="Acircumflex" unicode="&#xc2;" horiz-adv-x="683" 
d="M564 0h109q-41 113 -77 209t-70 182t-68 164t-71 155h-91q-37 -77 -71 -155t-68 -164t-70 -182t-77 -209h103l64 181h322q16 -46 31 -91t32 -91v0zM471 263h-264q32 89 64 172t68 160q35 -77 67 -160t65 -172v0v0zM341 947l-139 -146l40 -45l99 90l99 -90l40 45l-139 146
v0v0v1v-1z" />
    <glyph glyph-name="Atilde" unicode="&#xc3;" horiz-adv-x="683" 
d="M564 0h109q-41 113 -77 209t-70 182t-68 164t-71 155h-91q-37 -77 -71 -155t-68 -164t-70 -182t-77 -209h103l64 181h322q16 -46 31 -91t32 -91v0zM471 263h-264q32 89 64 172t68 160q35 -77 67 -160t65 -172v0v0zM510 888l-49 25q-8 -16 -23 -30t-32 -14q-11 0 -23 4
t-29 12q-16 8 -34 15t-38 7q-22 0 -40 -10t-31 -24t-22 -30t-13 -28l49 -25q8 16 23 30t32 14q11 0 23 -4t29 -12q16 -8 34 -15t38 -7q22 0 40 10t31 24t22 30t14 28v0v1z" />
    <glyph glyph-name="Adieresis" unicode="&#xc4;" horiz-adv-x="683" 
d="M564 0h109q-41 113 -77 209t-70 182t-68 164t-71 155h-91q-37 -77 -71 -155t-68 -164t-70 -182t-77 -209h103l64 181h322q16 -46 31 -91t32 -91v0zM471 263h-264q32 89 64 172t68 160q35 -77 67 -160t65 -172v0v0zM244 791q24 0 42 17t18 44t-18 44t-42 17t-42 -17
t-18 -44t18 -44t42 -17v0zM438 791q24 0 42 17t18 44t-18 44t-42 17t-42 -17t-18 -44t18 -44t42 -17v0v1v-1z" />
    <glyph glyph-name="Aring" unicode="&#xc5;" horiz-adv-x="683" 
d="M178 182h322q16 -46 31 -91t32 -91h109q-39 105 -73 196t-66 172t-64 155t-66 147q18 14 29 35t11 49q0 25 -9 44t-23 33t-33 21t-41 7t-41 -7t-33 -21t-23 -33t-9 -44q0 -29 11 -51t30 -36q-34 -73 -65 -147t-63 -155t-66 -172t-72 -195h103l64 182v0zM471 263h-264
q32 90 64 173t68 160q35 -77 67 -160t65 -172v0v-1zM394 755q0 -27 -16 -42t-39 -15t-39 15t-16 42t16 42t39 15t39 -15t16 -42v0v1v-1z" />
    <glyph glyph-name="AE" unicode="&#xc6;" horiz-adv-x="961" 
d="M896 627v83h-457q-51 -73 -103 -151t-105 -165t-109 -185t-114 -209h106q23 46 47 92t49 91h280v-182h432v83h-334v249h271v81h-271v214h308v0v-1zM489 632v-369h-233q62 109 120 202t112 167v0v0v1z" />
    <glyph glyph-name="Ccedilla" unicode="&#xc7;" horiz-adv-x="638" 
d="M340 -11q-7 -14 -14 -30t-11 -28l7 -3q20 -8 31 -16t11 -19q0 -24 -37 -24q-17 0 -31 3t-26 7l-11 -58q13 -5 35 -9t49 -4q30 0 50 7t32 18t17 24t5 24q0 33 -13 50t-43 31q2 5 5 11l6 12q84 2 139 18t69 27l-26 82q-23 -11 -68 -25t-114 -14q-59 0 -104 20t-75 57
t-45 89t-15 116q0 66 17 119t49 90t77 56t101 19q27 0 53 -5t48 -12t39 -14t26 -13l29 82q-6 4 -22 12t-42 16t-61 14t-79 6q-70 0 -131 -25t-107 -72t-73 -116t-27 -158q0 -81 20 -145t56 -111t87 -75t115 -36v0v0v1z" />
    <glyph glyph-name="Egrave" unicode="&#xc8;" horiz-adv-x="588" 
d="M90 0h459v85h-359v246h297v83h-297v211h334v85h-433v-710h-1zM268 954l-61 -60l144 -140l48 43l-131 158v0v0v1v-2z" />
    <glyph glyph-name="Eacute" unicode="&#xc9;" horiz-adv-x="588" 
d="M90 0h459v85h-359v246h297v83h-297v211h334v85h-433v-710h-1zM454 894l-61 60l-131 -158l48 -43l144 140v0v0v1v0z" />
    <glyph glyph-name="Ecircumflex" unicode="&#xca;" horiz-adv-x="588" 
d="M90 0h459v85h-359v246h297v83h-297v211h334v85h-433v-710h-1zM306 947l-139 -146l40 -45l99 90l99 -90l40 45l-139 146v0v0v1v-1z" />
    <glyph glyph-name="Edieresis" unicode="&#xcb;" horiz-adv-x="588" 
d="M90 0h459v85h-359v246h297v83h-297v211h334v85h-433v-710h-1zM209 791q24 0 42 17t18 44t-18 44t-42 17t-42 -17t-18 -44t18 -44t42 -17v0zM403 791q24 0 42 17t18 44t-18 44t-42 17t-42 -17t-18 -44t18 -44t42 -17v0v1v-1z" />
    <glyph glyph-name="Igrave" unicode="&#xcc;" horiz-adv-x="279" 
d="M90 710v-710h99v710h-99v0zM80 954l-61 -60l144 -140l48 43l-131 158v0v0v1v-2z" />
    <glyph glyph-name="Iacute" unicode="&#xcd;" horiz-adv-x="279" 
d="M90 710v-710h99v710h-99v0zM265 894l-61 60l-131 -158l48 -43l144 140v0v0v1v0z" />
    <glyph glyph-name="Icircumflex" unicode="&#xce;" horiz-adv-x="279" 
d="M90 710v-710h99v710h-99v0zM141 947l-139 -146l40 -45l99 90l99 -90l40 45l-139 146v0v0v1v-1z" />
    <glyph glyph-name="Idieresis" unicode="&#xcf;" horiz-adv-x="279" 
d="M90 710v-710h99v710h-99v0zM44 791q24 0 42 17t18 44t-18 44t-42 17t-42 -17t-18 -44t18 -44t42 -17v0zM239 791q24 0 42 17t18 44t-18 44t-42 17t-42 -17t-18 -44t18 -44t42 -17v0v1v-1z" />
    <glyph glyph-name="Eth" unicode="&#xd0;" horiz-adv-x="747" 
d="M686 355q0 92 -29 160t-81 113t-125 67t-160 22q-43 0 -95 -4t-94 -14v-291h-82v-77h82v-320q42 -10 94 -14t95 -4q87 0 160 22t125 67t81 113t29 160v0v0zM300 81q-42 0 -65 1t-32 2v248h133v77h-133v218q9 1 32 2t65 1q141 0 211 -72t70 -202t-70 -202t-211 -72v0v0v1
v-2z" />
    <glyph glyph-name="Ntilde" unicode="&#xd1;" horiz-adv-x="749" 
d="M576 0h83v710h-97v-525q-33 54 -81 124t-102 142t-109 140t-103 119h-79v-710h97v554q29 -33 63 -76t70 -92t72 -101t70 -103t63 -98t52 -85v0zM544 888l-49 25q-8 -16 -23 -30t-32 -14q-11 0 -23 4t-29 12q-16 8 -34 15t-38 7q-22 0 -40 -10t-31 -24t-22 -30t-13 -28
l49 -25q8 16 23 30t32 14q11 0 23 -4t29 -12q16 -8 34 -15t38 -7q22 0 40 10t31 24t22 30t14 28v0v1z" />
    <glyph glyph-name="Ograve" unicode="&#xd2;" horiz-adv-x="800" 
d="M61 355q0 -91 27 -161t74 -117t109 -71t132 -24q69 0 130 24t107 71t73 117t27 161t-27 161t-73 117t-107 71t-130 24q-70 0 -132 -24t-109 -71t-74 -117t-27 -161v0zM166 355q0 64 16 117t46 90t74 57t98 20t97 -20t73 -57t46 -90t16 -117t-16 -117t-46 -90t-73 -57
t-97 -20t-98 20t-74 57t-46 90t-16 117v0zM339 954l-61 -60l144 -140l48 43l-131 158v0v0v1v-2z" />
    <glyph glyph-name="Oacute" unicode="&#xd3;" horiz-adv-x="800" 
d="M61 355q0 -91 27 -161t74 -117t109 -71t132 -24q69 0 130 24t107 71t73 117t27 161t-27 161t-73 117t-107 71t-130 24q-70 0 -132 -24t-109 -71t-74 -117t-27 -161v0zM166 355q0 64 16 117t46 90t74 57t98 20t97 -20t73 -57t46 -90t16 -117t-16 -117t-46 -90t-73 -57
t-97 -20t-98 20t-74 57t-46 90t-16 117v0zM524 894l-61 60l-131 -158l48 -43l144 140v0v0v1v0z" />
    <glyph glyph-name="Ocircumflex" unicode="&#xd4;" horiz-adv-x="800" 
d="M61 355q0 -91 27 -161t74 -117t109 -71t132 -24q69 0 130 24t107 71t73 117t27 161t-27 161t-73 117t-107 71t-130 24q-70 0 -132 -24t-109 -71t-74 -117t-27 -161v0zM166 355q0 64 16 117t46 90t74 57t98 20t97 -20t73 -57t46 -90t16 -117t-16 -117t-46 -90t-73 -57
t-97 -20t-98 20t-74 57t-46 90t-16 117v0zM400 947l-139 -146l40 -45l99 90l99 -90l40 45l-139 146v0v0v1v-1z" />
    <glyph glyph-name="Otilde" unicode="&#xd5;" horiz-adv-x="800" 
d="M510 888l-49 25q-8 -16 -23 -30t-32 -14q-11 0 -23 4t-29 12q-16 8 -34 15t-38 7q-22 0 -40 -10t-31 -24t-22 -30t-13 -28l49 -25q8 16 23 30t32 14q11 0 23 -4t29 -12q16 -8 34 -15t38 -7q22 0 40 10t31 24t22 30t14 28h-1zM61 355q0 -91 27 -161t74 -117t109 -71
t132 -24q69 0 130 24t107 71t73 117t27 161t-27 161t-73 117t-107 71t-130 24q-70 0 -132 -24t-109 -71t-74 -117t-27 -161v0zM166 355q0 64 16 117t46 90t74 57t98 20t97 -20t73 -57t46 -90t16 -117t-16 -117t-46 -90t-73 -57t-97 -20t-98 20t-74 57t-46 90t-16 117v0v1v-1
z" />
    <glyph glyph-name="Odieresis" unicode="&#xd6;" horiz-adv-x="800" 
d="M61 355q0 -91 27 -161t74 -117t109 -71t132 -24q69 0 130 24t107 71t73 117t27 161t-27 161t-73 117t-107 71t-130 24q-70 0 -132 -24t-109 -71t-74 -117t-27 -161v0zM166 355q0 64 16 117t46 90t74 57t98 20t97 -20t73 -57t46 -90t16 -117t-16 -117t-46 -90t-73 -57
t-97 -20t-98 20t-74 57t-46 90t-16 117v0zM303 791q24 0 42 17t18 44t-18 44t-42 17t-42 -17t-18 -44t18 -44t42 -17v0zM498 791q24 0 42 17t18 44t-18 44t-42 17t-42 -17t-18 -44t18 -44t42 -17v0v1v-1z" />
    <glyph glyph-name="multiply" unicode="&#xd7;" 
d="M440 99l57 57l-150 150l150 150l-57 57l-150 -150l-150 150l-57 -57l150 -150l-150 -150l57 -57l150 150l150 -150v0v1v-1z" />
    <glyph glyph-name="Oslash" unicode="&#xd8;" horiz-adv-x="800" 
d="M61 355q0 -86 24 -152t65 -112l-64 -82l64 -47l59 77q42 -28 91 -42t103 -14q69 0 130 24t107 71t73 117t27 161q0 84 -23 149t-63 111l66 85l-64 47l-60 -79q-84 57 -193 57q-70 0 -132 -24t-109 -71t-74 -117t-27 -161v0v2zM166 355q0 64 16 117t46 90t74 57t98 20
q81 0 137 -44l-327 -423q-45 72 -45 184v0zM400 72q-81 0 -135 42l326 421q20 -36 31 -81t11 -99q0 -64 -16 -117t-46 -90t-73 -57t-97 -20v0v0v1h-1z" />
    <glyph glyph-name="Ugrave" unicode="&#xd9;" horiz-adv-x="708" 
d="M354 -15q70 0 121 22t84 59t49 88t16 110v445h-99v-434q0 -53 -12 -91t-35 -63t-54 -37t-69 -12q-76 0 -123 48t-47 154v434h-99v-445q0 -59 16 -110t49 -88t84 -59t121 -22v0zM293 954l-61 -60l144 -140l48 43l-131 158v0v0v1v-2z" />
    <glyph glyph-name="Uacute" unicode="&#xda;" horiz-adv-x="708" 
d="M354 -15q70 0 121 22t84 59t49 88t16 110v445h-99v-434q0 -53 -12 -91t-35 -63t-54 -37t-69 -12q-76 0 -123 48t-47 154v434h-99v-445q0 -59 16 -110t49 -88t84 -59t121 -22v0zM478 894l-61 60l-131 -158l48 -43l144 140v0v0v1v0z" />
    <glyph glyph-name="Ucircumflex" unicode="&#xdb;" horiz-adv-x="708" 
d="M354 -15q70 0 121 22t84 59t49 88t16 110v445h-99v-434q0 -53 -12 -91t-35 -63t-54 -37t-69 -12q-76 0 -123 48t-47 154v434h-99v-445q0 -59 16 -110t49 -88t84 -59t121 -22v0zM354 947l-139 -146l40 -45l99 90l99 -90l40 45l-139 146v0v0v1v-1z" />
    <glyph glyph-name="Udieresis" unicode="&#xdc;" horiz-adv-x="708" 
d="M354 -15q70 0 121 22t84 59t49 88t16 110v445h-99v-434q0 -53 -12 -91t-35 -63t-54 -37t-69 -12q-76 0 -123 48t-47 154v434h-99v-445q0 -59 16 -110t49 -88t84 -59t121 -22v0zM257 791q24 0 42 17t18 44t-18 44t-42 17t-42 -17t-18 -44t18 -44t42 -17v0zM452 791
q24 0 42 17t18 44t-18 44t-42 17t-42 -17t-18 -44t18 -44t42 -17v0v1v-1z" />
    <glyph glyph-name="Yacute" unicode="&#xdd;" horiz-adv-x="616" 
d="M259 0h99v287q70 109 132 215t117 208h-111q-40 -84 -88 -171t-98 -167q-51 80 -99 167t-87 171h-117q55 -102 117 -208t133 -216v-285v0zM433 894l-61 60l-131 -158l48 -43l144 140v0v0v1v0z" />
    <glyph glyph-name="Thorn" unicode="&#xde;" horiz-adv-x="627" 
d="M189 227v282q19 2 39 2h38q48 0 88 -6t69 -22t45 -43t16 -68q0 -43 -15 -71t-43 -44t-69 -23t-92 -7h-75h-1zM189 710h-99v-710h99v145h79q75 0 134 12t100 39t63 69t22 103q0 226 -318 226h-40t-40 -2v116v0v0v1v1z" />
    <glyph glyph-name="germandbls" unicode="&#xdf;" horiz-adv-x="642" 
d="M512 631q0 35 -12 65t-37 52t-65 34t-95 12q-53 0 -94 -16t-69 -46t-42 -72t-14 -93v-567h95v565q0 69 31 108t100 39q53 0 80 -25t27 -70q0 -14 -6 -27t-15 -26t-20 -25t-21 -22q-26 -27 -49 -55t-23 -69q0 -20 5 -35t17 -29t34 -28t56 -29q58 -27 82 -53t24 -66
q0 -38 -25 -61t-76 -23q-20 0 -40 4t-37 9t-30 10t-19 8l-16 -83q6 -3 20 -8t32 -10t40 -8t44 -3q104 0 154 43t50 123q0 38 -10 65t-28 47t-42 35t-52 28l-30 14t-27 15t-20 19t-8 26q0 26 16 43t40 43q11 12 24 26t24 31t18 37t7 46v0v0v1z" />
    <glyph glyph-name="agrave" unicode="&#xe0;" horiz-adv-x="538" 
d="M264 69q-56 0 -89 20t-33 71q0 28 13 45t33 27t44 13t46 3q33 0 56 -4t33 -9v-159q-17 -4 -43 -6t-60 -2v0v1zM256 546q-50 0 -93 -8t-61 -16l11 -79q17 7 52 14t82 7q37 0 60 -11t36 -29t18 -41t5 -47v-27q-4 1 -14 3t-24 5t-29 5t-29 2q-45 0 -86 -9t-72 -28t-49 -51
t-18 -76q0 -46 15 -79t43 -53t66 -29t83 -9q32 0 64 3t60 6t50 7t34 6v333q0 45 -10 82t-34 64t-63 42t-96 15v0zM210 795l-61 -60l144 -140l48 43l-131 158v0v0v1v-2z" />
    <glyph glyph-name="aacute" unicode="&#xe1;" horiz-adv-x="538" 
d="M264 69q-56 0 -89 20t-33 71q0 28 13 45t33 27t44 13t46 3q33 0 56 -4t33 -9v-159q-17 -4 -43 -6t-60 -2v0v1zM256 546q-50 0 -93 -8t-61 -16l11 -79q17 7 52 14t82 7q37 0 60 -11t36 -29t18 -41t5 -47v-27q-4 1 -14 3t-24 5t-29 5t-29 2q-45 0 -86 -9t-72 -28t-49 -51
t-18 -76q0 -46 15 -79t43 -53t66 -29t83 -9q32 0 64 3t60 6t50 7t34 6v333q0 45 -10 82t-34 64t-63 42t-96 15v0zM395 734l-61 60l-131 -158l48 -43l144 140v0v0v1v0z" />
    <glyph glyph-name="acircumflex" unicode="&#xe2;" horiz-adv-x="538" 
d="M264 69q-56 0 -89 20t-33 71q0 28 13 45t33 27t44 13t46 3q33 0 56 -4t33 -9v-159q-17 -4 -43 -6t-60 -2v0v1zM256 546q-50 0 -93 -8t-61 -16l11 -79q17 7 52 14t82 7q37 0 60 -11t36 -29t18 -41t5 -47v-27q-4 1 -14 3t-24 5t-29 5t-29 2q-45 0 -86 -9t-72 -28t-49 -51
t-18 -76q0 -46 15 -79t43 -53t66 -29t83 -9q32 0 64 3t60 6t50 7t34 6v333q0 45 -10 82t-34 64t-63 42t-96 15v0zM271 787l-139 -146l40 -45l99 90l99 -90l40 45l-139 146v0v0v1v-1z" />
    <glyph glyph-name="atilde" unicode="&#xe3;" horiz-adv-x="538" 
d="M264 69q-56 0 -89 20t-33 71q0 28 13 45t33 27t44 13t46 3q33 0 56 -4t33 -9v-159q-17 -4 -43 -6t-60 -2v0v1zM256 546q-50 0 -93 -8t-61 -16l11 -79q17 7 52 14t82 7q37 0 60 -11t36 -29t18 -41t5 -47v-27q-4 1 -14 3t-24 5t-29 5t-29 2q-45 0 -86 -9t-72 -28t-49 -51
t-18 -76q0 -46 15 -79t43 -53t66 -29t83 -9q32 0 64 3t60 6t50 7t34 6v333q0 45 -10 82t-34 64t-63 42t-96 15v0zM440 728l-49 25q-8 -16 -23 -30t-32 -14q-11 0 -23 4t-29 12q-16 8 -34 15t-38 7q-22 0 -40 -10t-31 -24t-22 -30t-13 -28l49 -25q8 16 23 30t32 14
q11 0 23 -4t29 -12q16 -8 34 -15t38 -7q22 0 40 10t31 24t22 30t14 28v0v1z" />
    <glyph glyph-name="adieresis" unicode="&#xe4;" horiz-adv-x="538" 
d="M264 69q-56 0 -89 20t-33 71q0 28 13 45t33 27t44 13t46 3q33 0 56 -4t33 -9v-159q-17 -4 -43 -6t-60 -2v0v1zM256 546q-50 0 -93 -8t-61 -16l11 -79q17 7 52 14t82 7q37 0 60 -11t36 -29t18 -41t5 -47v-27q-4 1 -14 3t-24 5t-29 5t-29 2q-45 0 -86 -9t-72 -28t-49 -51
t-18 -76q0 -46 15 -79t43 -53t66 -29t83 -9q32 0 64 3t60 6t50 7t34 6v333q0 45 -10 82t-34 64t-63 42t-96 15v0zM174 631q24 0 42 17t18 44t-18 44t-42 17t-42 -17t-18 -44t18 -44t42 -17v0zM369 631q24 0 42 17t18 44t-18 44t-42 17t-42 -17t-18 -44t18 -44t42 -17v0v1v-1
z" />
    <glyph glyph-name="aring" unicode="&#xe5;" horiz-adv-x="538" 
d="M264 69q-56 0 -89 20t-33 71q0 28 13 45t33 27t44 13t46 3q33 0 56 -4t33 -9v-159q-17 -4 -43 -6t-60 -2v0v1zM256 546q-50 0 -93 -8t-61 -16l11 -79q17 7 52 14t82 7q37 0 60 -11t36 -29t18 -41t5 -47v-27q-4 1 -14 3t-24 5t-29 5t-29 2q-45 0 -86 -9t-72 -28t-49 -51
t-18 -76q0 -46 15 -79t43 -53t66 -29t83 -9q32 0 64 3t60 6t50 7t34 6v333q0 45 -10 82t-34 64t-63 42t-96 15v0zM377 693q0 25 -9 44t-23 33t-33 21t-41 7t-41 -7t-33 -21t-23 -33t-9 -44t9 -44t23 -33t33 -21t41 -7t41 7t33 21t23 33t9 44v0zM326 693q0 -27 -16 -42
t-39 -15t-39 15t-16 42t16 42t39 15t39 -15t16 -42v0v1v-1z" />
    <glyph glyph-name="ae" unicode="&#xe6;" horiz-adv-x="883" 
d="M630 -12q55 0 99 10t61 19l-13 80q-17 -8 -51 -17t-84 -9q-88 0 -130 44t-48 126h365v9v11v14q0 136 -58 204t-164 68q-50 0 -96 -23t-80 -69q-20 43 -61 67t-112 24q-49 0 -91 -8t-60 -16l11 -79q17 7 52 14t82 7q37 0 60 -11t36 -29t18 -41t5 -47v-27q-4 1 -14 3t-23 5
t-28 5t-29 2q-45 0 -86 -9t-72 -28t-49 -51t-18 -76q0 -46 15 -79t44 -53t69 -29t91 -9q35 0 64 6t53 15t41 18t27 16q33 -27 77 -41t102 -14v0zM269 69q-59 0 -92 19t-33 71q0 28 13 45t33 27t44 13t46 3q33 0 55 -4t33 -9q1 -37 10 -70t24 -62q-16 -11 -47 -23t-84 -12v0z
M727 317h-264q3 28 13 55t27 47t42 33t58 13q58 0 91 -41t32 -105v0v0v1z" />
    <glyph glyph-name="ccedilla" unicode="&#xe7;" horiz-adv-x="480" 
d="M328 -12q19 1 39 4t37 7t31 9t22 9l-13 80q-17 -8 -48 -15t-69 -7q-47 0 -80 14t-54 40t-31 62t-10 79q0 96 42 146t122 50q32 0 60 -6t50 -16l22 81q-33 13 -69 19t-72 6q-58 0 -106 -21t-81 -58t-51 -88t-18 -112q0 -55 13 -102t40 -83t66 -59t91 -30q-8 -15 -15 -32
t-11 -29l7 -3q20 -8 31 -16t11 -19q0 -24 -37 -24q-17 0 -31 3t-26 7l-11 -58q13 -5 35 -9t49 -4q30 0 50 7t32 18t17 24t5 24q0 33 -13 50t-43 31l11 26v0v0v1z" />
    <glyph glyph-name="egrave" unicode="&#xe8;" horiz-adv-x="576" 
d="M54 265q0 -60 16 -111t49 -88t84 -58t121 -21q55 0 99 10t61 19l-13 80q-17 -8 -51 -17t-84 -9q-89 0 -131 43t-48 126h365q1 8 1 18v16q0 137 -57 204t-165 67q-46 0 -90 -17t-78 -52t-54 -88t-20 -124v0zM420 317h-264q3 28 13 55t27 47t42 33t58 13q58 0 91 -41
t32 -105v0zM233 795l-61 -60l144 -140l48 43l-131 158v0v0v1v-2z" />
    <glyph glyph-name="eacute" unicode="&#xe9;" horiz-adv-x="576" 
d="M54 265q0 -60 16 -111t49 -88t84 -58t121 -21q55 0 99 10t61 19l-13 80q-17 -8 -51 -17t-84 -9q-89 0 -131 43t-48 126h365q1 8 1 18v16q0 137 -57 204t-165 67q-46 0 -90 -17t-78 -52t-54 -88t-20 -124v0zM420 317h-264q3 28 13 55t27 47t42 33t58 13q58 0 91 -41
t32 -105v0zM419 734l-61 60l-131 -158l48 -43l144 140v0v0v1v0z" />
    <glyph glyph-name="ecircumflex" unicode="&#xea;" horiz-adv-x="576" 
d="M54 265q0 -60 16 -111t49 -88t84 -58t121 -21q55 0 99 10t61 19l-13 80q-17 -8 -51 -17t-84 -9q-89 0 -131 43t-48 126h365q1 8 1 18v16q0 137 -57 204t-165 67q-46 0 -90 -17t-78 -52t-54 -88t-20 -124v0zM420 317h-264q3 28 13 55t27 47t42 33t58 13q58 0 91 -41
t32 -105v0zM295 787l-139 -146l40 -45l99 90l99 -90l40 45l-139 146v0v0v1v-1z" />
    <glyph glyph-name="edieresis" unicode="&#xeb;" horiz-adv-x="576" 
d="M54 265q0 -60 16 -111t49 -88t84 -58t121 -21q55 0 99 10t61 19l-13 80q-17 -8 -51 -17t-84 -9q-89 0 -131 43t-48 126h365q1 8 1 18v16q0 137 -57 204t-165 67q-46 0 -90 -17t-78 -52t-54 -88t-20 -124v0zM420 317h-264q3 28 13 55t27 47t42 33t58 13q58 0 91 -41
t32 -105v0zM198 631q24 0 42 17t18 44t-18 44t-42 17t-42 -17t-18 -44t18 -44t42 -17v0zM392 631q24 0 42 17t18 44t-18 44t-42 17t-42 -17t-18 -44t18 -44t42 -17v0v1v-1z" />
    <glyph glyph-name="igrave" unicode="&#xec;" horiz-adv-x="263" 
d="M179 0v532h-95v-532h95v0zM72 795l-61 -60l144 -140l48 43l-131 158v0v0v1v-2z" />
    <glyph glyph-name="iacute" unicode="&#xed;" horiz-adv-x="263" 
d="M179 0v532h-95v-532h95v0zM257 734l-61 60l-131 -158l48 -43l144 140v0v0v1v0z" />
    <glyph glyph-name="icircumflex" unicode="&#xee;" horiz-adv-x="263" 
d="M179 0v532h-95v-532h95v0zM133 787l-139 -146l40 -45l99 90l99 -90l40 45l-139 146v0v0v1v-1z" />
    <glyph glyph-name="idieresis" unicode="&#xef;" horiz-adv-x="263" 
d="M179 0v532h-95v-532h95v0zM36 631q24 0 42 17t18 44t-18 44t-42 17t-42 -17t-18 -44t18 -44t42 -17v0zM230 631q24 0 42 17t18 44t-18 44t-42 17t-42 -17t-18 -44t18 -44t42 -17v0v1v-1z" />
    <glyph glyph-name="eth" unicode="&#xf0;" horiz-adv-x="607" 
d="M580 673l-24 64l-127 -44q-30 37 -59 62t-52 39l-60 -52q52 -38 86 -78l-104 -36l24 -64l123 42q44 -70 56 -152q-18 14 -57 30t-91 16q-55 0 -100 -17t-76 -49t-48 -78t-17 -103q0 -52 15 -100t45 -85t76 -60t106 -23q74 0 123 29t78 78t41 112t12 131q0 96 -23 170
t-56 129l110 38v0zM451 333q0 -49 -7 -96t-24 -84t-47 -60t-77 -23q-36 0 -63 15t-45 40t-27 58t-9 70q0 35 9 65t27 53t47 36t71 13q33 0 71 -11t73 -42v-16v-16v0v0v1z" />
    <glyph glyph-name="ntilde" unicode="&#xf1;" horiz-adv-x="591" 
d="M84 517v-517h95v450q5 1 17 3t27 4t31 3t31 1q38 0 64 -10t41 -32t22 -57t7 -84v-279h95v299q0 54 -10 99t-35 77t-67 50t-106 18q-71 0 -125 -9t-87 -17v0v1zM468 728l-49 25q-8 -16 -23 -30t-32 -14q-11 0 -23 4t-29 12q-16 8 -34 15t-38 7q-22 0 -40 -10t-31 -24
t-22 -30t-13 -28l49 -25q8 16 23 30t32 14q11 0 23 -4t29 -12q16 -8 34 -15t38 -7q22 0 40 10t31 24t22 30t14 28v0v1z" />
    <glyph glyph-name="ograve" unicode="&#xf2;" horiz-adv-x="608" 
d="M554 266q0 62 -18 114t-51 89t-79 57t-100 20t-100 -20t-79 -57t-51 -89t-18 -114q0 -64 18 -115t51 -88t79 -57t100 -20t100 20t79 57t51 88t18 115v0zM455 266q0 -90 -40 -143t-110 -53t-110 53t-40 143t40 143t110 53t110 -53t40 -143v0zM243 795l-61 -60l144 -140
l48 43l-131 158v0v0v1v-2z" />
    <glyph glyph-name="oacute" unicode="&#xf3;" horiz-adv-x="608" 
d="M554 266q0 62 -18 114t-51 89t-79 57t-100 20t-100 -20t-79 -57t-51 -89t-18 -114q0 -64 18 -115t51 -88t79 -57t100 -20t100 20t79 57t51 88t18 115v0zM455 266q0 -90 -40 -143t-110 -53t-110 53t-40 143t40 143t110 53t110 -53t40 -143v0zM428 734l-61 60l-131 -158
l48 -43l144 140v0v0v1v0z" />
    <glyph glyph-name="ocircumflex" unicode="&#xf4;" horiz-adv-x="608" 
d="M554 266q0 62 -18 114t-51 89t-79 57t-100 20t-100 -20t-79 -57t-51 -89t-18 -114q0 -64 18 -115t51 -88t79 -57t100 -20t100 20t79 57t51 88t18 115v0zM455 266q0 -90 -40 -143t-110 -53t-110 53t-40 143t40 143t110 53t110 -53t40 -143v0zM304 787l-139 -146l40 -45
l99 90l99 -90l40 45l-139 146v0v0v1v-1z" />
    <glyph glyph-name="otilde" unicode="&#xf5;" horiz-adv-x="608" 
d="M465 691l-49 25q-8 -16 -23 -30t-32 -14q-11 0 -23 4t-29 12q-16 8 -34 15t-38 7q-22 0 -40 -10t-31 -24t-22 -30t-13 -28l49 -25q8 16 23 30t32 14q11 0 23 -4t29 -12q16 -8 34 -15t38 -7q22 0 40 10t31 24t22 30t14 28h-1zM554 266q0 62 -18 114t-51 89t-79 57t-100 20
t-100 -20t-79 -57t-51 -89t-18 -114q0 -64 18 -115t51 -88t79 -57t100 -20t100 20t79 57t51 88t18 115v0zM455 266q0 -90 -40 -143t-110 -53t-110 53t-40 143t40 143t110 53t110 -53t40 -143v0v1v-1z" />
    <glyph glyph-name="odieresis" unicode="&#xf6;" horiz-adv-x="608" 
d="M554 266q0 62 -18 114t-51 89t-79 57t-100 20t-100 -20t-79 -57t-51 -89t-18 -114q0 -64 18 -115t51 -88t79 -57t100 -20t100 20t79 57t51 88t18 115v0zM455 266q0 -90 -40 -143t-110 -53t-110 53t-40 143t40 143t110 53t110 -53t40 -143v0zM207 631q24 0 42 17t18 44
t-18 44t-42 17t-42 -17t-18 -44t18 -44t42 -17v0zM401 631q24 0 42 17t18 44t-18 44t-42 17t-42 -17t-18 -44t18 -44t42 -17v0v1v-1z" />
    <glyph glyph-name="divide" unicode="&#xf7;" horiz-adv-x="960" 
d="M236 745q-5 0 -18 -1t-32 -7t-41 -18t-42 -32q-27 -27 -41 -56t-21 -58t-7 -57v-52v-8v-6v-51t4 -52t13 -50t24 -46q16 -22 36 -36t40 -23t38 -13t31 -4h20h30q-2 -31 0 -69q4 -140 50 -192q29 -32 64 -47t66 -21t53 -5t24 1q17 2 29 15t12 31v205q18 10 44 26t56 41
q45 37 72 72t41 59h94q20 0 34 14t14 34t-14 33t-34 13h-123q-14 0 -27 -8t-18 -21q0 -2 -6 -13t-18 -28t-30 -39t-45 -45q-41 -33 -70 -47t-31 -15q-15 -5 -23 -17t-8 -27v-187q-20 3 -43 11t-40 27q-2 1 -6 8t-8 21t-8 39t-5 63q-1 36 0 66t3 39l96 93q14 14 14 33t-14 33
t-33 15t-33 -13l-110 -105h-69q-3 0 -11 2t-19 6t-22 12t-20 19q-17 24 -20 62t-3 79v6v8q0 44 5 82t36 71q11 10 23 16t22 9t17 3h7h1h305q28 0 45 -3t27 -8t16 -12t12 -16q53 -86 129 -86h106q20 0 34 14t14 34t-14 34t-34 14h-106q-24 0 -50 41q-14 23 -30 38t-37 25
t-48 14t-63 4h-305h-1v0v0v1v8z" />
    <glyph glyph-name="oslash" unicode="&#xf8;" horiz-adv-x="608" 
d="M494 456l55 72l-54 41l-50 -66q-30 20 -65 31t-75 11q-54 0 -100 -20t-79 -57t-51 -89t-18 -114q0 -58 16 -106t45 -84l-55 -72l54 -41l50 66q59 -42 140 -42q54 0 100 20t79 57t51 88t18 115q0 58 -16 106t-45 84v0v0zM153 266q0 91 40 144t111 53q50 0 87 -29
l-217 -281q-22 46 -22 113v0h1zM456 266q0 -91 -40 -144t-111 -53q-52 0 -87 28l216 281q23 -48 23 -112v0v0v1z" />
    <glyph glyph-name="ugrave" unicode="&#xf9;" horiz-adv-x="591" 
d="M508 15v517h-95v-450q-5 -2 -17 -4t-26 -4t-30 -3t-31 -1q-73 0 -104 42t-31 139v279h-95v-299q0 -54 11 -99t37 -78t68 -51t103 -18q71 0 125 9t87 17v0zM231 795l-61 -60l144 -140l48 43l-131 158v0v0v1v-2z" />
    <glyph glyph-name="uacute" unicode="&#xfa;" horiz-adv-x="591" 
d="M508 15v517h-95v-450q-5 -2 -17 -4t-26 -4t-30 -3t-31 -1q-73 0 -104 42t-31 139v279h-95v-299q0 -54 11 -99t37 -78t68 -51t103 -18q71 0 125 9t87 17v0zM417 734l-61 60l-131 -158l48 -43l144 140v0v0v1v0z" />
    <glyph glyph-name="ucircumflex" unicode="&#xfb;" horiz-adv-x="591" 
d="M508 15v517h-95v-450q-5 -2 -17 -4t-26 -4t-30 -3t-31 -1q-73 0 -104 42t-31 139v279h-95v-299q0 -54 11 -99t37 -78t68 -51t103 -18q71 0 125 9t87 17v0zM293 787l-139 -146l40 -45l99 90l99 -90l40 45l-139 146v0v0v1v-1z" />
    <glyph glyph-name="udieresis" unicode="&#xfc;" horiz-adv-x="591" 
d="M508 15v517h-95v-450q-5 -2 -17 -4t-26 -4t-30 -3t-31 -1q-73 0 -104 42t-31 139v279h-95v-299q0 -54 11 -99t37 -78t68 -51t103 -18q71 0 125 9t87 17v0zM196 631q24 0 42 17t18 44t-18 44t-42 17t-42 -17t-18 -44t18 -44t42 -17v0zM390 631q24 0 42 17t18 44t-18 44
t-42 17t-42 -17t-18 -44t18 -44t42 -17v0v1v-1z" />
    <glyph glyph-name="yacute" unicode="&#xfd;" horiz-adv-x="513" 
d="M22 -99l-17 -77q4 -2 14 -5t22 -6t24 -5t23 -2q42 0 75 10t60 32t49 55t42 79q52 121 97 260t82 290h-98q-26 -112 -55 -217t-68 -213q-25 52 -48 108t-42 112t-35 109t-27 99h-102q37 -141 93 -279t120 -261q-26 -56 -58 -81t-88 -25q-17 0 -35 5t-29 10v0zM393 734
l-61 60l-131 -158l48 -43l144 140v0v0v1v0z" />
    <glyph glyph-name="thorn" unicode="&#xfe;" horiz-adv-x="607" 
d="M454 265q0 -41 -8 -76t-26 -61t-47 -41t-70 -15q-39 0 -72 13t-50 27v330q5 2 16 5t26 6t31 5t31 2q77 0 123 -51t46 -144v0v0zM553 265q0 64 -19 116t-53 88t-83 55t-107 19q-27 0 -56 -6t-56 -15v271l-95 -16v-968h95v213q17 -11 52 -23t81 -12q57 0 102 20t76 57
t47 88t16 111v0v0v1v1z" />
    <glyph glyph-name="ydieresis" unicode="&#xff;" horiz-adv-x="513" 
d="M22 -99l-17 -77q4 -2 14 -5t22 -6t24 -5t23 -2q42 0 75 10t60 32t49 55t42 79q52 121 97 260t82 290h-98q-26 -112 -55 -217t-68 -213q-25 52 -48 108t-42 112t-35 109t-27 99h-102q37 -141 93 -279t120 -261q-26 -56 -58 -81t-88 -25q-17 0 -35 5t-29 10v0zM172 631
q24 0 42 17t18 44t-18 44t-42 17t-42 -17t-18 -44t18 -44t42 -17v0zM367 631q24 0 42 17t18 44t-18 44t-42 17t-42 -17t-18 -44t18 -44t42 -17v0v1v-1z" />
    <glyph glyph-name="Amacron" unicode="&#x100;" horiz-adv-x="683" 
d="M564 0h109q-41 113 -77 209t-70 182t-68 164t-71 155h-91q-37 -77 -71 -155t-68 -164t-70 -182t-77 -209h103l64 181h322q16 -46 31 -91t32 -91v0zM471 263h-264q32 89 64 172t68 160q35 -77 67 -160t65 -172v0v0zM196 888v-74h291v74h-291v0v1v-1z" />
    <glyph glyph-name="amacron" unicode="&#x101;" horiz-adv-x="538" 
d="M264 69q-56 0 -89 20t-33 71q0 28 13 45t33 27t44 13t46 3q33 0 56 -4t33 -9v-159q-17 -4 -43 -6t-60 -2v0v1zM256 546q-50 0 -93 -8t-61 -16l11 -79q17 7 52 14t82 7q37 0 60 -11t36 -29t18 -41t5 -47v-27q-4 1 -14 3t-24 5t-29 5t-29 2q-45 0 -86 -9t-72 -28t-49 -51
t-18 -76q0 -46 15 -79t43 -53t66 -29t83 -9q32 0 64 3t60 6t50 7t34 6v333q0 45 -10 82t-34 64t-63 42t-96 15v0zM126 728v-74h291v74h-291v0v1v-1z" />
    <glyph glyph-name="Abreve" unicode="&#x102;" horiz-adv-x="683" 
d="M564 0h109q-41 113 -77 209t-70 182t-68 164t-71 155h-91q-37 -77 -71 -155t-68 -164t-70 -182t-77 -209h103l64 181h322q16 -46 31 -91t32 -91v0zM471 263h-264q32 89 64 172t68 160q35 -77 67 -160t65 -172v0v0zM342 784q29 0 54 10t44 28t29 45t9 61h-61
q-1 -11 -5 -24t-12 -24t-22 -18t-36 -7t-36 7t-22 18t-12 24t-5 24h-61q-1 -34 9 -61t29 -45t44 -28t54 -10v0v1v-1z" />
    <glyph glyph-name="abreve" unicode="&#x103;" horiz-adv-x="538" 
d="M264 69q-56 0 -89 20t-33 71q0 28 13 45t33 27t44 13t46 3q33 0 56 -4t33 -9v-159q-17 -4 -43 -6t-60 -2v0v1zM256 546q-50 0 -93 -8t-61 -16l11 -79q17 7 52 14t82 7q37 0 60 -11t36 -29t18 -41t5 -47v-27q-4 1 -14 3t-24 5t-29 5t-29 2q-45 0 -86 -9t-72 -28t-49 -51
t-18 -76q0 -46 15 -79t43 -53t66 -29t83 -9q32 0 64 3t60 6t50 7t34 6v333q0 45 -10 82t-34 64t-63 42t-96 15v0zM271 625q29 0 54 10t44 28t29 45t9 61h-61q-1 -11 -5 -24t-12 -24t-22 -18t-36 -7t-36 7t-22 18t-12 24t-5 24h-61q-1 -34 9 -61t29 -45t44 -28t54 -10v0v1v-1
z" />
    <glyph glyph-name="Aogonek" unicode="&#x104;" horiz-adv-x="683" 
d="M565 -2q-5 -5 -12 -11t-15 -14q-17 -18 -30 -40t-13 -46q0 -36 28 -57t85 -21q20 0 38 3t29 8l-7 62q-11 -4 -23 -6t-19 -2q-41 0 -41 30q0 14 8 26t22 28q15 16 30 26t24 15q-41 112 -77 208t-70 182t-68 164t-71 155h-91q-37 -77 -71 -155t-68 -164t-70 -182t-77 -209
h103l64 181h322l32 -92t33 -92v0zM471 263h-264q32 89 64 172t68 160q35 -77 67 -160t65 -172v0v0v1v-1z" />
    <glyph glyph-name="aogonek" unicode="&#x105;" horiz-adv-x="538" 
d="M264 69q-56 0 -89 20t-33 71q0 28 13 45t33 27t44 13t46 3q33 0 56 -4t33 -9v-159q-17 -4 -43 -6t-60 -2v0v1zM256 546q-50 0 -93 -8t-61 -16l11 -79q17 7 52 14t82 7q37 0 60 -11t36 -29t18 -41t5 -47v-27q-4 1 -14 3t-24 5t-29 5t-29 2q-45 0 -86 -9t-72 -28t-49 -51
t-18 -76q0 -46 15 -79t43 -53t66 -29t83 -9q25 0 50 2t49 4q-5 -5 -12 -11t-12 -12q-17 -18 -31 -40t-14 -46q0 -36 28 -57t85 -21q20 0 38 3t29 8l-7 62q-11 -4 -23 -6t-19 -2q-41 0 -41 30q0 14 9 26t23 28q15 16 30 28t27 21v333q0 45 -10 82t-34 64t-63 42t-96 15v0v0v1
z" />
    <glyph glyph-name="Cacute" unicode="&#x106;" horiz-adv-x="638" 
d="M395 -15q43 0 80 5t65 12t46 15t25 13l-26 82q-23 -11 -68 -25t-114 -14q-59 0 -104 20t-75 57t-45 89t-15 116q0 66 17 119t49 90t77 56t101 19q27 0 53 -5t48 -12t39 -14t26 -13l29 82q-6 4 -22 12t-42 16t-61 14t-79 6q-70 0 -131 -25t-107 -72t-73 -116t-27 -158
t24 -158t68 -116t105 -72t136 -25v0zM502 894l-61 60l-131 -158l48 -43l144 140v0v0v1v0z" />
    <glyph glyph-name="cacute" unicode="&#x107;" horiz-adv-x="480" 
d="M315 -12q20 0 42 3t41 7t34 9t23 10l-13 80q-17 -8 -48 -15t-69 -7q-47 0 -80 14t-54 40t-31 62t-10 79q0 96 42 146t122 50q32 0 60 -6t50 -16l22 81q-33 13 -69 19t-72 6q-58 0 -106 -21t-81 -58t-51 -88t-18 -112t16 -112t49 -88t82 -57t113 -20v0zM420 734l-61 60
l-131 -158l48 -43l144 140v0v0v1v0z" />
    <glyph glyph-name="Ccircumflex" unicode="&#x108;" horiz-adv-x="638" 
d="M395 -15q43 0 80 5t65 12t46 15t25 13l-26 82q-23 -11 -68 -25t-114 -14q-59 0 -104 20t-75 57t-45 89t-15 116q0 66 17 119t49 90t77 56t101 19q27 0 53 -5t48 -12t39 -14t26 -13l29 82q-6 4 -22 12t-42 16t-61 14t-79 6q-70 0 -131 -25t-107 -72t-73 -116t-27 -158
t24 -158t68 -116t105 -72t136 -25v0zM378 947l-139 -146l40 -45l99 90l99 -90l40 45l-139 146v0v0v1v-1z" />
    <glyph glyph-name="ccircumflex" unicode="&#x109;" horiz-adv-x="480" 
d="M315 -12q20 0 42 3t41 7t34 9t23 10l-13 80q-17 -8 -48 -15t-69 -7q-47 0 -80 14t-54 40t-31 62t-10 79q0 96 42 146t122 50q32 0 60 -6t50 -16l22 81q-33 13 -69 19t-72 6q-58 0 -106 -21t-81 -58t-51 -88t-18 -112t16 -112t49 -88t82 -57t113 -20v0zM296 787l-139 -146
l40 -45l99 90l99 -90l40 45l-139 146v0v0v1v-1z" />
    <glyph glyph-name="Cdotaccent" unicode="&#x10a;" horiz-adv-x="638" 
d="M395 -15q43 0 80 5t65 12t46 15t25 13l-26 82q-23 -11 -68 -25t-114 -14q-59 0 -104 20t-75 57t-45 89t-15 116q0 66 17 119t49 90t77 56t101 19q27 0 53 -5t48 -12t39 -14t26 -13l29 82q-6 4 -22 12t-42 16t-61 14t-79 6q-70 0 -131 -25t-107 -72t-73 -116t-27 -158
t24 -158t68 -116t105 -72t136 -25v0zM378 788q26 0 44 17t18 46t-18 46t-44 17t-44 -17t-18 -46t18 -46t44 -17v0v1v-1z" />
    <glyph glyph-name="cdotaccent" unicode="&#x10b;" horiz-adv-x="480" 
d="M315 -12q20 0 42 3t41 7t34 9t23 10l-13 80q-17 -8 -48 -15t-69 -7q-47 0 -80 14t-54 40t-31 62t-10 79q0 96 42 146t122 50q32 0 60 -6t50 -16l22 81q-33 13 -69 19t-72 6q-58 0 -106 -21t-81 -58t-51 -88t-18 -112t16 -112t49 -88t82 -57t113 -20v0zM296 629
q26 0 44 17t18 46t-18 46t-44 17t-44 -17t-18 -46t18 -46t44 -17v0v1v-1z" />
    <glyph glyph-name="Ccaron" unicode="&#x10c;" horiz-adv-x="638" 
d="M395 -15q43 0 80 5t65 12t46 15t25 13l-26 82q-23 -11 -68 -25t-114 -14q-59 0 -104 20t-75 57t-45 89t-15 116q0 66 17 119t49 90t77 56t101 19q27 0 53 -5t48 -12t39 -14t26 -13l29 82q-6 4 -22 12t-42 16t-61 14t-79 6q-70 0 -131 -25t-107 -72t-73 -116t-27 -158
t24 -158t68 -116t105 -72t136 -25v0zM239 906l139 -146l139 146l-40 45l-99 -90l-99 90l-40 -45v0v0v1v-1z" />
    <glyph glyph-name="ccaron" unicode="&#x10d;" horiz-adv-x="480" 
d="M315 -12q20 0 42 3t41 7t34 9t23 10l-13 80q-17 -8 -48 -15t-69 -7q-47 0 -80 14t-54 40t-31 62t-10 79q0 96 42 146t122 50q32 0 60 -6t50 -16l22 81q-33 13 -69 19t-72 6q-58 0 -106 -21t-81 -58t-51 -88t-18 -112t16 -112t49 -88t82 -57t113 -20v0zM157 746l139 -146
l139 146l-40 45l-99 -90l-99 90l-40 -45v0v0v1v-1z" />
    <glyph glyph-name="Dcaron" unicode="&#x10e;" horiz-adv-x="734" 
d="M673 355q0 92 -29 160t-81 113t-125 67t-160 22q-43 0 -95 -4t-94 -14v-688q42 -10 94 -14t95 -4q87 0 160 22t125 67t81 113t29 160v0v0zM287 81q-42 0 -65 1t-32 2v543q9 1 32 2t65 1q141 0 211 -72t70 -202t-70 -202t-211 -72v0v-1zM202 906l139 -146l139 146l-40 45
l-99 -90l-99 90l-40 -45v0v0v1v-1z" />
    <glyph glyph-name="dcaron" unicode="&#x10f;" horiz-adv-x="641" 
d="M428 420v-337q-14 -4 -40 -8t-65 -4q-77 0 -123 51t-46 144q0 41 8 77t26 62t47 41t70 15q39 0 72 -13t50 -27zM428 778v-269q-17 11 -52 23t-81 12q-57 0 -102 -20t-76 -57t-47 -88t-16 -112q0 -64 19 -116t54 -88t84 -55t110 -19q67 0 118 9t84 18v779l-95 -16v0v-1z
M686 795h-91v-228h64l28 228v0v1z" />
    <glyph glyph-name="Dcroat" unicode="&#x110;" horiz-adv-x="747" 
d="M686 355q0 92 -29 160t-81 113t-125 67t-160 22q-43 0 -95 -4t-94 -14v-291h-82v-77h82v-320q42 -10 94 -14t95 -4q87 0 160 22t125 67t81 113t29 160v0v0zM300 81q-42 0 -65 1t-32 2v248h133v77h-133v218q9 1 32 2t65 1q141 0 211 -72t70 -202t-70 -202t-211 -72v0v0v1
v-2z" />
    <glyph glyph-name="dcroat" unicode="&#x111;" horiz-adv-x="607" 
d="M428 416v-333q-14 -4 -40 -8t-65 -4q-77 0 -123 50t-46 143q0 41 8 76t26 61t47 40t70 14q39 0 72 -13t50 -27v0zM428 778v-79h-181v-71h181v-124q-17 11 -52 23t-81 12q-57 0 -102 -20t-76 -56t-47 -87t-16 -112q0 -64 19 -115t54 -87t84 -55t110 -19q67 0 118 9t84 18
v613h76v71h-76v95l-95 -16v0v0v1v-1z" />
    <glyph glyph-name="Emacron" unicode="&#x112;" horiz-adv-x="588" 
d="M90 0h459v85h-359v246h297v83h-297v211h334v85h-433v-710h-1zM161 888v-74h291v74h-291v0v1v-1z" />
    <glyph glyph-name="emacron" unicode="&#x113;" horiz-adv-x="576" 
d="M54 265q0 -60 16 -111t49 -88t84 -58t121 -21q55 0 99 10t61 19l-13 80q-17 -8 -51 -17t-84 -9q-89 0 -131 43t-48 126h365q1 8 1 18v16q0 137 -57 204t-165 67q-46 0 -90 -17t-78 -52t-54 -88t-20 -124v0zM420 317h-264q3 28 13 55t27 47t42 33t58 13q58 0 91 -41
t32 -105v0zM141 728v-74h291v74h-291v0v1v-1z" />
    <glyph glyph-name="Ebreve" unicode="&#x114;" horiz-adv-x="588" 
d="M90 0h459v85h-359v246h297v83h-297v211h334v85h-433v-710h-1zM297 784q29 0 54 10t44 28t29 45t9 61h-61q-1 -11 -5 -24t-12 -24t-22 -18t-36 -7t-36 7t-22 18t-12 24t-5 24h-61q-1 -34 9 -61t29 -45t44 -28t54 -10v0v1v-1z" />
    <glyph glyph-name="ebreve" unicode="&#x115;" horiz-adv-x="576" 
d="M54 265q0 -60 16 -111t49 -88t84 -58t121 -21q55 0 99 10t61 19l-13 80q-17 -8 -51 -17t-84 -9q-89 0 -131 43t-48 126h365q1 8 1 18v16q0 137 -57 204t-165 67q-46 0 -90 -17t-78 -52t-54 -88t-20 -124v0zM420 317h-264q3 28 13 55t27 47t42 33t58 13q58 0 91 -41
t32 -105v0zM291 625q29 0 54 10t44 28t29 45t9 61h-61q-1 -11 -5 -24t-12 -24t-22 -18t-36 -7t-36 7t-22 18t-12 24t-5 24h-61q-1 -34 9 -61t29 -45t44 -28t54 -10v0v1v-1z" />
    <glyph glyph-name="Edotaccent" unicode="&#x116;" horiz-adv-x="588" 
d="M90 0h459v85h-359v246h297v83h-297v211h334v85h-433v-710h-1zM306 788q26 0 44 17t18 46t-18 46t-44 17t-44 -17t-18 -46t18 -46t44 -17v0v1v-1z" />
    <glyph glyph-name="edotaccent" unicode="&#x117;" horiz-adv-x="576" 
d="M54 265q0 -60 16 -111t49 -88t84 -58t121 -21q55 0 99 10t61 19l-13 80q-17 -8 -51 -17t-84 -9q-89 0 -131 43t-48 126h365q1 8 1 18v16q0 137 -57 204t-165 67q-46 0 -90 -17t-78 -52t-54 -88t-20 -124v0zM420 317h-264q3 28 13 55t27 47t42 33t58 13q58 0 91 -41
t32 -105v0zM295 629q26 0 44 17t18 46t-18 46t-44 17t-44 -17t-18 -46t18 -46t44 -17v0v1v-1z" />
    <glyph glyph-name="Eogonek" unicode="&#x118;" horiz-adv-x="588" 
d="M90 0h355q-8 -6 -15 -13l-15 -15q-17 -18 -30 -40t-13 -46q0 -36 28 -57t85 -21q20 0 38 3t29 8l-7 62q-11 -4 -23 -6t-19 -2q-41 0 -41 30q0 14 8 26t22 28q15 16 30 26t24 15v83h-359v246h297v83h-297v211h334v85h-433v-710v0v0v1z" />
    <glyph glyph-name="eogonek" unicode="&#x119;" horiz-adv-x="576" 
d="M54 265q0 -60 16 -111t49 -88t84 -58t121 -21h17t17 1q-32 -27 -49 -54t-17 -51q0 -41 30 -59t82 -18q16 0 35 3t31 9l-7 62q-7 -2 -18 -5t-23 -3q-17 0 -29 6t-12 23q0 12 8 25t25 30q16 17 33 30l34 26l-13 80q-17 -8 -51 -17t-84 -9q-89 0 -131 43t-48 126h365
q1 8 1 18v16q0 137 -57 204t-165 67q-46 0 -90 -17t-78 -52t-54 -88t-20 -124v0zM420 317h-264q3 28 13 55t27 47t42 33t58 13q58 0 91 -41t32 -105v0v0v1z" />
    <glyph glyph-name="Ecaron" unicode="&#x11a;" horiz-adv-x="588" 
d="M90 0h459v85h-359v246h297v83h-297v211h334v85h-433v-710h-1zM158 906l139 -146l139 146l-40 45l-99 -90l-99 90l-40 -45v0v0v1v-1z" />
    <glyph glyph-name="ecaron" unicode="&#x11b;" horiz-adv-x="576" 
d="M54 265q0 -60 16 -111t49 -88t84 -58t121 -21q55 0 99 10t61 19l-13 80q-17 -8 -51 -17t-84 -9q-89 0 -131 43t-48 126h365q1 8 1 18v16q0 137 -57 204t-165 67q-46 0 -90 -17t-78 -52t-54 -88t-20 -124v0zM420 317h-264q3 28 13 55t27 47t42 33t58 13q58 0 91 -41
t32 -105v0zM156 746l139 -146l139 146l-40 45l-99 -90l-99 90l-40 -45v0v0v1v-1z" />
    <glyph glyph-name="Gcircumflex" unicode="&#x11c;" horiz-adv-x="692" 
d="M523 349v-264q-13 -4 -43 -9t-73 -5q-60 0 -105 20t-75 57t-45 89t-15 116q0 66 17 119t48 90t76 56t99 19q51 0 100 -13t79 -32l32 83q-6 4 -23 12t-44 16t-64 14t-85 6q-71 0 -133 -25t-108 -72t-73 -116t-27 -158t24 -158t68 -116t105 -72t136 -25q37 0 73 4t66 9
t53 10t35 9v332h-99v0zM386 947l-139 -146l40 -45l99 90l99 -90l40 45l-139 146v0v0v1v-1z" />
    <glyph glyph-name="gcircumflex" unicode="&#x11d;" horiz-adv-x="595" 
d="M418 53v-23q0 -74 -37 -108t-122 -34q-45 0 -86 9t-70 20l-17 -83q33 -11 78 -19t95 -8q129 0 193 55t64 178v475q-34 8 -84 18t-117 10q-60 0 -108 -20t-81 -55t-50 -84t-17 -107q0 -67 18 -115t50 -80t74 -47t90 -15q47 0 82 13t47 21v0zM417 448v-311q-18 -14 -50 -25
t-70 -11q-28 0 -54 10t-46 32t-32 55t-12 79q0 83 41 133t118 50q41 0 65 -4t38 -8v0h2zM312 787l-139 -146l40 -45l99 90l99 -90l40 45l-139 146v0v0v1v-1z" />
    <glyph glyph-name="Gbreve" unicode="&#x11e;" horiz-adv-x="692" 
d="M523 349v-264q-13 -4 -43 -9t-73 -5q-60 0 -105 20t-75 57t-45 89t-15 116q0 66 17 119t48 90t76 56t99 19q51 0 100 -13t79 -32l32 83q-6 4 -23 12t-44 16t-64 14t-85 6q-71 0 -133 -25t-108 -72t-73 -116t-27 -158t24 -158t68 -116t105 -72t136 -25q37 0 73 4t66 9
t53 10t35 9v332h-99v0zM386 784q29 0 54 10t44 28t29 45t9 61h-61q-1 -11 -5 -24t-12 -24t-22 -18t-36 -7t-36 7t-22 18t-12 24t-5 24h-61q-1 -34 9 -61t29 -45t44 -28t54 -10v0v1v-1z" />
    <glyph glyph-name="gbreve" unicode="&#x11f;" horiz-adv-x="595" 
d="M418 53v-23q0 -74 -37 -108t-122 -34q-45 0 -86 9t-70 20l-17 -83q33 -11 78 -19t95 -8q129 0 193 55t64 178v475q-34 8 -84 18t-117 10q-60 0 -108 -20t-81 -55t-50 -84t-17 -107q0 -67 18 -115t50 -80t74 -47t90 -15q47 0 82 13t47 21v0zM417 448v-311q-18 -14 -50 -25
t-70 -11q-28 0 -54 10t-46 32t-32 55t-12 79q0 83 41 133t118 50q41 0 65 -4t38 -8v0h2zM312 625q29 0 54 10t44 28t29 45t9 61h-61q-1 -11 -5 -24t-12 -24t-22 -18t-36 -7t-36 7t-22 18t-12 24t-5 24h-61q-1 -34 9 -61t29 -45t44 -28t54 -10v0v1v-1z" />
    <glyph glyph-name="Gdotaccent" unicode="&#x120;" horiz-adv-x="692" 
d="M523 349v-264q-13 -4 -43 -9t-73 -5q-60 0 -105 20t-75 57t-45 89t-15 116q0 66 17 119t48 90t76 56t99 19q51 0 100 -13t79 -32l32 83q-6 4 -23 12t-44 16t-64 14t-85 6q-71 0 -133 -25t-108 -72t-73 -116t-27 -158t24 -158t68 -116t105 -72t136 -25q37 0 73 4t66 9
t53 10t35 9v332h-99v0zM386 788q26 0 44 17t18 46t-18 46t-44 17t-44 -17t-18 -46t18 -46t44 -17v0v1v-1z" />
    <glyph glyph-name="gdotaccent" unicode="&#x121;" horiz-adv-x="595" 
d="M418 53v-23q0 -74 -37 -108t-122 -34q-45 0 -86 9t-70 20l-17 -83q33 -11 78 -19t95 -8q129 0 193 55t64 178v475q-34 8 -84 18t-117 10q-60 0 -108 -20t-81 -55t-50 -84t-17 -107q0 -67 18 -115t50 -80t74 -47t90 -15q47 0 82 13t47 21v0zM417 448v-311q-18 -14 -50 -25
t-70 -11q-28 0 -54 10t-46 32t-32 55t-12 79q0 83 41 133t118 50q41 0 65 -4t38 -8v0h2zM312 629q26 0 44 17t18 46t-18 46t-44 17t-44 -17t-18 -46t18 -46t44 -17v0v1v-1z" />
    <glyph glyph-name="uni0122" unicode="&#x122;" horiz-adv-x="692" 
d="M523 349v-264q-13 -4 -43 -9t-73 -5q-60 0 -105 20t-75 57t-45 89t-15 116q0 66 17 119t48 90t76 56t99 19q51 0 100 -13t79 -32l32 83q-6 4 -23 12t-44 16t-64 14t-85 6q-71 0 -133 -25t-108 -72t-73 -116t-27 -158t24 -158t68 -116t105 -72t136 -25q37 0 73 4t66 9
t53 10t35 9v332h-99v0zM344 -51v-13q0 -23 -5 -36t-13 -20t-21 -9t-28 -2v-57q3 -2 14 -3t24 -1q25 0 47 7t38 21t26 37t10 56v10t-1 12h-91v0v0v1v-3z" />
    <glyph glyph-name="uni0123" unicode="&#x123;" horiz-adv-x="595" 
d="M418 53v-23q0 -74 -37 -108t-122 -34q-45 0 -86 9t-70 20l-17 -83q33 -11 78 -19t95 -8q129 0 193 55t64 178v475q-34 8 -84 18t-117 10q-60 0 -108 -20t-81 -55t-50 -84t-17 -107q0 -67 18 -115t50 -80t74 -47t90 -15q47 0 82 13t47 21v0zM417 448v-311q-18 -14 -50 -25
t-70 -11q-28 0 -54 10t-46 32t-32 55t-12 79q0 83 41 133t118 50q41 0 65 -4t38 -8v0h2zM357 624v13q0 28 4 46t12 31t19 22t23 18l-34 46q-20 -5 -40 -16t-37 -29t-27 -45t-10 -64v-10t1 -12h91v0v0v1z" />
    <glyph glyph-name="Hcircumflex" unicode="&#x124;" horiz-adv-x="726" 
d="M537 710v-296h-347v296h-99v-710h99v328h347v-328h99v710h-99v0zM362 947l-139 -146l40 -45l99 90l99 -90l40 45l-139 146v0v0v1v-1z" />
    <glyph glyph-name="hcircumflex" unicode="&#x125;" horiz-adv-x="588" 
d="M84 0h95v442q5 2 17 5t27 6t31 5t31 2q38 0 64 -10t41 -32t22 -57t7 -84v-279h95v299q0 54 -10 99t-35 77t-67 50t-106 18q-30 0 -60 -6t-57 -16v272l-95 -16v-778v0v3zM183 985l-126 -97l30 -46l96 62l96 -62l30 46l-126 97v0v1v-1z" />
    <glyph glyph-name="Hbar" unicode="&#x126;" horiz-adv-x="752" 
d="M22 608v-73h82v-536h99v328h347v-328h99v536h82v73h-82v101h-99v-101h-347v101h-99v-101h-82v0zM550 536v-122h-347v122h347v0v1v-1z" />
    <glyph glyph-name="hbar" unicode="&#x127;" horiz-adv-x="588" 
d="M84 0h95v438q5 2 17 5t27 6t31 5t31 2q38 0 64 -10t41 -32t22 -57t7 -84v-274h95v295q0 54 -10 99t-35 77t-67 50t-106 18q-30 0 -60 -6t-57 -16v111h181v71h-181v95l-95 -16v-79h-76v-71h76v-629v0v0v1v1z" />
    <glyph glyph-name="Itilde" unicode="&#x128;" horiz-adv-x="279" 
d="M90 710v-710h99v710h-99v0zM310 888l-49 25q-8 -16 -23 -30t-32 -14q-11 0 -23 4t-29 12q-16 8 -34 15t-38 7q-22 0 -40 -10t-31 -24t-22 -30t-13 -28l49 -25q8 16 23 30t32 14q11 0 23 -4t29 -12q16 -8 34 -15t38 -7q22 0 40 10t31 24t22 30t14 28v0v1z" />
    <glyph glyph-name="itilde" unicode="&#x129;" horiz-adv-x="263" 
d="M179 0v532h-95v-532h95v0zM302 728l-49 25q-8 -16 -23 -30t-32 -14q-11 0 -23 4t-29 12q-16 8 -34 15t-38 7q-22 0 -40 -10t-31 -24t-22 -30t-13 -28l49 -25q8 16 23 30t32 14q11 0 23 -4t29 -12q16 -8 34 -15t38 -7q22 0 40 10t31 24t22 30t14 28v0v1z" />
    <glyph glyph-name="Imacron" unicode="&#x12a;" horiz-adv-x="279" 
d="M90 710v-710h99v710h-99v0zM-4 888v-74h291v74h-291v0v1v-1z" />
    <glyph glyph-name="imacron" unicode="&#x12b;" horiz-adv-x="263" 
d="M179 0v532h-95v-532h95v0zM-12 728v-74h291v74h-291v0v1v-1z" />
    <glyph glyph-name="Ibreve" unicode="&#x12c;" horiz-adv-x="279" 
d="M90 710v-710h99v710h-99v0zM141 784q29 0 54 10t44 28t29 45t9 61h-61q-1 -11 -5 -24t-12 -24t-22 -18t-36 -7t-36 7t-22 18t-12 24t-5 24h-61q-1 -34 9 -61t29 -45t44 -28t54 -10v0v1v-1z" />
    <glyph glyph-name="ibreve" unicode="&#x12d;" horiz-adv-x="263" 
d="M179 0v532h-95v-532h95v0zM133 625q29 0 54 10t44 28t29 45t9 61h-61q-1 -11 -5 -24t-12 -24t-22 -18t-36 -7t-36 7t-22 18t-12 24t-5 24h-61q-1 -34 9 -61t29 -45t44 -28t54 -10v0v1v-1z" />
    <glyph glyph-name="Iogonek" unicode="&#x12e;" horiz-adv-x="279" 
d="M90 710v-712q-5 -4 -12 -11l-15 -15q-17 -18 -30 -40t-13 -46q0 -36 27 -57t85 -21q43 0 68 11l-7 62q-11 -4 -23 -6t-19 -2q-41 0 -41 30q0 14 9 26t23 28q12 13 24 22t23 17v710h-99v0v0v1v3z" />
    <glyph glyph-name="iogonek" unicode="&#x12f;" horiz-adv-x="263" 
d="M179 0v532h-95v-532q-6 -5 -13 -12t-15 -16q-17 -19 -30 -41t-13 -46q0 -36 27 -57t85 -21q43 0 68 11l-7 62q-11 -4 -23 -6t-19 -2q-41 0 -41 30q0 14 9 26t23 28q20 22 45 40v0zM131 629q26 0 44 17t18 46t-18 46t-44 17t-44 -17t-18 -46t18 -46t44 -17v0v1v-1z" />
    <glyph glyph-name="Idotaccent" unicode="&#x130;" horiz-adv-x="279" 
d="M90 710v-710h99v710h-99v0zM141 788q26 0 44 17t18 46t-18 46t-44 17t-44 -17t-18 -46t18 -46t44 -17v0v1v-1z" />
    <glyph glyph-name="dotlessi" unicode="&#x131;" horiz-adv-x="263" 
d="M179 0v532h-95v-532h95v0v1v-1z" />
    <glyph glyph-name="IJ" unicode="&#x132;" horiz-adv-x="790" 
d="M90 710v-710h99v710h-99v0zM711 228v481h-99v-472q0 -91 -34 -128t-108 -37q-51 0 -85 17t-56 32l-39 -79q10 -9 27 -19t41 -19t53 -15t64 -6q69 0 115 19t73 52t38 77t11 95v0v0v1z" />
    <glyph glyph-name="ij" unicode="&#x133;" horiz-adv-x="526" 
d="M179 0v532h-95v-532h95v0zM131 629q26 0 44 17t18 46t-18 46t-44 17t-44 -17t-18 -46t18 -46t44 -17v0zM260 -192q89 0 136 50t47 152v522h-95v-523q0 -58 -21 -88t-70 -30q-11 0 -24 2t-23 5l-12 -78q13 -5 32 -8t31 -3v0zM394 629q26 0 44 17t18 46t-18 46t-44 17
t-44 -17t-18 -46t18 -46t44 -17v0v1v-1z" />
    <glyph glyph-name="Jcircumflex" unicode="&#x134;" horiz-adv-x="516" 
d="M431 228v481h-99v-472q0 -91 -34 -128t-108 -37q-51 0 -85 17t-56 32l-39 -79q10 -9 27 -19t41 -19t53 -15t64 -6q69 0 115 19t73 52t38 77t11 95v0zM381 947l-139 -146l40 -45l99 90l99 -90l40 45l-139 146v0v0v1v-1z" />
    <glyph glyph-name="jcircumflex" unicode="&#x135;" horiz-adv-x="263" 
d="M-3 -189q89 0 136 50t47 152v520h-95v-521q0 -58 -21 -88t-70 -30q-11 0 -24 2t-23 5l-12 -78q13 -5 32 -8t31 -3v0zM133 787l-139 -146l40 -45l99 90l99 -90l40 45l-139 146v0v0v1v-1z" />
    <glyph glyph-name="uni0136" unicode="&#x136;" horiz-adv-x="648" 
d="M615 710h-120q-26 -30 -63 -69t-79 -82t-85 -85t-79 -76v313h-99v-710h99v337q43 -27 89 -65t91 -83t85 -94t71 -97h117q-28 48 -69 101t-88 104t-96 96t-93 76q38 37 81 80t87 88t84 87t72 77v0zM298 -51v-13q0 -23 -5 -36t-13 -20t-21 -9t-28 -2v-57q3 -2 14 -3t24 -1
q25 0 47 7t38 21t26 37t10 56v10t-1 12h-91v0v0v1v-3z" />
    <glyph glyph-name="uni0137" unicode="&#x137;" horiz-adv-x="538" 
d="M276 293q27 28 57 59l60 62t58 62t52 57h-112q-18 -22 -44 -50t-55 -59t-59 -61l-55 -55v485l-95 -16v-778h95v256q29 -19 61 -48t63 -63t59 -71t50 -73h112q-20 36 -50 77t-63 81t-67 75t-65 59v0zM241 -51v-13q0 -23 -5 -36t-13 -20t-21 -9t-28 -2v-57q3 -2 14 -3
t24 -1q25 0 47 7t38 21t26 37t10 56v10t-1 12h-91v0v0v1v-3z" />
    <glyph glyph-name="kgreenlandic" unicode="&#x138;" horiz-adv-x="553" 
d="M279 290l58 58t64 65t62 64t53 56h-111q-17 -19 -45 -48t-60 -61t-64 -63t-57 -55v228h-95v-532h95v252q30 -19 64 -48t67 -63t63 -70t53 -71h113q-22 36 -53 77t-66 81t-72 74t-69 57v0v1v-2z" />
    <glyph glyph-name="Lacute" unicode="&#x139;" horiz-adv-x="535" 
d="M517 86h-328v624h-99v-710h427v86v0v0zM290 894l-61 60l-131 -158l48 -43l144 140v0v0v1v0z" />
    <glyph glyph-name="lacute" unicode="&#x13a;" horiz-adv-x="283" 
d="M244 -10l13 80q-23 3 -38 8t-24 14t-13 24t-4 39v640l-95 -16v-639q0 -76 37 -112t125 -38v0h-1zM257 900l-29 75l-165 -80l22 -56l172 61v0v0v1v-1z" />
    <glyph glyph-name="uni013B" unicode="&#x13b;" horiz-adv-x="535" 
d="M517 86h-328v624h-99v-710h427v86v0v0zM261 -51v-13q0 -23 -5 -36t-13 -20t-21 -9t-28 -2v-57q3 -2 14 -3t24 -1q25 0 47 7t38 21t26 37t10 56v10t-1 12h-91v0v0v1v-3z" />
    <glyph glyph-name="uni013C" unicode="&#x13c;" horiz-adv-x="283" 
d="M244 -10l13 80q-23 3 -38 8t-24 14t-13 24t-4 39v640l-95 -16v-639q0 -76 37 -112t125 -38v0h-1zM109 -51v-13q0 -23 -5 -36t-13 -20t-21 -9t-28 -2v-57q3 -2 14 -3t24 -1q25 0 47 7t38 21t26 37t10 56v10t-1 12h-91v0v0v1v-3z" />
    <glyph glyph-name="Lcaron" unicode="&#x13d;" horiz-adv-x="535" 
d="M517 86h-328v624h-99v-710h427v86v0v0zM373 712h-91v-228h64l28 228v0v1z" />
    <glyph glyph-name="lcaron" unicode="&#x13e;" horiz-adv-x="294" 
d="M244 -10l13 80q-23 3 -38 8t-24 14t-13 24t-4 39v640l-95 -16v-639q0 -76 37 -112t125 -38v0h-1zM340 795h-91v-228h64l28 228v0v1z" />
    <glyph glyph-name="Ldot" unicode="&#x13f;" horiz-adv-x="535" 
d="M517 86h-328v624h-99v-710h427v86v0v0zM407 310q26 0 44 17t18 46t-18 46t-44 17t-44 -17t-18 -46t18 -46t44 -17v0v1v-1z" />
    <glyph glyph-name="ldot" unicode="&#x140;" horiz-adv-x="381" 
d="M244 -10l13 80q-23 3 -38 8t-24 14t-13 24t-4 39v640l-95 -16v-639q0 -76 37 -112t125 -38v0h-1zM320 310q26 0 44 17t18 46t-18 46t-44 17t-44 -17t-18 -46t18 -46t44 -17v0v1v-1z" />
    <glyph glyph-name="Lslash" unicode="&#x141;" horiz-adv-x="553" 
d="M536 86h-328v258l152 79l-33 68l-119 -61v281h-99v-332l-109 -55l34 -68l75 38v-293h427v86v0v0v1v-2z" />
    <glyph glyph-name="lslash" unicode="&#x142;" horiz-adv-x="297" 
d="M258 -10l13 80q-23 3 -38 8t-24 14t-13 24t-4 39v243l106 55l-32 64l-75 -39v317l-95 -16v-350l-91 -46l33 -64l58 30v-209q0 -76 37 -112t125 -38v0v0v1v-1z" />
    <glyph glyph-name="Nacute" unicode="&#x143;" horiz-adv-x="749" 
d="M576 0h83v710h-97v-525q-33 54 -81 124t-102 142t-109 140t-103 119h-79v-710h97v554q29 -33 63 -76t70 -92t72 -101t70 -103t63 -98t52 -85v0zM499 894l-61 60l-131 -158l48 -43l144 140v0v0v1v0z" />
    <glyph glyph-name="nacute" unicode="&#x144;" horiz-adv-x="591" 
d="M84 517v-517h95v450q5 1 17 3t27 4t31 3t31 1q38 0 64 -10t41 -32t22 -57t7 -84v-279h95v299q0 54 -10 99t-35 77t-67 50t-106 18q-71 0 -125 -9t-87 -17v0v1zM423 734l-61 60l-131 -158l48 -43l144 140v0v0v1v0z" />
    <glyph glyph-name="uni0145" unicode="&#x145;" horiz-adv-x="749" 
d="M576 0h83v710h-97v-525q-33 54 -81 124t-102 142t-109 140t-103 119h-79v-710h97v554q29 -33 63 -76t70 -92t72 -101t70 -103t63 -98t52 -85v0zM333 -51v-13q0 -23 -5 -36t-13 -20t-21 -9t-28 -2v-57q3 -2 14 -3t24 -1q25 0 47 7t38 21t26 37t10 56v10t-1 12h-91v0v0v1
v-3z" />
    <glyph glyph-name="uni0146" unicode="&#x146;" horiz-adv-x="591" 
d="M84 517v-517h95v450q5 1 17 3t27 4t31 3t31 1q38 0 64 -10t41 -32t22 -57t7 -84v-279h95v299q0 54 -10 99t-35 77t-67 50t-106 18q-71 0 -125 -9t-87 -17v0v1zM257 -51v-13q0 -23 -5 -36t-13 -20t-21 -9t-28 -2v-57q3 -2 14 -3t24 -1q25 0 47 7t38 21t26 37t10 56v10
t-1 12h-91v0v0v1v-3z" />
    <glyph glyph-name="Ncaron" unicode="&#x147;" horiz-adv-x="749" 
d="M576 0h83v710h-97v-525q-33 54 -81 124t-102 142t-109 140t-103 119h-79v-710h97v554q29 -33 63 -76t70 -92t72 -101t70 -103t63 -98t52 -85v0zM236 906l139 -146l139 146l-40 45l-99 -90l-99 90l-40 -45v0v0v1v-1z" />
    <glyph glyph-name="ncaron" unicode="&#x148;" horiz-adv-x="591" 
d="M84 517v-517h95v450q5 1 17 3t27 4t31 3t31 1q38 0 64 -10t41 -32t22 -57t7 -84v-279h95v299q0 54 -10 99t-35 77t-67 50t-106 18q-71 0 -125 -9t-87 -17v0v1zM160 746l139 -146l139 146l-40 45l-99 -90l-99 90l-40 -45v0v0v1v-1z" />
    <glyph glyph-name="napostrophe" unicode="&#x149;" horiz-adv-x="591" 
d="M84 517v-517h95v450q5 1 17 3t27 4t31 3t31 1q38 0 64 -10t41 -32t22 -57t7 -84v-279h95v299q0 54 -10 99t-35 77t-67 50t-106 18q-71 0 -125 -9t-87 -17v0v1zM143 795h-98q1 -6 1 -17v-21q0 -39 -9 -76t-28 -76l69 -24q25 39 42 83t21 96q1 10 1 18v19v0v0v1z" />
    <glyph glyph-name="Eng" unicode="&#x14a;" horiz-adv-x="749" 
d="M562 25v-42q0 -46 -13 -71t-51 -25q-8 0 -22 1t-22 4l-9 -75q11 -3 30 -6t33 -3q46 0 76 12t46 36t22 60t6 83v710h-97v-525q-33 54 -81 124t-102 142t-109 140t-103 119h-79v-710h97v554q41 -46 91 -113t101 -140t99 -146t84 -131v0v0v1z" />
    <glyph glyph-name="eng" unicode="&#x14b;" horiz-adv-x="591" 
d="M84 517v-517h95v450q5 1 17 3t27 4t31 3t31 1q38 0 64 -10t41 -32t22 -57t7 -84v-296q0 -46 -15 -71t-53 -25q-8 0 -22 1t-22 4l-9 -75q11 -3 30 -6t33 -3q46 0 76 12t47 36t24 60t7 83v299q0 54 -10 99t-35 77t-67 50t-106 18q-71 0 -125 -9t-87 -17v0v0v1z" />
    <glyph glyph-name="Omacron" unicode="&#x14c;" horiz-adv-x="800" 
d="M61 355q0 -91 27 -161t74 -117t109 -71t132 -24q69 0 130 24t107 71t73 117t27 161t-27 161t-73 117t-107 71t-130 24q-70 0 -132 -24t-109 -71t-74 -117t-27 -161v0zM166 355q0 64 16 117t46 90t74 57t98 20t97 -20t73 -57t46 -90t16 -117t-16 -117t-46 -90t-73 -57
t-97 -20t-98 20t-74 57t-46 90t-16 117v0zM255 888v-74h291v74h-291v0v1v-1z" />
    <glyph glyph-name="omacron" unicode="&#x14d;" horiz-adv-x="608" 
d="M554 266q0 62 -18 114t-51 89t-79 57t-100 20t-100 -20t-79 -57t-51 -89t-18 -114q0 -64 18 -115t51 -88t79 -57t100 -20t100 20t79 57t51 88t18 115v0zM455 266q0 -90 -40 -143t-110 -53t-110 53t-40 143t40 143t110 53t110 -53t40 -143v0zM159 728v-74h291v74h-291v0v1
v-1z" />
    <glyph glyph-name="Obreve" unicode="&#x14e;" horiz-adv-x="800" 
d="M61 355q0 -91 27 -161t74 -117t109 -71t132 -24q69 0 130 24t107 71t73 117t27 161t-27 161t-73 117t-107 71t-130 24q-70 0 -132 -24t-109 -71t-74 -117t-27 -161v0zM166 355q0 64 16 117t46 90t74 57t98 20t97 -20t73 -57t46 -90t16 -117t-16 -117t-46 -90t-73 -57
t-97 -20t-98 20t-74 57t-46 90t-16 117v0zM400 784q29 0 54 10t44 28t29 45t9 61h-61q-1 -11 -5 -24t-12 -24t-22 -18t-36 -7t-36 7t-22 18t-12 24t-5 24h-61q-1 -34 9 -61t29 -45t44 -28t54 -10v0v1v-1z" />
    <glyph glyph-name="obreve" unicode="&#x14f;" horiz-adv-x="608" 
d="M554 266q0 62 -18 114t-51 89t-79 57t-100 20t-100 -20t-79 -57t-51 -89t-18 -114q0 -64 18 -115t51 -88t79 -57t100 -20t100 20t79 57t51 88t18 115v0zM455 266q0 -90 -40 -143t-110 -53t-110 53t-40 143t40 143t110 53t110 -53t40 -143v0zM304 625q29 0 54 10t44 28
t29 45t9 61h-61q-1 -11 -5 -24t-12 -24t-22 -18t-36 -7t-36 7t-22 18t-12 24t-5 24h-61q-1 -34 9 -61t29 -45t44 -28t54 -10v0v1v-1z" />
    <glyph glyph-name="Ohungarumlaut" unicode="&#x150;" horiz-adv-x="800" 
d="M61 355q0 -91 27 -161t74 -117t109 -71t132 -24q69 0 130 24t107 71t73 117t27 161t-27 161t-73 117t-107 71t-130 24q-70 0 -132 -24t-109 -71t-74 -117t-27 -161v0zM166 355q0 64 16 117t46 90t74 57t98 20t97 -20t73 -57t46 -90t16 -117t-16 -117t-46 -90t-73 -57
t-97 -20t-98 20t-74 57t-46 90t-16 117v0zM446 897l-57 57l-118 -164l49 -37l126 143v1zM615 897l-57 57l-118 -164l49 -37l126 143v0v1v0z" />
    <glyph glyph-name="ohungarumlaut" unicode="&#x151;" horiz-adv-x="608" 
d="M554 266q0 62 -18 114t-51 89t-79 57t-100 20t-100 -20t-79 -57t-51 -89t-18 -114q0 -64 18 -115t51 -88t79 -57t100 -20t100 20t79 57t51 88t18 115v0zM455 266q0 -90 -40 -143t-110 -53t-110 53t-40 143t40 143t110 53t110 -53t40 -143v0zM350 737l-57 57l-118 -164
l49 -37l126 143v1zM519 737l-57 57l-118 -164l49 -37l126 143v0v1v0z" />
    <glyph glyph-name="OE" unicode="&#x152;" horiz-adv-x="1020" 
d="M167 355q0 64 19 115t55 86t88 54t116 19q23 0 46 -1t46 -4v-542q-9 -2 -21 -3q-11 -1 -28 -1h-41q-64 0 -116 19t-88 54t-55 86t-19 117v0zM448 -7q24 0 53 2t55 5h426v83h-344v249h282v81h-282v214h318v83h-400q-26 3 -55 5t-53 2q-83 0 -154 -23t-123 -68t-82 -113
t-30 -159t29 -159t81 -113t123 -68t154 -23v0v0v1z" />
    <glyph glyph-name="oe" unicode="&#x153;" horiz-adv-x="973" 
d="M720 -12q55 0 99 10t61 19l-13 80q-17 -8 -51 -17t-84 -9q-88 0 -130 44t-48 126h365v9v11v14q0 136 -58 204t-164 68q-55 0 -107 -28t-86 -85q-32 52 -83 82t-115 30q-54 0 -100 -20t-79 -57t-51 -89t-18 -114q0 -64 18 -115t51 -88t79 -57t100 -20q64 0 114 29t83 84
q30 -52 84 -82t135 -30v0zM455 266q0 -90 -40 -143t-110 -53t-110 53t-40 143t40 143t110 53t110 -53t40 -143v0zM817 317h-264q3 28 13 55t27 47t42 33t58 13q58 0 91 -41t32 -105v0v0v1z" />
    <glyph glyph-name="Racute" unicode="&#x154;" horiz-adv-x="648" 
d="M437 297q73 25 110 75t37 121q0 112 -78 168t-228 56q-43 0 -95 -4t-94 -14v-699h99v278h89h28t27 1q19 -24 43 -56t49 -68t49 -76t44 -79h109q-18 41 -44 85t-53 84t-52 73t-41 53v0zM287 630q40 0 75 -6t61 -21t41 -42t15 -67q0 -43 -15 -69t-43 -40t-69 -19t-92 -5
h-71v267q34 3 98 3v0v-1zM427 894l-61 60l-131 -158l48 -43l144 140v0v0v1v0z" />
    <glyph glyph-name="racute" unicode="&#x155;" horiz-adv-x="399" 
d="M281 544q-62 0 -112 -11t-84 -23v-510h95v448q8 2 34 8t53 6q41 0 67 -6t37 -10l16 83q-6 2 -19 5t-28 6t-31 5t-28 2v0v-3zM361 734l-61 60l-131 -158l48 -43l144 140v0v0v1v0z" />
    <glyph glyph-name="uni0156" unicode="&#x156;" horiz-adv-x="648" 
d="M437 297q73 25 110 75t37 121q0 112 -78 168t-228 56q-43 0 -95 -4t-94 -14v-699h99v278h89h28t27 1q19 -24 43 -56t49 -68t49 -76t44 -79h109q-18 41 -44 85t-53 84t-52 73t-41 53v0zM287 630q40 0 75 -6t61 -21t41 -42t15 -67q0 -43 -15 -69t-43 -40t-69 -19t-92 -5
h-71v267q34 3 98 3v0v-1zM295 -51v-13q0 -23 -5 -36t-13 -20t-21 -9t-28 -2v-57q3 -2 14 -3t24 -1q25 0 47 7t38 21t26 37t10 56v10t-1 12h-91v0v0v1v-3z" />
    <glyph glyph-name="uni0157" unicode="&#x157;" horiz-adv-x="399" 
d="M281 544q-62 0 -112 -11t-84 -23v-510h95v448q8 2 34 8t53 6q41 0 67 -6t37 -10l16 83q-6 2 -19 5t-28 6t-31 5t-28 2v0v-3zM88 -51v-13q0 -23 -5 -36t-13 -20t-21 -9t-28 -2v-57q3 -2 14 -3t24 -1q25 0 47 7t38 21t26 37t10 56v10t-1 12h-91v0v0v1v-3z" />
    <glyph glyph-name="Rcaron" unicode="&#x158;" horiz-adv-x="648" 
d="M437 297q73 25 110 75t37 121q0 112 -78 168t-228 56q-43 0 -95 -4t-94 -14v-699h99v278h89h28t27 1q19 -24 43 -56t49 -68t49 -76t44 -79h109q-18 41 -44 85t-53 84t-52 73t-41 53v0zM287 630q40 0 75 -6t61 -21t41 -42t15 -67q0 -43 -15 -69t-43 -40t-69 -19t-92 -5
h-71v267q34 3 98 3v0v-1zM164 906l139 -146l139 146l-40 45l-99 -90l-99 90l-40 -45v0v0v1v-1z" />
    <glyph glyph-name="rcaron" unicode="&#x159;" horiz-adv-x="399" 
d="M281 544q-62 0 -112 -11t-84 -23v-510h95v448q8 2 34 8t53 6q41 0 67 -6t37 -10l16 83q-6 2 -19 5t-28 6t-31 5t-28 2v0v-3zM97 746l139 -146l139 146l-40 45l-99 -90l-99 90l-40 -45v0v0v1v-1z" />
    <glyph glyph-name="Sacute" unicode="&#x15a;" horiz-adv-x="548" 
d="M255 71q-70 0 -118 16t-72 29l-30 -82q11 -6 31 -15t48 -17t63 -14t77 -6q124 0 192 50t68 143q0 50 -15 85t-43 61t-66 44t-84 36q-33 12 -60 24t-47 27t-31 34t-11 48q0 26 11 45t29 31t43 18t54 6q56 0 98 -13t64 -26l32 81q-25 16 -78 30t-117 14q-112 0 -176 -52
t-64 -145q0 -45 15 -77t41 -55t61 -40t74 -30q34 -12 64 -24t54 -29t38 -40t14 -56q0 -106 -156 -106v0zM409 894l-61 60l-131 -158l48 -43l144 140v0v0v1v0z" />
    <glyph glyph-name="sacute" unicode="&#x15b;" horiz-adv-x="460" 
d="M208 69q-59 0 -95 12t-52 18l-17 -82q14 -6 54 -18t111 -12q101 0 156 38t55 112q0 38 -11 64t-32 44t-51 32t-68 28q-29 10 -49 19t-34 20t-21 24t-7 30q0 34 30 50t70 16q46 0 79 -9t48 -17l17 82q-8 3 -23 7t-34 8t-42 7t-46 3q-90 0 -142 -41t-52 -112q0 -36 12 -61
t32 -42t48 -30t59 -25q64 -26 92 -46t28 -55q0 -34 -28 -49t-86 -15v0h-1zM358 734l-61 60l-131 -158l48 -43l144 140v0v0v1v0z" />
    <glyph glyph-name="Scircumflex" unicode="&#x15c;" horiz-adv-x="548" 
d="M255 71q-70 0 -118 16t-72 29l-30 -82q11 -6 31 -15t48 -17t63 -14t77 -6q124 0 192 50t68 143q0 50 -15 85t-43 61t-66 44t-84 36q-33 12 -60 24t-47 27t-31 34t-11 48q0 26 11 45t29 31t43 18t54 6q56 0 98 -13t64 -26l32 81q-25 16 -78 30t-117 14q-112 0 -176 -52
t-64 -145q0 -45 15 -77t41 -55t61 -40t74 -30q34 -12 64 -24t54 -29t38 -40t14 -56q0 -106 -156 -106v0zM285 947l-139 -146l40 -45l99 90l99 -90l40 45l-139 146v0v0v1v-1z" />
    <glyph glyph-name="scircumflex" unicode="&#x15d;" horiz-adv-x="460" 
d="M208 69q-59 0 -95 12t-52 18l-17 -82q14 -6 54 -18t111 -12q101 0 156 38t55 112q0 38 -11 64t-32 44t-51 32t-68 28q-29 10 -49 19t-34 20t-21 24t-7 30q0 34 30 50t70 16q46 0 79 -9t48 -17l17 82q-8 3 -23 7t-34 8t-42 7t-46 3q-90 0 -142 -41t-52 -112q0 -36 12 -61
t32 -42t48 -30t59 -25q64 -26 92 -46t28 -55q0 -34 -28 -49t-86 -15v0h-1zM234 787l-139 -146l40 -45l99 90l99 -90l40 45l-139 146v0v0v1v-1z" />
    <glyph glyph-name="Scedilla" unicode="&#x15e;" horiz-adv-x="548" 
d="M255 71q-70 0 -118 16t-72 29l-30 -82q10 -6 28 -14t44 -16t58 -14t71 -7q-7 -14 -13 -29t-10 -26l7 -3q20 -8 31 -16t11 -19q0 -24 -37 -24q-17 0 -31 3t-26 7l-11 -58q13 -5 35 -9t49 -4q30 0 50 7t32 18t17 24t5 24q0 33 -13 50t-43 31l11 25q102 10 157 59t55 132
q0 50 -15 85t-43 61t-66 44t-84 36q-33 12 -60 24t-47 27t-31 34t-11 48q0 26 11 45t29 31t43 18t54 6q56 0 98 -13t64 -26l32 81q-25 16 -78 30t-117 14q-112 0 -176 -52t-64 -145q0 -45 15 -77t41 -55t61 -40t74 -30q34 -12 64 -24t54 -29t38 -40t14 -56q0 -106 -156 -106
v0v0v1z" />
    <glyph glyph-name="scedilla" unicode="&#x15f;" horiz-adv-x="460" 
d="M208 69q-59 0 -95 12t-52 18l-17 -82q13 -6 49 -17t100 -13q-7 -14 -14 -30t-11 -28l7 -3q20 -8 31 -16t11 -19q0 -24 -37 -24q-17 0 -31 3t-26 7l-11 -58q13 -5 35 -9t49 -4q30 0 50 7t32 18t17 24t5 24q0 33 -13 50t-43 31q2 6 6 13t8 15q77 9 118 46t41 101
q0 38 -11 64t-33 44t-52 32t-67 28q-29 10 -49 20t-34 20t-21 23t-7 31q0 34 30 50t70 16q46 0 79 -9t48 -17l17 82q-8 3 -23 7t-34 8t-42 7t-46 3q-90 0 -142 -41t-52 -112q0 -36 12 -61t32 -42t48 -30t59 -25q64 -26 92 -46t28 -55q0 -34 -28 -49t-86 -15v0v0v1h3z" />
    <glyph glyph-name="Scaron" unicode="&#x160;" horiz-adv-x="548" 
d="M255 71q-70 0 -118 16t-72 29l-30 -82q11 -6 31 -15t48 -17t63 -14t77 -6q124 0 192 50t68 143q0 50 -15 85t-43 61t-66 44t-84 36q-33 12 -60 24t-47 27t-31 34t-11 48q0 26 11 45t29 31t43 18t54 6q56 0 98 -13t64 -26l32 81q-25 16 -78 30t-117 14q-112 0 -176 -52
t-64 -145q0 -45 15 -77t41 -55t61 -40t74 -30q34 -12 64 -24t54 -29t38 -40t14 -56q0 -106 -156 -106v0zM145 906l139 -146l139 146l-40 45l-99 -90l-99 90l-40 -45v0v0v1v-1z" />
    <glyph glyph-name="scaron" unicode="&#x161;" horiz-adv-x="460" 
d="M208 69q-59 0 -95 12t-52 18l-17 -82q14 -6 54 -18t111 -12q101 0 156 38t55 112q0 38 -11 64t-32 44t-51 32t-68 28q-29 10 -49 19t-34 20t-21 24t-7 30q0 34 30 50t70 16q46 0 79 -9t48 -17l17 82q-8 3 -23 7t-34 8t-42 7t-46 3q-90 0 -142 -41t-52 -112q0 -36 12 -61
t32 -42t48 -30t59 -25q64 -26 92 -46t28 -55q0 -34 -28 -49t-86 -15v0h-1zM91 746l139 -146l139 146l-40 45l-99 -90l-99 90l-40 -45v0v0v1v-1z" />
    <glyph glyph-name="uni0162" unicode="&#x162;" horiz-adv-x="582" 
d="M303 -38q3 8 8 18l10 20h19v624h223v86h-546v-86h223v-624h14q-8 -15 -17 -35t-13 -34l7 -3q20 -8 31 -16t11 -19q0 -24 -37 -24q-17 0 -31 3t-26 7l-11 -58q13 -5 35 -9t49 -4q30 0 50 7t32 18t17 24t5 24q0 33 -13 50t-43 31v0v0v1z" />
    <glyph glyph-name="uni0163" unicode="&#x163;" horiz-adv-x="415" 
d="M271 -38q2 6 6 13t8 15q39 2 68 12t42 16l-18 79q-10 -4 -36 -14t-69 -10q-25 0 -43 6t-30 21t-18 41t-6 66v246h202v80h-202v165l-95 -16v-475q0 -48 7 -85t23 -64t43 -43t68 -21q-8 -15 -15 -32t-11 -30l7 -3q20 -8 31 -16t11 -19q0 -24 -37 -24q-17 0 -31 3t-26 7
l-11 -58q13 -5 35 -9t49 -4q30 0 50 7t32 18t17 24t5 24q0 33 -13 50t-43 31v0v0v1v-2z" />
    <glyph glyph-name="Tcaron" unicode="&#x164;" horiz-adv-x="582" 
d="M564 710h-546v-86h223v-624h99v624h223v86v0h1zM152 906l139 -146l139 146l-40 45l-99 -90l-99 90l-40 -45v0v0v1v-1z" />
    <glyph glyph-name="tcaron" unicode="&#x165;" horiz-adv-x="415" 
d="M173 532v165l-95 -16v-475q0 -53 9 -93t31 -68t57 -42t89 -14q46 0 82 11t50 18l-18 79q-10 -4 -36 -14t-69 -10q-25 0 -43 6t-30 21t-18 41t-6 66v246h202v80h-202v0zM336 795h-91v-199h64l28 199v0v1z" />
    <glyph glyph-name="Tbar" unicode="&#x166;" horiz-adv-x="582" 
d="M564 710h-546v-86h223v-221h-133v-77h133v-326h99v326h133v77h-133v221h223v86v0v0v1z" />
    <glyph glyph-name="tbar" unicode="&#x167;" horiz-adv-x="415" 
d="M173 532v165l-95 -16v-475q0 -53 9 -93t31 -68t57 -42t89 -14q46 0 82 11t50 18l-18 79q-10 -4 -36 -14t-69 -10q-25 0 -43 6t-30 21t-18 41t-6 66v35h202v72h-202v139h202v80h-202v0v0v1z" />
    <glyph glyph-name="Utilde" unicode="&#x168;" horiz-adv-x="708" 
d="M354 -15q70 0 121 22t84 59t49 88t16 110v445h-99v-434q0 -53 -12 -91t-35 -63t-54 -37t-69 -12q-76 0 -123 48t-47 154v434h-99v-445q0 -59 16 -110t49 -88t84 -59t121 -22v0zM523 888l-49 25q-8 -16 -23 -30t-32 -14q-11 0 -23 4t-29 12q-16 8 -34 15t-38 7
q-22 0 -40 -10t-31 -24t-22 -30t-13 -28l49 -25q8 16 23 30t32 14q11 0 23 -4t29 -12q16 -8 34 -15t38 -7q22 0 40 10t31 24t22 30t14 28v0v1z" />
    <glyph glyph-name="utilde" unicode="&#x169;" horiz-adv-x="591" 
d="M508 15v517h-95v-450q-5 -2 -17 -4t-26 -4t-30 -3t-31 -1q-73 0 -104 42t-31 139v279h-95v-299q0 -54 11 -99t37 -78t68 -51t103 -18q71 0 125 9t87 17v0zM464 728l-49 25q-8 -16 -23 -30t-32 -14q-11 0 -23 4t-29 12q-16 8 -34 15t-38 7q-22 0 -40 -10t-31 -24t-22 -30
t-13 -28l49 -25q8 16 23 30t32 14q11 0 23 -4t29 -12q16 -8 34 -15t38 -7q22 0 40 10t31 24t22 30t14 28v0v1z" />
    <glyph glyph-name="Umacron" unicode="&#x16a;" horiz-adv-x="708" 
d="M354 -15q70 0 121 22t84 59t49 88t16 110v445h-99v-434q0 -53 -12 -91t-35 -63t-54 -37t-69 -12q-76 0 -123 48t-47 154v434h-99v-445q0 -59 16 -110t49 -88t84 -59t121 -22v0zM209 888v-74h291v74h-291v0v1v-1z" />
    <glyph glyph-name="umacron" unicode="&#x16b;" horiz-adv-x="591" 
d="M508 15v517h-95v-450q-5 -2 -17 -4t-26 -4t-30 -3t-31 -1q-73 0 -104 42t-31 139v279h-95v-299q0 -54 11 -99t37 -78t68 -51t103 -18q71 0 125 9t87 17v0zM147 728v-74h291v74h-291v0v1v-1z" />
    <glyph glyph-name="Ubreve" unicode="&#x16c;" horiz-adv-x="708" 
d="M354 -15q70 0 121 22t84 59t49 88t16 110v445h-99v-434q0 -53 -12 -91t-35 -63t-54 -37t-69 -12q-76 0 -123 48t-47 154v434h-99v-445q0 -59 16 -110t49 -88t84 -59t121 -22v0zM354 784q29 0 54 10t44 28t29 45t9 61h-61q-1 -11 -5 -24t-12 -24t-22 -18t-36 -7t-36 7
t-22 18t-12 24t-5 24h-61q-1 -34 9 -61t29 -45t44 -28t54 -10v0v1v-1z" />
    <glyph glyph-name="ubreve" unicode="&#x16d;" horiz-adv-x="591" 
d="M508 15v517h-95v-450q-5 -2 -17 -4t-26 -4t-30 -3t-31 -1q-73 0 -104 42t-31 139v279h-95v-299q0 -54 11 -99t37 -78t68 -51t103 -18q71 0 125 9t87 17v0zM293 625q29 0 54 10t44 28t29 45t9 61h-61q-1 -11 -5 -24t-12 -24t-22 -18t-36 -7t-36 7t-22 18t-12 24t-5 24h-61
q-1 -34 9 -61t29 -45t44 -28t54 -10v0v1v-1z" />
    <glyph glyph-name="Uring" unicode="&#x16e;" horiz-adv-x="708" 
d="M354 -15q70 0 121 22t84 59t49 88t16 110v445h-99v-434q0 -53 -12 -91t-35 -63t-54 -37t-69 -12q-76 0 -123 48t-47 154v434h-99v-445q0 -59 16 -110t49 -88t84 -59t121 -22v0zM460 853q0 25 -9 44t-23 33t-33 21t-41 7t-41 -7t-33 -21t-23 -33t-9 -44t9 -44t23 -33
t33 -21t41 -7t41 7t33 21t23 33t9 44v0zM409 853q0 -27 -16 -42t-39 -15t-39 15t-16 42t16 42t39 15t39 -15t16 -42v0v1v-1z" />
    <glyph glyph-name="uring" unicode="&#x16f;" horiz-adv-x="591" 
d="M508 15v517h-95v-450q-5 -2 -17 -4t-26 -4t-30 -3t-31 -1q-73 0 -104 42t-31 139v279h-95v-299q0 -54 11 -99t37 -78t68 -51t103 -18q71 0 125 9t87 17v0zM398 693q0 25 -9 44t-23 33t-33 21t-41 7t-41 -7t-33 -21t-23 -33t-9 -44t9 -44t23 -33t33 -21t41 -7t41 7t33 21
t23 33t9 44v0zM347 693q0 -27 -16 -42t-39 -15t-39 15t-16 42t16 42t39 15t39 -15t16 -42v0v1v-1z" />
    <glyph glyph-name="Uhungarumlaut" unicode="&#x170;" horiz-adv-x="708" 
d="M354 -15q70 0 121 22t84 59t49 88t16 110v445h-99v-434q0 -53 -12 -91t-35 -63t-54 -37t-69 -12q-76 0 -123 48t-47 154v434h-99v-445q0 -59 16 -110t49 -88t84 -59t121 -22v0zM400 897l-57 57l-118 -164l49 -37l126 143v1zM569 897l-57 57l-118 -164l49 -37l126 143v0v1
v0z" />
    <glyph glyph-name="uhungarumlaut" unicode="&#x171;" horiz-adv-x="591" 
d="M508 15v517h-95v-450q-5 -2 -17 -4t-26 -4t-30 -3t-31 -1q-73 0 -104 42t-31 139v279h-95v-299q0 -54 11 -99t37 -78t68 -51t103 -18q71 0 125 9t87 17v0zM339 737l-57 57l-118 -164l49 -37l126 143v1zM508 737l-57 57l-118 -164l49 -37l126 143v0v1v0z" />
    <glyph glyph-name="Uogonek" unicode="&#x172;" horiz-adv-x="708" 
d="M354 -15h5q-19 -17 -38 -43t-19 -55q0 -36 28 -57t85 -21q20 0 38 3t29 8l-7 62q-11 -4 -23 -6t-19 -2q-41 0 -41 30q0 14 8 26t22 28q15 16 34 28t43 26q64 37 94 101t30 147v445h-99v-434q0 -53 -12 -91t-35 -63t-54 -37t-69 -12q-76 0 -123 48t-47 154v434h-99v-445
q0 -59 16 -110t49 -88t84 -59t121 -22v0v0v1z" />
    <glyph glyph-name="uogonek" unicode="&#x173;" horiz-adv-x="591" 
d="M508 12v520h-95v-450q-5 -2 -17 -4t-26 -4t-30 -3t-31 -1q-73 0 -104 42t-31 139v279h-95v-299q0 -54 11 -99t37 -78t68 -51t103 -18q29 0 54 2t49 5q-5 -5 -13 -11t-13 -12q-17 -18 -31 -40t-14 -46q0 -36 28 -57t85 -21q20 0 38 3t29 8l-7 62q-11 -4 -23 -6t-19 -2
q-41 0 -41 30q0 14 9 26t23 28q15 16 30 29t27 22v0v0v1z" />
    <glyph glyph-name="Wcircumflex" unicode="&#x174;" horiz-adv-x="955" 
d="M478 481q43 -137 86 -254t88 -228h99q53 157 94 331t78 379h-101q-14 -80 -29 -160t-31 -155t-32 -144t-32 -126q-41 108 -88 236t-87 265h-86q-40 -137 -86 -265t-87 -236q-17 58 -33 127t-32 144t-31 155t-29 160h-104q36 -205 77 -379t95 -331h99q44 111 88 228
t87 254v0zM477 947l-139 -146l40 -45l99 90l99 -90l40 45l-139 146v0v0v1v-1z" />
    <glyph glyph-name="wcircumflex" unicode="&#x175;" horiz-adv-x="799" 
d="M519 0h83q47 105 92 240t85 292h-98q-10 -48 -24 -104t-30 -112t-33 -108t-32 -91q-17 48 -34 102t-32 109t-28 108t-22 99h-79q-10 -46 -24 -99t-29 -108t-32 -109t-34 -102q-15 39 -32 91t-33 108t-30 112t-24 104h-102q40 -157 85 -292t92 -240h83q29 74 61 169
t59 197q27 -102 59 -197t61 -169h-8zM399 787l-139 -146l40 -45l99 90l99 -90l40 45l-139 146v0v0v1v-1z" />
    <glyph glyph-name="Ycircumflex" unicode="&#x176;" horiz-adv-x="616" 
d="M259 0h99v287q70 109 132 215t117 208h-111q-40 -84 -88 -171t-98 -167q-51 80 -99 167t-87 171h-117q55 -102 117 -208t133 -216v-285v0zM308 947l-139 -146l40 -45l99 90l99 -90l40 45l-139 146v0v0v1v-1z" />
    <glyph glyph-name="ycircumflex" unicode="&#x177;" horiz-adv-x="513" 
d="M22 -99l-17 -77q4 -2 14 -5t22 -6t24 -5t23 -2q42 0 75 10t60 32t49 55t42 79q52 121 97 260t82 290h-98q-26 -112 -55 -217t-68 -213q-25 52 -48 108t-42 112t-35 109t-27 99h-102q37 -141 93 -279t120 -261q-26 -56 -58 -81t-88 -25q-17 0 -35 5t-29 10v0zM269 787
l-139 -146l40 -45l99 90l99 -90l40 45l-139 146v0v0v1v-1z" />
    <glyph glyph-name="Ydieresis" unicode="&#x178;" horiz-adv-x="616" 
d="M259 0h99v287q70 109 132 215t117 208h-111q-40 -84 -88 -171t-98 -167q-51 80 -99 167t-87 171h-117q55 -102 117 -208t133 -216v-285v0zM211 791q24 0 42 17t18 44t-18 44t-42 17t-42 -17t-18 -44t18 -44t42 -17v0zM406 791q24 0 42 17t18 44t-18 44t-42 17t-42 -17
t-18 -44t18 -44t42 -17v0v1v-1z" />
    <glyph glyph-name="Zacute" unicode="&#x179;" horiz-adv-x="590" 
d="M541 631v79h-486v-85h365q-28 -32 -61 -74t-68 -90t-71 -100t-69 -103t-62 -100t-51 -90v-67h515v85h-399q26 46 58 97t67 103t72 103t72 97t66 83t55 64v0zM425 894l-61 60l-131 -158l48 -43l144 140v0v0v1v0z" />
    <glyph glyph-name="zacute" unicode="&#x17a;" horiz-adv-x="486" 
d="M437 461v72h-384v-80h263q-28 -33 -65 -81t-76 -102t-75 -108t-61 -99v-64h407v80h-293q31 52 71 109t80 109t75 95t57 67v0zM362 734l-61 60l-131 -158l48 -43l144 140v0v0v1v0z" />
    <glyph glyph-name="Zdotaccent" unicode="&#x17b;" horiz-adv-x="590" 
d="M541 631v79h-486v-85h365q-28 -32 -61 -74t-68 -90t-71 -100t-69 -103t-62 -100t-51 -90v-67h515v85h-399q26 46 58 97t67 103t72 103t72 97t66 83t55 64v0zM301 788q26 0 44 17t18 46t-18 46t-44 17t-44 -17t-18 -46t18 -46t44 -17v0v1v-1z" />
    <glyph glyph-name="zdotaccent" unicode="&#x17c;" horiz-adv-x="486" 
d="M437 461v72h-384v-80h263q-28 -33 -65 -81t-76 -102t-75 -108t-61 -99v-64h407v80h-293q31 52 71 109t80 109t75 95t57 67v0zM239 629q26 0 44 17t18 46t-18 46t-44 17t-44 -17t-18 -46t18 -46t44 -17v0v1v-1z" />
    <glyph glyph-name="Zcaron" unicode="&#x17d;" horiz-adv-x="590" 
d="M541 631v79h-486v-85h365q-28 -32 -61 -74t-68 -90t-71 -100t-69 -103t-62 -100t-51 -90v-67h515v85h-399q26 46 58 97t67 103t72 103t72 97t66 83t55 64v0zM162 906l139 -146l139 146l-40 45l-99 -90l-99 90l-40 -45v0v0v1v-1z" />
    <glyph glyph-name="zcaron" unicode="&#x17e;" horiz-adv-x="486" 
d="M437 461v72h-384v-80h263q-28 -33 -65 -81t-76 -102t-75 -108t-61 -99v-64h407v80h-293q31 52 71 109t80 109t75 95t57 67v0zM99 746l139 -146l139 146l-40 45l-99 -90l-99 90l-40 -45v0v0v1v-1z" />
    <glyph glyph-name="longs" unicode="&#x17f;" horiz-adv-x="283" 
d="M292 795q-108 0 -158 -56t-50 -158v-581h95v579q0 61 27 97t94 36q33 0 56 -6t35 -12l17 82q-12 5 -42 11t-72 6v0v0v1z" />
    <glyph glyph-name="florin" unicode="&#x192;" horiz-adv-x="900" 
d="M450 -66l26 26t46 45t59 58l64 64l63 63t56 57q35 32 58 79t29 97t-7 98t-48 82q-36 39 -85 55t-98 11t-93 -30t-72 -68q-28 43 -73 68t-94 30t-98 -11t-85 -55q-36 -34 -48 -82t-6 -98t29 -97t58 -79q25 -26 56 -57t64 -63t65 -64t59 -58t46 -45l26 -26v0v0v1z" />
    <glyph glyph-name="circumflex" unicode="&#x2c6;" horiz-adv-x="389" 
d="M195 787l-139 -146l40 -45l99 90l99 -90l40 45l-139 146v0v0v1v-1z" />
    <glyph glyph-name="caron" unicode="&#x2c7;" horiz-adv-x="389" 
d="M55 746l139 -146l139 146l-40 45l-99 -90l-99 90l-40 -45v0v0v1v-1z" />
    <glyph glyph-name="uni02C9" unicode="&#x2c9;" horiz-adv-x="389" 
d="M49 728v-74h291v74h-291v0v1v-1z" />
    <glyph glyph-name="breve" unicode="&#x2d8;" horiz-adv-x="389" 
d="M198 625q29 0 54 10t44 28t29 45t9 61h-61q-1 -11 -5 -24t-12 -24t-22 -18t-36 -7t-36 7t-22 18t-12 24t-5 24h-61q-1 -34 9 -61t29 -45t44 -28t54 -10v0v1v-1z" />
    <glyph glyph-name="dotaccent" unicode="&#x2d9;" horiz-adv-x="389" 
d="M195 629q26 0 44 17t18 46t-18 46t-44 17t-44 -17t-18 -46t18 -46t44 -17v0v1v-1z" />
    <glyph glyph-name="ring" unicode="&#x2da;" horiz-adv-x="389" 
d="M300 693q0 25 -9 44t-23 33t-33 21t-41 7t-41 -7t-33 -21t-23 -33t-9 -44t9 -44t23 -33t33 -21t41 -7t41 7t33 21t23 33t9 44v0zM249 693q0 -27 -16 -42t-39 -15t-39 15t-16 42t16 42t39 15t39 -15t16 -42v0v1v-1z" />
    <glyph glyph-name="ogonek" unicode="&#x2db;" horiz-adv-x="389" 
d="M187 -192q20 0 38 3t29 8l-7 62q-11 -4 -23 -6t-19 -2q-41 0 -41 30q0 14 9 26t23 28q15 16 30 28t26 20h-95q-8 -5 -18 -14t-22 -22q-17 -18 -30 -40t-13 -46q0 -36 28 -57t85 -21v0v0v1v2z" />
    <glyph glyph-name="tilde" unicode="&#x2dc;" horiz-adv-x="389" 
d="M362 728l-49 25q-8 -16 -23 -30t-32 -14q-11 0 -23 4t-29 12q-16 8 -34 15t-38 7q-22 0 -40 -10t-31 -24t-22 -30t-13 -28l49 -25q8 16 23 30t32 14q11 0 23 -4t29 -12q16 -8 34 -15t38 -7q22 0 40 10t31 24t22 30t14 28v0v1z" />
    <glyph glyph-name="hungarumlaut" unicode="&#x2dd;" horiz-adv-x="389" 
d="M214 737l-57 57l-118 -164l49 -37l126 143v1zM383 737l-57 57l-118 -164l49 -37l126 143v0v1v0z" />
    <glyph glyph-name="uni0311" unicode="&#x311;" horiz-adv-x="389" 
d="M195 767q-29 0 -54 -10t-44 -28t-29 -45t-9 -61h61q1 11 5 24t12 24t22 18t36 7t36 -7t22 -18t12 -24t5 -24h61q1 34 -9 61t-29 45t-44 28t-54 10v0v1v-1z" />
    <glyph glyph-name="tonos" unicode="&#x384;" horiz-adv-x="389" 
d="M336 751l-73 51l-116 -174l55 -39l133 162v0v1z" />
    <glyph glyph-name="dieresistonos" unicode="&#x385;" horiz-adv-x="389" 
d="M274 755l-69 44l-91 -175l53 -32l106 163h1zM342 636q24 0 40 15t16 41t-16 41t-40 15t-40 -15t-16 -41t16 -41t40 -15v0zM47 636q24 0 40 15t16 41t-16 41t-40 15q-23 0 -39 -15t-16 -41t16 -41t39 -15v0v1v-1z" />
    <glyph glyph-name="Alphatonos" unicode="&#x386;" horiz-adv-x="683" 
d="M564 0h109q-41 113 -77 209t-70 182t-68 164t-71 155h-91q-37 -77 -71 -155t-68 -164t-70 -182t-77 -209h103l64 181h322q16 -46 31 -91t32 -91v0zM471 263h-264q32 89 64 172t68 160q35 -77 67 -160t65 -172v0v0zM206 702l-92 24l-47 -206l70 -16l70 199v0v0v1z" />
    <glyph glyph-name="Epsilontonos" unicode="&#x388;" horiz-adv-x="653" 
d="M155 0h459v85h-359v246h297v83h-297v211h334v85h-433v-710h-1zM113 702l-92 24l-47 -206l70 -16l70 199v0v0v1z" />
    <glyph glyph-name="Etatonos" unicode="&#x389;" horiz-adv-x="795" 
d="M606 710v-296h-347v296h-99v-710h99v328h347v-328h99v710h-99v0zM113 702l-92 24l-47 -206l70 -16l70 199v0v0v1z" />
    <glyph glyph-name="Iotatonos" unicode="&#x38a;" horiz-adv-x="349" 
d="M160 710v-710h99v710h-99v0zM113 702l-92 24l-47 -206l70 -16l70 199v0v0v1z" />
    <glyph glyph-name="Omicrontonos" unicode="&#x38c;" horiz-adv-x="826" 
d="M87 355q0 -91 27 -161t74 -117t109 -71t132 -24q69 0 130 24t107 71t73 117t27 161t-27 161t-73 117t-107 71t-130 24q-70 0 -132 -24t-109 -71t-74 -117t-27 -161v0zM192 355q0 64 16 117t46 90t74 57t98 20t97 -20t73 -57t46 -90t16 -117t-16 -117t-46 -90t-73 -57
t-97 -20t-98 20t-74 57t-46 90t-16 117v0zM113 702l-92 24l-47 -206l70 -16l70 199v0v0v1z" />
    <glyph glyph-name="Upsilontonos" unicode="&#x38e;" horiz-adv-x="745" 
d="M388 0h99v287q70 109 132 215t117 208h-111q-40 -84 -88 -171t-98 -167q-51 80 -99 167t-87 171h-117q55 -102 117 -208t133 -216v-285v0zM113 702l-92 24l-47 -206l70 -16l70 199v0v0v1z" />
    <glyph glyph-name="Omegatonos" unicode="&#x38f;" horiz-adv-x="829" 
d="M426 726q-67 0 -127 -22t-106 -66t-73 -108t-27 -149q0 -48 11 -92t29 -82t42 -69t48 -54h-146v-84h273v70q-33 26 -61 58t-48 70t-32 84t-12 101q0 60 16 108t46 81t72 50t93 17t93 -17t72 -50t46 -81t16 -108q0 -55 -12 -101t-32 -84t-48 -70t-60 -58v-70h273v84h-146
q24 23 48 54t42 69t29 82t11 92q0 85 -27 149t-73 108t-106 66t-126 22h2zM113 702l-92 24l-47 -206l70 -16l70 199v0v0v1z" />
    <glyph glyph-name="iotadieresistonos" unicode="&#x390;" horiz-adv-x="283" 
d="M244 -10l13 80q-23 3 -38 8t-24 14t-13 24t-4 39v378h-95v-393q0 -76 37 -112t125 -38v0h-1zM213 755l-69 44l-91 -175l53 -32l106 163h1zM281 636q24 0 40 15t16 41t-16 41t-40 15t-40 -15t-16 -41t16 -41t40 -15v0zM-14 636q24 0 40 15t16 41t-16 41t-40 15
q-23 0 -39 -15t-16 -41t16 -41t39 -15v0v1v-1z" />
    <glyph glyph-name="Alpha" unicode="&#x391;" horiz-adv-x="683" 
d="M564 0h109q-41 113 -77 209t-70 182t-68 164t-71 155h-91q-37 -77 -71 -155t-68 -164t-70 -182t-77 -209h103l64 181h322q16 -46 31 -91t32 -91v0zM471 263h-264q32 89 64 172t68 160q35 -77 67 -160t65 -172v0v0v1v-1z" />
    <glyph glyph-name="Beta" unicode="&#x392;" horiz-adv-x="662" 
d="M282 -6q170 0 248 54t78 160q0 73 -37 113t-99 58q46 18 74 55t28 95q0 52 -23 88t-62 58t-93 31t-115 9q-22 0 -47 -1t-50 -3t-50 -5t-45 -8v-688q20 -5 45 -8t50 -5t50 -3t47 -1v0zM188 331h128q43 0 78 -6t60 -20t38 -38t13 -59q0 -39 -18 -65t-48 -40t-69 -20t-83 -6
h-42t-31 1q-15 1 -26 2v250v0v1zM188 411v219q17 2 39 3t60 1t72 -6t59 -19t39 -34t14 -52q0 -33 -14 -55t-38 -35t-57 -18t-70 -5h-104v0v0v1v0z" />
    <glyph glyph-name="Gamma" unicode="&#x393;" horiz-adv-x="525" 
d="M507 710h-417v-710h99v624h317v86v0v0v1z" />
    <glyph glyph-name="uni0394" unicode="&#x394;" horiz-adv-x="670" 
d="M10 0h650q-35 111 -68 204t-67 177t-69 164t-75 164h-91q-40 -84 -75 -164t-69 -164t-67 -177t-68 -204v0h-1zM333 596q22 -46 73 -170t123 -341h-392q72 217 123 341t74 170v0v0v1z" />
    <glyph glyph-name="uni03A9" unicode="&#x3a9;" horiz-adv-x="806" 
d="M403 726q-67 0 -127 -22t-106 -66t-73 -108t-27 -149q0 -48 11 -92t29 -82t42 -69t48 -54h-146v-84h273v70q-33 26 -61 58t-48 70t-32 84t-12 101q0 60 16 108t46 81t72 50t93 17t93 -17t72 -50t46 -81t16 -108q0 -55 -12 -101t-32 -84t-48 -70t-60 -58v-70h273v84h-146
q24 23 48 54t42 69t29 82t11 92q0 85 -27 149t-73 108t-106 66t-126 22v0v1z" />
    <glyph glyph-name="uni03BC" unicode="&#x3bc;" horiz-adv-x="598" 
d="M744 -228q12 0 30 2t38 8t42 16t40 26q16 14 30 30t24 29t16 22t7 9q9 17 3 36t-23 29q-17 11 -36 5t-28 -22l-5 -7t-13 -17t-18 -22t-22 -23q-30 -28 -86 -28h-548q-53 0 -86 28q-12 11 -19 19t-13 16t-11 16t-13 18q-12 15 -31 21t-36 -5q-17 -10 -22 -29t3 -36l6 -9
t16 -22t24 -29t31 -30q19 -16 41 -26t42 -16t38 -8t31 -2h548v1zM676 2q29 0 55 9t48 25t38 38t25 49q55 1 93 12t71 44q20 19 30 43t15 51t5 56v61q0 20 -14 35t-34 15h-161v41q0 19 -14 34t-34 15h-654q-20 0 -34 -15t-14 -34v-305q0 -36 13 -68t36 -56t54 -37t67 -13h410
v0h-1zM192 432h558v-257q0 -32 -22 -54t-53 -22h-410q-31 0 -53 22t-22 54v257v0h2zM847 341h111q-2 -36 -4 -59t-16 -37t-34 -19t-56 -7v122v0h-1zM359 600q20 0 35 15t15 37q0 19 13 32t32 13q31 0 58 12t47 32t32 47t12 58q0 22 -15 37t-37 15q-23 0 -37 -15t-14 -37
q0 -17 -13 -30t-31 -13q-31 0 -58 -12t-47 -32t-32 -47t-12 -58q0 -22 15 -37t37 -15v0v-2zM608 600q23 0 37 15t14 37q0 19 14 32t31 13q31 0 58 12t47 32t32 47t12 58q0 22 -15 37t-35 15q-22 0 -37 -15t-15 -37q0 -17 -13 -30t-32 -13q-31 0 -58 -12t-47 -32t-32 -47
t-12 -58q0 -22 15 -37t37 -15v0v0v1z" />
    <glyph glyph-name="pi" unicode="&#x3c0;" horiz-adv-x="595" 
d="M512 0v532h-428v-532h95v453h238v-453h95v0v1v-1z" />
    <glyph glyph-name="endash" unicode="&#x2013;" horiz-adv-x="512" 
d="M0 347v-81h512v81h-512v0v1v-1z" />
    <glyph glyph-name="emdash" unicode="&#x2014;" horiz-adv-x="1043" 
d="M978 845q-8 8 -20 10t-23 0l-552 -169q-16 -4 -25 -17t-9 -30v-495q-25 13 -52 24t-59 11q-43 0 -80 -14t-65 -39t-44 -58t-16 -71q0 -39 16 -71t44 -56t65 -37t80 -13q44 0 82 14t67 39t45 58t16 72v351l453 144v-256q-25 14 -52 24t-59 10q-43 0 -80 -14t-65 -39
t-44 -58t-16 -71t16 -71t44 -57t65 -38t80 -14q42 0 79 14t65 38t45 56t19 69v712q0 11 -5 22t-15 17v0v3zM900 604l-453 -146v143l453 137v-134v0v0v1v-1z" />
    <glyph glyph-name="uni2015" unicode="&#x2015;" horiz-adv-x="1024" 
d="M816 103h102v715h-306v-102h-306v-510h-204v-102h-102v-101h102v-102h204v102h101v408h205v102h204v-205h-204v-101h-101v-102h101v-101h204v101v0v-2zM816 716v-101h-204v101h204v0zM612 614v-102h-205v102h205v0v1v-1z" />
    <glyph glyph-name="quoteleft" unicode="&#x2018;" horiz-adv-x="796" 
d="M639 427h-22v126q0 44 -17 83t-46 68t-68 45t-83 16t-83 -16t-68 -45t-46 -67t-17 -82v-127h-23q-56 0 -80 -27t-24 -73v-259q0 -47 24 -73t80 -26h474q52 0 79 27t27 72v259q0 44 -27 72t-79 28v0zM284 427v127q0 24 10 45t26 36t38 24t46 9t46 -9t38 -24t26 -36t10 -46
v-126h-238v0v0v1z" />
    <glyph glyph-name="quoteright" unicode="&#x2019;" horiz-adv-x="244" 
d="M181 768h-104q1 -11 1 -23v-22q0 -40 -11 -86t-33 -92l74 -24q28 46 47 98t23 105q1 10 1 21v22v0v0v1h2z" />
    <glyph glyph-name="quotesinglbase" unicode="&#x201a;" horiz-adv-x="244" 
d="M181 117h-104q1 -11 1 -23v-22q0 -40 -11 -86t-33 -91l74 -24q28 45 47 97t23 105q1 10 1 21v22v0v0v1h2z" />
    <glyph glyph-name="quotedblleft" unicode="&#x201c;" horiz-adv-x="431" 
d="M36 522h104q-1 11 -1 23v22q0 40 11 86t33 92l-74 24q-28 -46 -47 -98t-23 -105q-1 -10 -1 -21v-22v0zM222 522h104q-1 11 -1 23v22q0 40 11 86t33 92l-74 24q-28 -46 -47 -98t-23 -105q-1 -10 -1 -21v-22v0v0v1z" />
    <glyph glyph-name="quotedblright" unicode="&#x201d;" horiz-adv-x="431" 
d="M181 768h-104q1 -11 1 -23v-22q0 -40 -11 -86t-33 -92l74 -24q28 46 47 98t23 105q1 10 1 21v22v0zM368 768h-104q1 -11 1 -23v-22q0 -40 -11 -86t-33 -92l74 -24q28 46 47 98t23 105q1 10 1 21v22v0v0v1h2z" />
    <glyph glyph-name="quotedblbase" unicode="&#x201e;" horiz-adv-x="431" 
d="M181 117h-104q1 -11 1 -23v-22q0 -40 -11 -86t-33 -91l74 -24q28 45 47 97t23 105q1 10 1 21v22v0zM368 117h-104q1 -11 1 -23v-22q0 -40 -11 -86t-33 -91l74 -24q28 45 47 97t23 105q1 10 1 21v22v0v0v1h2z" />
    <glyph glyph-name="dagger" unicode="&#x2020;" horiz-adv-x="1256" 
d="M940 585q17 -10 22 -29t-6 -36q-8 -13 -21 -32t-33 -37t-49 -30t-69 -12q-43 0 -74 11t-53 30t-36 44t-24 52q-8 19 -15 32t-16 21t-23 11t-33 3q-17 0 -30 -6t-23 -20t-18 -38t-16 -61q38 -15 70 -41t55 -60t36 -74t13 -84q0 -57 -22 -107t-60 -88t-88 -60t-107 -22
t-108 22t-88 60t-59 88t-22 107t22 108t59 88t88 59t108 22h6q8 32 17 62t23 56q24 43 60 65t85 22q42 0 71 -11t49 -28t33 -40t23 -48q9 -25 18 -40t20 -24t25 -12t32 -3q36 0 54 18t35 47q11 17 30 22t36 -6v0zM367 352q2 20 -12 35t-34 16q-39 2 -73 -11t-60 -40
q-25 -26 -37 -60t-10 -71q2 -18 16 -31t33 -13h3q20 2 33 17t12 35q-3 33 19 55q20 23 59 21q20 -1 34 12t16 33v0zM1008 778q0 33 -23 56t-56 23q-16 0 -31 -6t-26 -17t-17 -25t-6 -30q0 -33 24 -56t57 -23t56 23t23 56v0zM1234 674q0 33 -23 56t-56 23q-34 0 -57 -23
t-23 -56t23 -57t57 -24q33 0 56 24t23 57v0zM1228 451q0 33 -23 57t-56 24q-16 0 -30 -6t-25 -17t-18 -26t-7 -31t7 -30t18 -25t25 -17t30 -6q33 0 56 23t23 56v0v0v1v-3z" />
    <glyph glyph-name="daggerdbl" unicode="&#x2021;" horiz-adv-x="1122" 
d="M31 362q0 -105 40 -198t110 -163t163 -110t198 -40t199 40t164 110t110 163t40 198t-40 199t-110 164t-164 110t-199 40t-198 -40t-163 -110t-110 -164t-40 -199v0zM364 55l487 487q18 -19 28 -43t15 -48t6 -47t1 -42q0 -77 -27 -143t-75 -114t-114 -75t-143 -27
q-19 0 -42 1t-47 6t-48 15t-43 29v0zM184 362q0 77 27 143t75 114t114 75t143 27q19 0 42 -1t47 -6t48 -15t43 -28l-487 -487q-19 19 -29 43t-15 48t-6 47t-1 42v0v0v1z" />
    <glyph glyph-name="bullet" unicode="&#x2022;" horiz-adv-x="974" 
d="M247 -29h305q36 0 63 4t48 14t37 25t30 38q26 41 50 41h106q20 0 34 14t14 34t-14 34t-34 14h-106q-76 0 -129 -86q-6 -9 -12 -16t-16 -12t-27 -8t-45 -3h-305q-2 0 -24 4t-46 26q-31 33 -36 72t-5 89q0 46 3 84t20 62q9 11 20 19t22 12t19 6t11 2h69l110 -105
q14 -14 33 -13t33 15t14 33t-14 33l-96 93q-2 9 -3 39t0 66q1 38 5 63t8 39t8 21t6 8q17 19 40 27t43 11v-187q0 -15 8 -27t23 -17q2 -1 31 -15t70 -47q27 -23 45 -45t30 -39t18 -29t6 -13q5 -13 18 -21t27 -8h123q20 0 34 13t14 33t-14 34t-34 14h-94q-14 24 -41 59t-72 72
q-30 25 -56 41t-44 26v205q0 18 -12 31t-29 15q-2 0 -24 1t-53 -5t-66 -21t-64 -47q-46 -52 -50 -192q-2 -38 0 -69h-30h-20q-13 0 -31 -4t-38 -13t-40 -23t-36 -36q-15 -22 -24 -46t-13 -50t-4 -53v-55v-56t7 -59t21 -59t41 -56q22 -20 44 -32t41 -18t33 -7t19 -1v0v0v1z
" />
    <glyph glyph-name="ellipsis" unicode="&#x2026;" horiz-adv-x="1024" 
d="M240 55q0 28 -18 48t-50 20t-50 -20t-18 -48t18 -48t50 -20t50 20t18 48v0zM581 55q0 28 -18 48t-50 20t-50 -20t-18 -48t18 -48t50 -20t50 20t18 48v0zM922 55q0 28 -18 48t-50 20t-50 -20t-18 -48t18 -48t50 -20t50 20t18 48v0v1v-1z" />
    <glyph glyph-name="perthousand" unicode="&#x2030;" horiz-adv-x="1260" 
d="M53 537q0 -46 12 -81t34 -59t52 -36t65 -12t65 12t52 36t34 59t12 81t-12 81t-34 59t-52 36t-65 12t-65 -12t-52 -36t-34 -59t-12 -81v0zM299 537q0 -55 -22 -86t-62 -31t-62 31t-22 86t22 86t62 31t62 -31t22 -86v0zM504 173q0 -46 12 -81t34 -59t52 -36t65 -12t65 12
t52 36t34 59t12 81t-12 81t-34 59t-52 36t-65 12t-65 -12t-52 -36t-34 -59t-12 -81v0zM750 173q0 -55 -22 -86t-62 -31t-62 31t-22 86t22 86t62 31t62 -31t22 -86v0zM688 710h-93l-400 -710h93l400 710v0zM882 173q0 -46 12 -81t34 -59t52 -36t65 -12t65 12t52 36t34 59
t12 81t-12 81t-34 59t-52 36t-65 12t-65 -12t-52 -36t-34 -59t-12 -81v0zM1127 173q0 -55 -22 -86t-62 -31t-62 31t-22 86t22 86t62 31t62 -31t22 -86v0v1v-1z" />
    <glyph glyph-name="guilsinglleft" unicode="&#x2039;" horiz-adv-x="302" 
d="M33 291l160 -226l67 36l-114 190l114 190l-67 36l-160 -226v0v1v-1z" />
    <glyph glyph-name="guilsinglright" unicode="&#x203a;" horiz-adv-x="302" 
d="M110 64l160 226l-160 226l-67 -36l114 -190l-114 -190l67 -36v0v1v-1z" />
    <glyph glyph-name="fraction" unicode="&#x2044;" horiz-adv-x="155" 
d="M320 710h-89l-400 -710h89l400 710v0v1v-1z" />
    <glyph glyph-name="uni2070" unicode="&#x2070;" horiz-adv-x="371" 
d="M32 520q0 -99 41 -152t113 -53t113 53t41 152t-41 152t-113 53t-113 -53t-41 -152v0zM263 520q0 -30 -4 -56t-13 -45t-24 -30t-38 -11t-38 11t-24 30t-13 45t-4 56q0 29 4 55t13 45t24 30t38 11t38 -11t24 -30t13 -45t4 -55v0v1v-1z" />
    <glyph glyph-name="uni2074" unicode="&#x2074;" horiz-adv-x="371" 
d="M294 718h-66q-30 -26 -60 -59t-57 -68t-50 -68t-37 -59v-47h198v-95h70v95h51v60h-51v240zM224 633v-155h-121q24 39 57 80t65 74v0v0v1h-1z" />
    <glyph glyph-name="uni2075" unicode="&#x2075;" horiz-adv-x="371" 
d="M328 439q0 59 -44 92t-140 38q4 22 5 42t3 40h160v64h-221q-2 -48 -7 -100t-12 -103q53 0 88 -6t56 -16t30 -24t9 -31q0 -24 -21 -42t-75 -18q-32 0 -58 8t-41 14l-15 -61q17 -9 50 -16t66 -7q86 0 127 35t41 89v0v0v1z" />
    <glyph glyph-name="uni2076" unicode="&#x2076;" horiz-adv-x="371" 
d="M40 482q0 -79 39 -124t116 -45q37 0 64 12t45 31t26 43t8 47q0 25 -8 48t-25 41t-45 28t-67 10q-16 0 -35 -3t-39 -11q7 24 25 42t44 30t57 19t65 8l-6 62q-61 -1 -110 -17t-84 -46t-53 -74t-18 -100v0zM189 513q39 0 57 -17t18 -50q0 -11 -4 -23t-12 -23t-21 -18t-32 -7
q-49 0 -67 34t-16 90q18 6 38 10t40 4v0v0v1z" />
    <glyph glyph-name="uni2077" unicode="&#x2077;" horiz-adv-x="371" 
d="M99 323h76q4 51 21 102t40 97t49 82t48 58v56h-293v-67h203q-25 -28 -49 -66t-44 -82t-33 -91t-17 -90v0v0v1h-1z" />
    <glyph glyph-name="uni2078" unicode="&#x2078;" horiz-adv-x="371" 
d="M336 430q-2 33 -15 57t-50 41q24 16 39 39t15 52q0 18 -8 37t-25 34t-44 25t-64 10q-32 0 -58 -9t-44 -24t-28 -35t-10 -43q0 -27 14 -51t38 -41q-25 -15 -43 -40t-18 -54q0 -18 7 -38t24 -36t46 -27t72 -11q74 0 113 32t39 83v0v-1zM106 427q0 23 12 40t32 32
q52 -12 81 -28t29 -45q0 -20 -18 -36t-60 -16q-22 0 -37 5t-24 13t-13 17t-4 17v0zM253 620q0 -24 -13 -40t-33 -30q-48 9 -70 28t-22 39q0 15 15 31t53 16t53 -16t15 -29v0v0v1h2z" />
    <glyph glyph-name="uni2079" unicode="&#x2079;" horiz-adv-x="371" 
d="M333 558q0 79 -39 124t-116 45q-37 0 -64 -12t-45 -31t-26 -42t-8 -46q0 -25 8 -48t25 -41t45 -28t67 -10q16 0 35 3t39 11q-14 -48 -67 -73t-128 -27l2 -62q133 0 204 61t71 176v0h-3zM183 528q-76 0 -76 67q0 11 4 23t13 23t22 18t32 7q49 0 67 -35t16 -91
q-18 -6 -38 -9t-40 -3v0v0v1v-1z" />
    <glyph glyph-name="uni2080" unicode="&#x2080;" horiz-adv-x="371" 
d="M32 200q0 -99 41 -152t113 -53t113 53t41 152t-41 152t-113 53t-113 -53t-41 -152v0zM263 200q0 -30 -4 -56t-13 -45t-24 -30t-38 -11t-38 11t-24 30t-13 45t-4 56q0 29 4 55t13 45t24 30t38 11t38 -11t24 -30t13 -45t4 -55v0v1v-1z" />
    <glyph glyph-name="uni2081" unicode="&#x2081;" horiz-adv-x="371" 
d="M53 315l19 -55q20 6 49 17t52 25v-301h72v395h-50q-28 -27 -66 -48t-77 -34v0v0v1h1z" />
    <glyph glyph-name="uni2082" unicode="&#x2082;" horiz-adv-x="371" 
d="M305 292q0 54 -34 84t-105 30q-46 0 -81 -18t-52 -36l37 -50q5 4 15 11t22 14t27 12t32 5q30 0 47 -12t17 -39q0 -25 -22 -50t-57 -55q-22 -18 -41 -36t-34 -40t-23 -48t-5 -60h272v64h-190q3 13 20 30t34 31q25 22 47 42t38 40t26 40t10 42v0v0v1v-2z" />
    <glyph glyph-name="uni2083" unicode="&#x2083;" horiz-adv-x="371" 
d="M150 57q-27 0 -52 7t-48 15l-15 -61q18 -9 51 -16t65 -7q45 0 77 9t52 26t29 39t9 49q0 36 -21 62t-57 37q56 32 56 82q0 47 -31 77t-106 30q-35 0 -69 -12t-50 -23l26 -56q17 8 41 18t52 10q30 0 49 -11t19 -37q0 -15 -8 -26t-21 -17t-29 -9t-30 -3h-26v-58h19
q22 0 42 -4t36 -12t25 -20t9 -29q0 -27 -20 -44t-74 -17v0v0v1v0z" />
    <glyph glyph-name="uni2084" unicode="&#x2084;" horiz-adv-x="371" 
d="M294 397h-66q-30 -26 -60 -59t-57 -68t-50 -68t-37 -59v-47h198v-95h70v95h51v60h-51v240zM224 312v-155h-121q24 39 57 80t65 74v0v0v1h-1z" />
    <glyph glyph-name="uni2085" unicode="&#x2085;" horiz-adv-x="371" 
d="M328 119q0 59 -44 92t-140 38q4 22 5 42t3 40h160v64h-221q-2 -48 -7 -100t-12 -103q53 0 88 -6t56 -16t30 -24t9 -31q0 -24 -21 -42t-75 -18q-32 0 -58 8t-41 14l-15 -61q17 -9 50 -16t66 -7q86 0 127 35t41 89v0v0v1z" />
    <glyph glyph-name="uni2086" unicode="&#x2086;" horiz-adv-x="371" 
d="M40 162q0 -79 39 -124t116 -45q37 0 64 12t45 31t26 43t8 47q0 25 -8 48t-25 41t-45 28t-67 10q-16 0 -35 -3t-39 -11q7 24 25 42t44 30t57 19t65 8l-6 62q-61 -1 -110 -17t-84 -46t-53 -74t-18 -100v0zM189 192q39 0 57 -17t18 -50q0 -11 -4 -23t-12 -23t-21 -18t-32 -7
q-49 0 -67 34t-16 90q18 6 38 10t40 4v0v0v1z" />
    <glyph glyph-name="uni2087" unicode="&#x2087;" horiz-adv-x="371" 
d="M99 2h76q4 51 21 102t40 97t49 82t48 58v56h-293v-67h203q-25 -28 -49 -66t-44 -82t-33 -91t-17 -90v0v0v1h-1z" />
    <glyph glyph-name="uni2088" unicode="&#x2088;" horiz-adv-x="371" 
d="M336 110q-2 33 -15 57t-50 41q24 16 39 39t15 52q0 18 -8 37t-25 34t-44 25t-64 10q-32 0 -58 -9t-44 -24t-28 -35t-10 -43q0 -27 14 -51t38 -41q-25 -15 -43 -40t-18 -54q0 -18 7 -38t24 -36t46 -27t72 -11q74 0 113 32t39 83v0v-1zM106 106q0 23 12 40t32 32
q52 -12 81 -28t29 -45q0 -20 -18 -36t-60 -16q-22 0 -37 5t-24 13t-13 17t-4 17v0zM253 299q0 -24 -13 -40t-33 -30q-48 9 -70 28t-22 39q0 15 15 31t53 16t53 -16t15 -29v0v0v1h2z" />
    <glyph glyph-name="uni2089" unicode="&#x2089;" horiz-adv-x="371" 
d="M333 238q0 79 -39 124t-116 45q-37 0 -64 -12t-45 -31t-26 -42t-8 -46q0 -25 8 -48t25 -41t45 -28t67 -10q16 0 35 3t39 11q-14 -48 -67 -73t-128 -27l2 -62q133 0 204 61t71 176v0h-3zM183 208q-76 0 -76 67q0 11 4 23t13 23t22 18t32 7q49 0 67 -35t16 -91
q-18 -6 -38 -9t-40 -3v0v0v1v-1z" />
    <glyph glyph-name="Euro" unicode="&#x20ac;" 
d="M142 483h-94v-74h84q-1 -13 -1 -26v-27v-25t1 -23h-84v-74h92q19 -116 85 -181t186 -65q52 0 95 10t60 19l-20 81q-25 -11 -56 -19t-74 -8q-69 0 -115 36t-63 127h192l14 74h-214q-1 11 -1 23v25v27t1 26h234l14 74h-239q7 36 20 65t34 49t50 31t68 11q31 0 60 -6t54 -15
l20 82q-30 9 -60 15t-75 6q-109 0 -179 -60t-94 -180v0v0v1z" />
    <glyph glyph-name="uni20AE" unicode="&#x20ae;" 
d="M540 710h-497v-82h202v-196l-150 -70l31 -64l119 55v-118l-150 -70l31 -64l119 55v-157h93v196l150 71l-31 64l-119 -56v118l150 71l-31 64l-119 -56v157h202v82v0v0v1v-1z" />
    <glyph glyph-name="uni20B4" unicode="&#x20b4;" 
d="M40 411h276l-38 -22q-46 -27 -83 -48t-61 -44h-95v-69h54q-10 -28 -10 -67q0 -35 11 -67t38 -57t71 -40t112 -15q49 0 101 9t99 35l-27 76q-17 -8 -35 -15t-38 -12t-44 -8t-54 -3q-74 0 -106 28t-32 76q0 34 16 60h346v69h-267l45 26q39 24 72 45t57 43h93v69h-53
q9 25 9 57q0 34 -11 68t-36 61t-66 44t-101 17q-42 0 -82 -7t-83 -20l18 -83q25 9 60 19t87 10q23 0 45 -7t39 -20t28 -33t11 -47q0 -32 -14 -58h-349v-69v0v0v1z" />
    <glyph glyph-name="uni20B9" unicode="&#x20b9;" 
d="M71 365v-81q26 -24 59 -56t67 -69t67 -77t62 -80h112q-26 39 -59 81t-67 81t-66 73t-58 57q48 3 94 13t83 29t62 50t33 76h59l14 74h-71q-5 31 -18 57t-37 44h145l14 74h-495v-74h153q27 0 51 -4t43 -15t32 -30t18 -51h-296v-74h294q-9 -29 -30 -48t-49 -30t-59 -16
t-61 -5h-95v0v1h-1z" />
    <glyph glyph-name="uni2113" unicode="&#x2113;" horiz-adv-x="464" 
d="M113 261l-104 -76l37 -54l68 48v-8q0 -37 9 -71t30 -60t55 -41t85 -15q49 0 86 14t63 37l-38 71q-17 -13 -39 -25t-55 -12q-52 0 -76 33t-24 104v45q48 40 87 82t67 88t43 96t15 104q0 30 -5 61t-20 56t-42 41t-70 16q-34 0 -64 -11t-54 -38t-38 -73t-14 -117v-296v0z
M207 335v226q0 49 6 79t17 47t25 23t29 6q19 0 31 -9t19 -23t9 -31t2 -34q0 -87 -37 -157t-101 -129v0v0v1v1z" />
    <glyph glyph-name="uni2116" unicode="&#x2116;" horiz-adv-x="1161" 
d="M544 0h93v710h-95v-531q-31 54 -75 125t-93 144t-100 142t-96 120h-89v-710h94v561q27 -33 58 -77t64 -94t67 -103t65 -104t59 -99t48 -86v2zM1102 530q0 44 -14 80t-39 61t-59 39t-74 14t-74 -14t-59 -39t-39 -61t-14 -80t14 -80t39 -62t59 -40t74 -14t74 14t59 40
t39 62t14 80v0zM1026 530q0 -56 -28 -91t-80 -35t-80 35t-28 91q0 58 28 92t80 34t80 -34t28 -92v0zM743 232v-79h348v79h-348v0v1v-1z" />
    <glyph glyph-name="trademark" unicode="&#x2122;" horiz-adv-x="781" 
d="M311 710h-286v-62h108v-279h71v279h108v62v0h-1zM700 710h-68q-8 -17 -20 -42t-26 -54t-29 -59t-28 -58l-29 58t-29 59t-26 54t-20 42h-68q-8 -52 -14 -133t-14 -207h71q1 26 2 55t3 58l4 58t4 54q10 -19 24 -45t27 -52t25 -49t18 -36h50q6 13 18 36t25 49l26 52t24 45
q2 -25 4 -54l4 -58t3 -58t2 -55h72q-8 126 -14 207t-14 133v0v0v1z" />
    <glyph glyph-name="Omega" unicode="&#x2126;" horiz-adv-x="806" 
d="M403 726q-67 0 -127 -22t-106 -66t-73 -108t-27 -149q0 -48 11 -92t29 -82t42 -69t48 -54h-146v-84h273v70q-33 26 -61 58t-48 70t-32 84t-12 101q0 60 16 108t46 81t72 50t93 17t93 -17t72 -50t46 -81t16 -108q0 -55 -12 -101t-32 -84t-48 -70t-60 -58v-70h273v84h-146
q24 23 48 54t42 69t29 82t11 92q0 85 -27 149t-73 108t-106 66t-126 22v0v1z" />
    <glyph glyph-name="estimated" unicode="&#x212e;" horiz-adv-x="958" 
d="M224 345h666v10q0 77 -32 144t-88 117t-131 79t-160 29t-160 -29t-130 -79t-87 -117t-32 -144t32 -144t87 -117t130 -79t160 -29q49 0 96 10t89 28t77 44t62 59h-58q-49 -55 -117 -88t-149 -33q-75 0 -139 29t-113 81q-9 9 -9 22v202q0 4 5 4v0zM738 573v-202q0 -7 -4 -7
h-510q-5 0 -5 7v198q0 7 3 14t8 11q48 49 112 79t137 30q74 0 138 -28t113 -77q9 -11 9 -24v0v1z" />
    <glyph glyph-name="onethird" unicode="&#x2153;" horiz-adv-x="899" 
d="M53 636l19 -55q20 6 49 17t52 25v-301h72v395h-50q-28 -27 -66 -48t-77 -34v0zM671 710h-89l-400 -710h89l400 710v0zM677 58q-27 0 -52 7t-48 15l-15 -61q18 -9 51 -16t65 -7q45 0 77 9t52 26t29 39t9 49q0 36 -21 62t-57 37q56 32 56 82q0 47 -31 77t-106 30
q-35 0 -69 -12t-50 -23l26 -56q17 8 41 18t52 10q30 0 49 -11t19 -37q0 -15 -8 -26t-21 -17t-29 -9t-30 -3h-26v-58h19q22 0 42 -4t36 -12t25 -20t9 -29q0 -27 -20 -44t-74 -17v0v0v1v0z" />
    <glyph glyph-name="twothirds" unicode="&#x2154;" horiz-adv-x="899" 
d="M305 612q0 54 -34 84t-105 30q-46 0 -81 -18t-52 -36l37 -50q5 4 15 11t22 14t27 12t32 5q30 0 47 -12t17 -39q0 -25 -22 -50t-57 -55q-22 -18 -41 -36t-34 -40t-23 -48t-5 -60h272v64h-190q3 13 20 30t34 31q25 22 47 42t38 40t26 40t10 42v0v-1zM692 710h-89l-400 -710
h89l400 710v0zM677 58q-27 0 -52 7t-48 15l-15 -61q18 -9 51 -16t65 -7q45 0 77 9t52 26t29 39t9 49q0 36 -21 62t-57 37q56 32 56 82q0 47 -31 77t-106 30q-35 0 -69 -12t-50 -23l26 -56q17 8 41 18t52 10q30 0 49 -11t19 -37q0 -15 -8 -26t-21 -17t-29 -9t-30 -3h-26v-58
h19q22 0 42 -4t36 -12t25 -20t9 -29q0 -27 -20 -44t-74 -17v0v0v1v0z" />
    <glyph glyph-name="uni2155" unicode="&#x2155;" horiz-adv-x="899" 
d="M53 636l19 -55q20 6 49 17t52 25v-301h72v395h-50q-28 -27 -66 -48t-77 -34v0zM671 710h-89l-400 -710h89l400 710v0zM855 120q0 59 -44 92t-140 38q4 22 5 42t3 40h160v64h-221q-2 -48 -7 -100t-12 -103q53 0 88 -6t56 -16t30 -24t9 -31q0 -24 -21 -42t-75 -18
q-32 0 -58 8t-41 14l-15 -61q17 -9 50 -16t66 -7q86 0 127 35t41 89v0v0v1z" />
    <glyph glyph-name="uni2156" unicode="&#x2156;" horiz-adv-x="899" 
d="M305 612q0 54 -34 84t-105 30q-46 0 -81 -18t-52 -36l37 -50q5 4 15 11t22 14t27 12t32 5q30 0 47 -12t17 -39q0 -25 -22 -50t-57 -55q-22 -18 -41 -36t-34 -40t-23 -48t-5 -60h272v64h-190q3 13 20 30t34 31q25 22 47 42t38 40t26 40t10 42v0v-1zM708 710h-89l-400 -710
h89l400 710v0zM855 120q0 59 -44 92t-140 38q4 22 5 42t3 40h160v64h-221q-2 -48 -7 -100t-12 -103q53 0 88 -6t56 -16t30 -24t9 -31q0 -24 -21 -42t-75 -18q-32 0 -58 8t-41 14l-15 -61q17 -9 50 -16t66 -7q86 0 127 35t41 89v0v0v1z" />
    <glyph glyph-name="uni2157" unicode="&#x2157;" horiz-adv-x="899" 
d="M150 378q-27 0 -52 7t-48 15l-15 -61q18 -9 51 -16t65 -7q45 0 77 9t52 26t29 39t9 49q0 36 -21 62t-57 37q56 32 56 82q0 47 -31 77t-106 30q-35 0 -69 -12t-50 -23l26 -56q17 8 41 18t52 10q30 0 49 -11t19 -37q0 -15 -8 -26t-21 -17t-29 -9t-30 -3h-26v-58h19
q22 0 42 -4t36 -12t25 -20t9 -29q0 -27 -20 -44t-74 -17v0v1zM692 710h-89l-400 -710h89l400 710v0zM855 120q0 59 -44 92t-140 38q4 22 5 42t3 40h160v64h-221q-2 -48 -7 -100t-12 -103q53 0 88 -6t56 -16t30 -24t9 -31q0 -24 -21 -42t-75 -18q-32 0 -58 8t-41 14l-15 -61
q17 -9 50 -16t66 -7q86 0 127 35t41 89v0v0v1z" />
    <glyph glyph-name="uni2158" unicode="&#x2158;" horiz-adv-x="899" 
d="M294 718h-66q-30 -26 -60 -59t-57 -68t-50 -68t-37 -59v-47h198v-95h70v95h51v60h-51v240zM224 633v-155h-121q24 39 57 80t65 74v0zM702 710h-89l-400 -710h89l400 710v0zM855 120q0 59 -44 92t-140 38q4 22 5 42t3 40h160v64h-221q-2 -48 -7 -100t-12 -103q53 0 88 -6
t56 -16t30 -24t9 -31q0 -24 -21 -42t-75 -18q-32 0 -58 8t-41 14l-15 -61q17 -9 50 -16t66 -7q86 0 127 35t41 89v0v0v1z" />
    <glyph glyph-name="uni2159" unicode="&#x2159;" horiz-adv-x="899" 
d="M53 636l19 -55q20 6 49 17t52 25v-301h72v395h-50q-28 -27 -66 -48t-77 -34v0zM692 710h-89l-400 -710h89l400 710v0zM567 163q0 -79 39 -124t116 -45q37 0 64 12t45 31t26 43t8 47q0 25 -8 48t-25 41t-45 28t-67 10q-16 0 -35 -3t-39 -11q7 24 25 42t44 30t57 19t65 8
l-6 62q-61 -1 -110 -17t-84 -46t-53 -74t-18 -100v0zM717 194q39 0 57 -17t18 -50q0 -11 -4 -23t-12 -23t-21 -18t-32 -7q-49 0 -67 34t-16 90q18 6 38 10t40 4v0v0v1z" />
    <glyph glyph-name="partialdiff" unicode="&#x2202;" horiz-adv-x="603" 
d="M232 711q56 0 96 -18t66 -50t39 -78t17 -102q-17 14 -54 31t-88 17q-62 0 -111 -21t-83 -59t-52 -92t-18 -120q0 -55 16 -98t45 -73t69 -45t88 -15q81 0 136 38t88 97t47 133t14 146q0 77 -13 149t-47 126t-92 87t-147 33q-36 0 -77 -6t-74 -19l14 -81q23 10 56 16t65 6
v0v-2zM312 429q34 0 70 -11t68 -42q-2 -46 -10 -100t-28 -100t-54 -76t-87 -30q-56 0 -93 36t-37 115q0 39 9 76t29 66t53 47t81 18v0v0v1h-1z" />
    <glyph glyph-name="Delta" unicode="&#x2206;" horiz-adv-x="670" 
d="M10 0h650q-35 111 -68 204t-67 177t-69 164t-75 164h-91q-40 -84 -75 -164t-69 -164t-67 -177t-68 -204v0h-1zM333 596q22 -46 73 -170t123 -341h-392q72 217 123 341t74 170v0v0v1z" />
    <glyph glyph-name="product" unicode="&#x220f;" horiz-adv-x="717" 
d="M628 710h-538v-821h99v735h339v-735h99v821v0v0v1z" />
    <glyph glyph-name="summation" unicode="&#x2211;" horiz-adv-x="531" 
d="M367 311q-30 41 -62 86t-61 87t-54 78t-40 62h362v86h-486v-64q18 -30 45 -68t58 -82t64 -90t65 -92q-68 -94 -131 -185t-104 -171v-69h490v85h-376q46 83 106 167t124 170v0v0v1v-1z" />
    <glyph glyph-name="uni2219" unicode="&#x2219;" horiz-adv-x="256" 
d="M197 301q0 28 -18 48t-50 20t-50 -20t-18 -48t18 -48t50 -20t50 20t18 48v0v1v-1z" />
    <glyph glyph-name="radical" unicode="&#x221a;" 
d="M14 354l22 -68l91 29q37 -80 72 -162t68 -169h86l240 817h-84l-200 -697q-16 45 -31 83t-30 74t-31 71t-34 75l-166 -53v0v0v1z" />
    <glyph glyph-name="infinity" unicode="&#x221e;" horiz-adv-x="606" 
d="M179 222q-29 0 -51 20t-22 59t22 59t51 20q28 0 51 -18t43 -61q-20 -43 -43 -61t-51 -18v0zM303 234q9 -14 21 -28t28 -25t35 -18t42 -7q19 0 44 7t47 24t37 45t15 70t-15 70t-37 45t-47 24t-44 7q-23 0 -42 -7t-35 -18t-28 -25t-21 -27q-9 13 -21 27t-28 25t-35 18
t-42 7q-19 0 -44 -7t-47 -24t-37 -45t-15 -70t15 -70t37 -45t47 -24t44 -7q23 0 42 7t35 18t28 25t21 28v0zM427 222q-28 0 -51 18t-43 61q20 43 43 61t51 18q29 0 51 -20t22 -59t-22 -59t-51 -20v0v1v-1z" />
    <glyph glyph-name="integral" unicode="&#x222b;" horiz-adv-x="381" 
d="M143 581v-558q0 -58 -28 -93t-92 -35h-12v-82q11 -1 15 -1h6q108 0 158 56t50 158v558q0 58 28 93t92 35h12v82q-11 1 -15 1h-6q-108 0 -158 -56t-50 -158v0v1v-1z" />
    <glyph glyph-name="approxequal" unicode="&#x2248;" 
d="M535 476l-66 18q-4 -13 -9 -27t-13 -26t-19 -20t-27 -8q-29 0 -55 16t-54 32q-24 14 -50 26t-57 12q-36 0 -61 -15t-41 -37t-25 -47t-13 -44l66 -18q4 13 9 27t13 26t19 20t27 8q29 0 55 -16t54 -32q24 -14 50 -26t57 -12q36 0 61 15t41 37t25 47t13 45v0v-1zM535 258
l-66 18q-4 -13 -9 -27t-13 -26t-19 -20t-27 -8q-29 0 -55 16t-54 32q-24 14 -50 26t-57 12q-36 0 -61 -15t-41 -37t-25 -47t-13 -44l66 -18q4 13 9 27t13 26t19 20t27 8q29 0 55 -16t54 -32q24 -14 50 -26t57 -12q36 0 61 15t41 37t25 47t13 45v0v0v1v-2z" />
    <glyph glyph-name="notequal" unicode="&#x2260;" 
d="M56 231v-81h116l-49 -97l68 -37l68 134h267v81h-226l70 137h157v81h-116l49 97l-68 37l-68 -134h-267v-81h226l-70 -137h-157v0v1v-1z" />
    <glyph glyph-name="lessequal" unicode="&#x2264;" 
d="M162 376l364 150l-27 79l-442 -187v-82l442 -187l27 79l-364 150v-2zM56 83v-81h469v81h-469v0v1v-1z" />
    <glyph glyph-name="greaterequal" unicode="&#x2265;" 
d="M56 525l364 -150l-364 -150l27 -79l442 187v82l-442 187l-27 -79v2zM56 83v-81h469v81h-469v0v1v-1z" />
    <glyph glyph-name="lozenge" unicode="&#x25ca;" horiz-adv-x="569" 
d="M33 355q36 -56 69 -106t64 -95t61 -87l60 -84l60 84t61 87t64 95t69 106q-36 56 -69 106t-64 95t-61 87l-60 84l-60 -84t-61 -87t-64 -95t-69 -106v0zM438 355q-43 -70 -79 -125t-75 -108q-39 53 -75 108t-79 125q22 35 41 66t37 59t36 55t37 54q19 -27 37 -54t36 -55
t37 -59t41 -66v0v0v1z" />
    <glyph glyph-name="uniF000" unicode="&#xf000;" horiz-adv-x="1000" 
d="M895 372h30v305h-30v-305v0zM895 32h30v305h-30v-305v0zM580 680h315v30h-315v-30v0zM580 0h315v30h-315v-30v0zM550 372h30v305h-30v-305v0zM580 340h315v30h-315v-30v0zM550 32h30v305h-30v-305v0zM421 372h30v305h-30v-305v0zM421 32h30v305h-30v-305v0zM104 680h316
v30h-316v-30v0zM104 0h316v30h-316v-30v0zM75 372h30v305h-30v-305v0zM104 340h316v30h-316v-30v0zM75 32h30v305h-30v-305v0v1v-1z" />
    <glyph glyph-name="uniF001" unicode="&#xf001;" horiz-adv-x="662" 
d="M292 795q-108 0 -158 -56t-50 -158v-581h95v453h205v80h-205v46q0 61 27 97t94 36q28 0 47 -5t30 -9l13 82q-11 4 -37 9t-62 5v0zM579 0v532h-95v-532h95v0zM530 629q26 0 44 17t18 46t-18 46t-44 17t-44 -17t-18 -46t18 -46t44 -17v0v1v-1z" />
    <glyph glyph-name="uniF002" unicode="&#xf002;" horiz-adv-x="683" 
d="M292 795q-108 0 -158 -56t-50 -158v-581h95v453h205v80h-205v46q0 61 27 97t94 36q28 0 47 -5t30 -9l13 82q-11 4 -37 9t-62 5v0zM643 -10l13 80q-23 3 -38 8t-24 14t-13 24t-4 39v640l-95 -16v-639q0 -76 37 -112t125 -38v0v0v1z" />
  </font>
</defs>
</svg>
